<svg width="175" height="131" viewBox="0 0 175 131" fill="none" xmlns="http://www.w3.org/2000/svg">
<path d="M31.3734 123.872C31.3734 123.872 -17.8007 -2.68482 72.439 5.88177C111.089 9.55086 103.874 31.8105 120.944 52.6379C132.009 66.1379 153.289 55.094 161.264 66.8908C169.239 78.6876 159.867 112.325 156.58 123.872L31.3734 123.872Z" fill="#E5F0F8"/>
<path d="M22.5078 5.7536V5.31524L25.0555 3.94556V4.61515L23.3537 5.53446L25.0555 6.45377V7.12336L22.5078 5.7536Z" fill="#98EB98"/>
<path d="M72.1475 42.1404V41.4708L73.8492 40.5515L72.1475 39.6322V38.9626L74.6951 40.3323V40.7706L72.1475 42.1404Z" fill="#98EB98"/>
<path d="M36.1326 5.01727H26.001V6.05132H36.1326V5.01727Z" fill="#98EB98"/>
<path d="M32.6404 9.01343H22.5088V10.0475H32.6404V9.01343Z" fill="#98EB98"/>
<path d="M34.7976 11.797H24.666V12.831H34.7976V11.797Z" fill="#98EB98"/>
<path d="M34.7976 19.4586H24.666V20.4927H34.7976V19.4586Z" fill="#98EB98"/>
<path d="M34.7976 21.8283H24.666V22.8624H34.7976V21.8283Z" fill="#98EB98"/>
<path d="M58.7023 14.4481H28.1475V15.4821H58.7023V14.4481Z" fill="#98EB98"/>
<path d="M68.9661 24.3464H28.1475V25.3804H68.9661V24.3464Z" fill="#98EB98"/>
<path d="M68.9661 32.274H28.1475V33.3081H68.9661V32.274Z" fill="#98EB98"/>
<path d="M71.0935 40.0345H31.9873V41.0686H71.0935V40.0345Z" fill="#98EB98"/>
<path d="M36.8903 34.9675H28.1475V36.0016H36.8903V34.9675Z" fill="#98EB98"/>
<path d="M36.8903 37.5298H28.1475V38.5639H36.8903V37.5298Z" fill="#98EB98"/>
<path d="M68.9661 26.8771H28.1475V27.9112H68.9661V26.8771Z" fill="#98EB98"/>
<path d="M50.2322 29.4076H28.1475V30.4416H50.2322V29.4076Z" fill="#98EB98"/>
<path d="M37.5166 16.8311H28.1475V17.8652H37.5166V16.8311Z" fill="#98EB98"/>
<path d="M85.1669 22.1763C84.3685 21.0431 83.0153 20.3277 81.5053 20.4135C81.4595 20.4161 81.4128 20.4196 81.367 20.4231C79.3089 20.6062 77.6788 22.2967 77.5808 24.3473C77.5433 25.1507 77.7349 25.9052 78.0948 26.552C78.2683 26.8632 78.4797 27.1491 78.7239 27.4043V27.4052C78.9168 27.6052 79.1284 27.7869 79.357 27.9456C79.9123 28.3312 80.2607 28.9405 80.3408 29.603L80.148 29.6058C80.0927 29.6066 80.0416 29.6301 80.0058 29.6666C79.9992 29.6733 79.9936 29.681 79.9871 29.6887C79.9627 29.7223 79.9481 29.7642 79.9488 29.8097C79.9505 29.9205 80.0425 30.0102 80.154 30.0085C80.0987 30.0093 80.0476 30.0329 80.0118 30.0694C80.0081 30.0733 80.0053 30.0771 80.0015 30.0809C79.9716 30.1174 79.9541 30.1632 79.9548 30.2125C79.9564 30.3233 80.0485 30.413 80.1601 30.4113C80.1047 30.4121 80.0536 30.4356 80.0178 30.4731C80.0122 30.4789 80.0066 30.4856 80.0009 30.4923C79.9757 30.5268 79.9601 30.5706 79.9608 30.6161C79.9625 30.726 80.0545 30.8157 80.1661 30.814C80.1108 30.8148 80.0596 30.8384 80.0239 30.8758C80.021 30.8787 80.0191 30.8807 80.0173 30.8835C79.9854 30.9191 79.966 30.9667 79.9668 31.0188C79.9685 31.1297 80.0605 31.2183 80.1721 31.2167L80.381 31.2137C80.3836 31.263 80.3879 31.3121 80.3956 31.3603C80.4234 31.5278 80.4824 31.6845 80.5657 31.8251C80.5814 31.8516 80.5981 31.8775 80.6155 31.9029C80.6242 31.9155 80.6336 31.9276 80.6427 31.94C80.6548 31.9564 80.6673 31.9727 80.6802 31.9886C80.6896 32.0002 80.6992 32.0118 80.709 32.0231C80.7246 32.0411 80.7408 32.0585 80.7573 32.0756C80.765 32.0836 80.7724 32.0918 80.7802 32.0997C80.8042 32.1233 80.8291 32.1459 80.8547 32.1677C80.8637 32.1753 80.8729 32.1824 80.882 32.1899C80.901 32.2052 80.9204 32.2201 80.9402 32.2345C80.9503 32.2417 80.9604 32.249 80.9707 32.256C80.9942 32.2721 81.0182 32.2873 81.0427 32.3019C81.0488 32.3056 81.0546 32.3095 81.0608 32.313C81.0911 32.3303 81.1222 32.3463 81.1538 32.3614C81.1637 32.3661 81.1737 32.3703 81.1836 32.3747C81.2074 32.3853 81.2315 32.3953 81.256 32.4046C81.2668 32.4087 81.2775 32.4128 81.2885 32.4166C81.3192 32.4273 81.3503 32.4372 81.3819 32.4457C81.3856 32.4467 81.3891 32.448 81.3927 32.4489C81.4278 32.4581 81.4636 32.4656 81.4998 32.472C81.5103 32.4739 81.521 32.4753 81.5317 32.477C81.559 32.4812 81.5866 32.4846 81.6144 32.4872C81.6255 32.4882 81.6365 32.4894 81.6476 32.4901C81.6853 32.4927 81.7233 32.4941 81.7618 32.4936L81.9897 32.4902C82.3666 32.4847 82.7058 32.328 82.9482 32.0789C83.1474 31.876 83.2818 31.6114 83.3222 31.317C83.3253 31.2917 83.3276 31.266 83.3293 31.2403C83.331 31.2173 83.3318 31.1941 83.3324 31.171C83.3324 31.1707 83.3324 31.1703 83.3324 31.17L83.5222 31.1672C83.5776 31.1664 83.6287 31.1428 83.6645 31.1064C83.7011 31.0688 83.7233 31.0192 83.7224 30.9633C83.7216 30.9112 83.7009 30.8641 83.667 30.8295C83.6301 30.7884 83.5754 30.7636 83.5161 30.7645C83.5715 30.7637 83.6226 30.7402 83.6584 30.7037C83.695 30.6661 83.7172 30.6156 83.7164 30.5606C83.7157 30.5151 83.6988 30.4718 83.6716 30.4381C83.6337 30.3913 83.575 30.3608 83.5101 30.3618C83.5654 30.361 83.6166 30.3374 83.6523 30.3C83.689 30.2635 83.7112 30.2119 83.7103 30.157C83.7096 30.1077 83.6908 30.0625 83.6588 30.0269C83.6209 29.9848 83.5652 29.9581 83.5041 29.959C83.5594 29.9582 83.6106 29.9347 83.6463 29.8972C83.6831 29.8607 83.7051 29.8101 83.7043 29.7542C83.7037 29.7087 83.6878 29.6672 83.6615 29.6344C83.6236 29.5857 83.5639 29.5553 83.4981 29.5563L83.3063 29.5591C83.3667 28.8945 83.6973 28.2751 84.24 27.8723C85.2761 27.1044 85.9397 25.8709 85.919 24.4883C85.9062 23.6279 85.6299 22.8319 85.1669 22.1763Z" fill="white"/>
<path d="M106.837 50.7V2.30322C106.837 2.11539 106.99 1.96313 107.179 1.96313H173.557C173.746 1.96313 173.9 2.11539 173.9 2.30322V50.6999L106.837 50.7Z" fill="#BBDBF3"/>
<path d="M173.277 2.5813H107.459V50.0818H173.277V2.5813Z" fill="white"/>
<path d="M173.561 2.23096H107.177V7.05778H173.561V2.23096Z" fill="#BBDBF3"/>
<path d="M169.118 6.10726L171.711 3.53192" stroke="white" stroke-width="5.1185" stroke-miterlimit="10" stroke-linecap="round" stroke-linejoin="round"/>
<path d="M171.711 6.10726L169.118 3.53192" stroke="white" stroke-width="5.1185" stroke-miterlimit="10" stroke-linecap="round" stroke-linejoin="round"/>
<path d="M123.061 7.05786H107.459V50.0817H123.061V7.05786Z" fill="#E5F0F8"/>
<path d="M121.505 9.4707H109.016V10.4703H121.505V9.4707Z" fill="white"/>
<path d="M121.505 12.1124H109.016V13.112H121.505V12.1124Z" fill="white"/>
<path d="M121.505 14.7537H109.016V15.7533H121.505V14.7537Z" fill="white"/>
<path d="M121.505 17.3954H109.016V18.395H121.505V17.3954Z" fill="white"/>
<path d="M121.505 20.0369H109.016V21.0365H121.505V20.0369Z" fill="white"/>
<path d="M121.505 22.6783H109.016V23.6779H121.505V22.6783Z" fill="white"/>
<path d="M121.505 25.32H109.016V26.3196H121.505V25.32Z" fill="white"/>
<path d="M144.811 49.0362V33.7444L124.797 33.7444V49.0362H144.811Z" fill="#E5F0F8"/>
<path d="M139.252 41.1616L131.727 36.8454V45.4778L139.252 41.1616Z" fill="white"/>
<path d="M144.81 48.2037H124.797V49.0361H144.81V48.2037Z" fill="white"/>
<path d="M134.621 48.2037H124.797V49.0361H134.621V48.2037Z" fill="#E5F0F8"/>
<path d="M135.336 49.0361H134.095C133.864 49.0361 133.676 48.8488 133.676 48.6199C133.676 48.391 133.864 48.2037 134.095 48.2037H135.336C135.567 48.2037 135.755 48.391 135.755 48.6199C135.755 48.8488 135.567 49.0361 135.336 49.0361Z" fill="white"/>
<path d="M121.505 27.9616H109.016V28.9612H121.505V27.9616Z" fill="white"/>
<path d="M121.505 30.6031H109.016V31.6027H121.505V30.6031Z" fill="white"/>
<path d="M121.505 33.2445H109.016V34.2441H121.505V33.2445Z" fill="white"/>
<path d="M121.505 35.8861H109.016V36.8857H121.505V35.8861Z" fill="white"/>
<path d="M121.505 38.5278H109.016V39.5274H121.505V38.5278Z" fill="white"/>
<path d="M171.666 12.6122H124.797V32.6585H171.666V12.6122Z" fill="#E5F0F8"/>
<path d="M139.306 14.2911H126.149V30.9795H139.306V14.2911Z" fill="white"/>
<path d="M132.726 24.8557C134.239 24.8557 135.464 23.2956 135.464 21.3711C135.464 19.4465 134.239 17.8864 132.726 17.8864C131.214 17.8864 129.988 19.4465 129.988 21.3711C129.988 23.2956 131.214 24.8557 132.726 24.8557Z" fill="#E5F0F8"/>
<path d="M138.61 30.9794H126.845C126.928 27.0684 129.531 23.9299 132.727 23.9299C135.927 23.9298 138.527 27.0684 138.61 30.9794Z" fill="#E5F0F8"/>
<path d="M151.45 14.2913H141.073V15.155H151.45V14.2913Z" fill="white"/>
<path d="M170.513 14.2913H168.278V15.155H170.513V14.2913Z" fill="white"/>
<path d="M167.606 14.2913H165.371V15.155H167.606V14.2913Z" fill="white"/>
<path d="M164.697 14.2913H162.463V15.155H164.697V14.2913Z" fill="white"/>
<path d="M157.598 17.8807H141.073V18.7445H157.598V17.8807Z" fill="white"/>
<path d="M154.224 16.086H141.073V16.9497H154.224V16.086Z" fill="white"/>
<path d="M143.455 20.2686H141.073V21.0143H143.455V20.2686Z" fill="white"/>
<path d="M153.196 20.2685H143.789V21.0142H153.196V20.2685Z" fill="white"/>
<path d="M161.716 20.2685H153.568V21.0142H161.716V20.2685Z" fill="white"/>
<path d="M170.512 20.2685H162.051V21.0142H170.512V20.2685Z" fill="white"/>
<path d="M146.013 21.6922H141.073V22.4379H146.013V21.6922Z" fill="white"/>
<path d="M155.223 21.6922H146.396V22.4379H155.223V21.6922Z" fill="white"/>
<path d="M170.512 21.6922H155.605V22.4379H170.512V21.6922Z" fill="white"/>
<path d="M148.65 23.1157H141.073V23.8614H148.65V23.1157Z" fill="white"/>
<path d="M159.69 23.1156H148.965V23.8613H159.69V23.1156Z" fill="white"/>
<path d="M170.512 23.1157H160.103V23.8614H170.512V23.1157Z" fill="white"/>
<path d="M150.355 24.5394H141.073V25.285H150.355V24.5394Z" fill="white"/>
<path d="M160.092 24.5394H150.81V25.285H160.092V24.5394Z" fill="white"/>
<path d="M170.496 24.5394H160.51V25.285H170.496V24.5394Z" fill="white"/>
<path d="M149.253 25.963H141.073V26.7087H149.253V25.963Z" fill="white"/>
<path d="M161.355 25.963H149.594V26.7087H161.355V25.963Z" fill="white"/>
<path d="M170.495 25.963H161.716V26.7087H170.495V25.963Z" fill="white"/>
<path d="M145.318 27.3867H141.073V28.1323H145.318V27.3867Z" fill="white"/>
<path d="M151.419 27.3867H145.715V28.1323H151.419V27.3867Z" fill="white"/>
<path d="M160.923 27.3867H151.854V28.1323H160.923V27.3867Z" fill="white"/>
<path d="M170.423 27.3867H161.354V28.1323H170.423V27.3867Z" fill="white"/>
<path d="M150.611 28.8102H141.073V29.5559H150.611V28.8102Z" fill="white"/>
<path d="M158.621 28.8102H151.024V29.5559H158.621V28.8102Z" fill="white"/>
<path d="M165.39 28.8102H159.093V29.5559H165.39V28.8102Z" fill="white"/>
<path d="M170.425 28.8102H165.784V29.5559H170.425V28.8102Z" fill="white"/>
<path d="M147.961 30.2338H141.073V30.9794H147.961V30.2338Z" fill="white"/>
<path d="M161.688 8.20111H129.809V10.7404H161.688V8.20111Z" stroke="#BBDBF3" stroke-width="2.4087" stroke-miterlimit="10"/>
<path d="M161.687 8.20111H156.591V10.7404H161.687V8.20111Z" fill="#BBDBF3" stroke="#BBDBF3" stroke-width="1.684" stroke-miterlimit="10"/>
<path d="M171.664 8.20111H166.567V10.7404H171.664V8.20111Z" fill="#BBDBF3" stroke="#BBDBF3" stroke-width="1.684" stroke-miterlimit="10"/>
<path d="M158.259 9.98696C158.626 10.1907 159.078 10.0903 159.332 9.77323L160.694 10.5293L160.826 10.2949L159.464 9.53885C159.604 9.15827 159.452 8.7233 159.084 8.51925C158.677 8.29293 158.16 8.43671 157.933 8.84166C157.705 9.24662 157.851 9.76065 158.259 9.98696ZM158.995 8.67876C159.312 8.85497 159.427 9.25727 159.249 9.57266C159.071 9.88983 158.667 10.0019 158.35 9.82568C158.03 9.64842 157.916 9.24903 158.095 8.93178C158.272 8.61639 158.675 8.50158 158.995 8.67876Z" fill="white"/>
<path d="M171.665 45.0156H146.411V49.036H171.665V45.0156Z" fill="#E5F0F8"/>
<path d="M150.436 47.0258L147.844 45.5392V48.5124L150.436 47.0258Z" fill="white"/>
<path d="M151.591 47.0259H170.014" stroke="white" stroke-width="2.0269" stroke-miterlimit="10"/>
<path d="M151.931 46.3496H151.591V47.702H151.931V46.3496Z" fill="white"/>
<path d="M171.665 39.38H146.411V43.4005H171.665V39.38Z" fill="#E5F0F8"/>
<path d="M150.436 41.3903L147.844 39.9037V42.8769L150.436 41.3903Z" fill="white"/>
<path d="M151.591 41.3902H170.014" stroke="white" stroke-width="2.0269" stroke-miterlimit="10"/>
<path d="M151.931 40.7141H151.591V42.0665H151.931V40.7141Z" fill="white"/>
<path d="M171.665 33.7444H146.411V37.7649H171.665V33.7444Z" fill="#E5F0F8"/>
<path d="M150.436 35.7546L147.844 34.268V37.2413L150.436 35.7546Z" fill="white"/>
<path d="M151.591 35.7547H170.014" stroke="white" stroke-width="2.0269" stroke-miterlimit="10"/>
<path d="M151.931 35.0784H151.591V36.4308H151.931V35.0784Z" fill="white"/>
<path d="M122.457 110.025C121.853 109.161 121.216 108.919 120.692 108.902C120.581 108.899 120.469 108.88 120.361 108.853C119.938 108.747 119.563 108.504 119.274 108.178L112.456 100.48C111.557 99.3533 112.274 98.4959 111.536 97.4935C110.988 96.7497 109.759 96.6079 109.237 96.5771C109.158 96.5724 109.119 96.6712 109.181 96.7206C109.438 96.9248 109.899 97.1685 110.225 97.3949C110.698 97.723 110.763 98.8492 109.787 99.471C108.996 99.9758 108.177 99.0902 107.824 98.7416C107.769 98.6868 107.675 98.7255 107.674 98.8033C107.67 99.0256 107.735 99.4135 108.064 99.8853C108.668 100.75 109.422 100.943 109.945 100.96C110.167 100.967 110.394 101.055 110.586 101.157C110.844 101.294 111.071 101.482 111.264 101.7L118.298 109.641C118.446 109.809 118.555 110.009 118.611 110.225C118.802 110.971 118.449 111.598 118.993 112.336C119.541 113.08 120.879 113.255 121.4 113.285C121.48 113.29 121.519 113.191 121.457 113.142C121.2 112.938 120.584 112.544 120.258 112.318C119.785 111.99 119.627 110.983 120.602 110.361C121.394 109.856 122.345 110.868 122.697 111.216C122.753 111.271 122.847 111.232 122.848 111.154C122.851 110.932 122.787 110.497 122.457 110.025Z" fill="white"/>
<path d="M30.4961 44.9841C30.1823 44.7657 29.8377 44.6058 29.4785 44.5046C29.4145 44.8891 29.0683 45.1725 28.6674 45.1521C28.2665 45.1318 27.952 44.8159 27.9277 44.4269C27.561 44.4905 27.2018 44.6146 26.8673 44.8001C27.0952 45.1174 27.0532 45.5603 26.7549 45.8279C26.4565 46.0956 26.0086 46.0919 25.7142 45.8344C25.4944 46.1461 25.3335 46.4885 25.2325 46.8444C25.6196 46.908 25.9039 47.251 25.8834 47.6491C25.8629 48.0474 25.544 48.3607 25.1523 48.3848C25.2172 48.75 25.3422 49.107 25.529 49.4393C25.8473 49.2118 26.2943 49.2526 26.5646 49.55C26.834 49.8464 26.8302 50.2932 26.5701 50.5847C26.8838 50.8031 27.2285 50.9629 27.5868 51.0633C27.6508 50.6787 27.997 50.3954 28.3979 50.4157C28.7988 50.436 29.1133 50.7519 29.1376 51.1409C29.5043 51.0774 29.8635 50.9533 30.198 50.7678C29.9701 50.4505 30.0121 50.0076 30.3104 49.74C30.6088 49.4723 31.0567 49.476 31.3511 49.7335C31.5709 49.4218 31.7318 49.0794 31.8328 48.7235C31.4457 48.6599 31.1614 48.3169 31.1819 47.9188C31.2024 47.5205 31.5213 47.2072 31.9129 47.1831C31.8489 46.8188 31.724 46.4619 31.5373 46.1296C31.217 46.357 30.7711 46.3153 30.5017 46.0188C30.2313 45.7214 30.235 45.2765 30.4961 44.9841ZM29.7658 46.6787C30.38 47.3546 30.3274 48.3979 29.6461 49.009C28.9647 49.6201 27.9147 49.5659 27.3004 48.89C26.6853 48.2132 26.7379 47.1699 27.4192 46.5588C28.1006 45.9477 29.1506 46.0019 29.7658 46.6787Z" fill="white"/>
<path d="M27.0561 55.2995C26.606 56.2021 25.5044 56.5726 24.5944 56.1248C23.6845 55.6771 23.3135 54.5819 23.7636 53.6793C24.2143 52.7753 25.3161 52.4049 26.2259 52.8526C27.1358 53.3004 27.5067 54.3955 27.0561 55.2995ZM29.1079 55.3566C29.2064 54.9471 29.2317 54.5299 29.1906 54.1216C28.7664 54.2126 28.3322 53.974 28.1902 53.5561C28.0482 53.1382 28.2474 52.6884 28.6404 52.5054C28.4255 52.1565 28.1508 51.8398 27.8227 51.5734C27.5869 51.9353 27.1111 52.0726 26.7127 51.8765C26.3142 51.6805 26.1359 51.2213 26.2828 50.8157C25.8706 50.7178 25.4506 50.6927 25.041 50.7342C25.1327 51.1556 24.8931 51.5857 24.4724 51.7267C24.0517 51.8677 23.5976 51.6693 23.4134 51.2788C23.0614 51.4937 22.7427 51.7665 22.4746 52.0925C22.8396 52.3254 22.979 52.7987 22.781 53.1959C22.5836 53.5917 22.1194 53.7696 21.7118 53.6223C21.6132 54.0318 21.5879 54.449 21.6297 54.8559C22.0539 54.7648 22.4881 55.0035 22.6301 55.4214C22.7721 55.8393 22.5729 56.2891 22.1799 56.4721C22.3949 56.821 22.6695 57.1377 22.9976 57.404C23.2334 57.0421 23.7092 56.9048 24.1076 57.1009C24.5061 57.2969 24.6844 57.7561 24.5375 58.1617C24.9497 58.2596 25.3697 58.2847 25.7792 58.2432C25.6876 57.8218 25.9272 57.3917 26.3478 57.2507C26.7686 57.1097 27.2227 57.3082 27.4069 57.6986C27.7581 57.4851 28.0769 57.2123 28.345 56.8863C27.9794 56.6514 27.8412 56.1787 28.0386 55.7829C28.2367 55.3858 28.6989 55.2086 29.1079 55.3566Z" fill="white"/>
<path d="M57.4919 66.3404H145.895C147.193 66.3404 148.275 65.1409 148.346 63.5993C148.615 57.7896 150.132 49.8655 141.801 46.1969C133.419 42.5057 124.951 46.6678 124.951 46.6678C124.951 46.6678 123.664 26.9608 104.142 26.9953C86.1687 27.0271 78.1163 45.1667 78.1163 45.1667C78.1163 45.1667 62.4272 39.2772 55.1959 62.3737C54.5954 64.2916 55.7711 66.3404 57.4919 66.3404Z" fill="#BBDBF3"/>
<path d="M72.9305 73.5605H68.7792C67.6623 73.5605 66.7568 72.6611 66.7568 71.5514V64.1496H74.9528V71.5514C74.9529 72.6611 74.0475 73.5605 72.9305 73.5605Z" fill="#BBDBF3"/>
<path d="M130.5 73.5605H134.651C135.768 73.5605 136.673 72.6611 136.673 71.5514V64.1496H128.478V71.5514C128.477 72.6611 129.383 73.5605 130.5 73.5605Z" fill="#BBDBF3"/>
<path d="M103.792 73.5607H99.6406C98.5237 73.5607 97.6182 72.6612 97.6182 71.5516V64.1497H105.814V71.5516C105.814 72.6612 104.909 73.5607 103.792 73.5607Z" fill="#BBDBF3"/>
<path d="M91.2711 41.7601H93.4101L100.86 59.0536H98.1067L96.3608 54.779H88.075L86.3534 59.0536H83.5996L91.2711 41.7601ZM95.4999 52.7273L92.2546 44.7888H92.2054L88.9109 52.7273H95.4999Z" fill="white"/>
<path d="M103.122 41.76H109.245C110.359 41.76 111.277 41.9107 111.998 42.2118C112.719 42.5133 113.289 42.8958 113.707 43.3599C114.125 43.824 114.416 44.3452 114.58 44.9233C114.744 45.5013 114.826 46.0591 114.826 46.5963C114.826 47.1337 114.744 47.6917 114.58 48.2695C114.416 48.8478 114.125 49.3688 113.707 49.8328C113.289 50.2969 112.719 50.6797 111.998 50.9807C111.277 51.2822 110.359 51.4327 109.245 51.4327H105.482V59.0535H103.122V41.76H103.122ZM105.482 49.3807H108.58C109.039 49.3807 109.494 49.3442 109.945 49.2709C110.396 49.1976 110.797 49.0633 111.15 48.8678C111.502 48.6726 111.785 48.3916 111.998 48.0253C112.211 47.6589 112.318 47.1825 112.318 46.5963C112.318 46.0103 112.211 45.5338 111.998 45.1674C111.785 44.8011 111.502 44.5202 111.15 44.3246C110.797 44.1294 110.396 43.9951 109.945 43.9218C109.494 43.8484 109.039 43.8116 108.58 43.8116H105.482V49.3807Z" fill="white"/>
<path d="M117.703 41.76H120.063V59.0535H117.703V41.76Z" fill="white"/>
<path d="M132.575 68.855V120.419" stroke="#BBDBF3" stroke-width="19.7272" stroke-miterlimit="10" stroke-linecap="round"/>
<path d="M101.716 68.855V120.419" stroke="#BBDBF3" stroke-width="19.7272" stroke-miterlimit="10" stroke-linecap="round"/>
<path d="M70.8555 68.855V120.419" stroke="#BBDBF3" stroke-width="19.7272" stroke-miterlimit="10" stroke-linecap="round"/>
<path d="M161.285 126.963H25.7609C24.8925 126.963 24.1885 126.264 24.1885 125.401V125.035C24.1885 124.172 24.8925 123.473 25.7609 123.473H161.285C162.153 123.473 162.857 124.172 162.857 125.035V125.401C162.857 126.264 162.153 126.963 161.285 126.963Z" fill="#0775EF"/>
<path d="M143.542 73.4643V72.4401L149.494 69.2401V70.8044L145.518 72.9522L149.494 75.1V76.6644L143.542 73.4643Z" fill="white"/>
<path d="M151.306 77.9443L150.33 77.5177L154 66.4805L154.976 66.9357L151.306 77.9443Z" fill="white"/>
<path d="M161.904 72.44V73.4642L155.952 76.6643V75.0999L159.928 72.9521L155.952 70.8043V69.2401L161.904 72.44Z" fill="white"/>
<path d="M63.3554 10.2388C64.5315 11.893 66.7223 12.3949 68.4982 11.5347L72.8639 17.6751L73.935 16.9235L69.5699 10.7839C70.9846 9.41035 71.2376 7.19187 70.0596 5.53487C68.7529 3.69706 66.1912 3.25193 64.3412 4.54997C62.4913 5.848 62.0488 8.401 63.3554 10.2388ZM69.3311 6.04609C70.3487 7.47733 70.0025 9.47546 68.5618 10.4863C67.1129 11.5029 65.1098 11.1531 64.0922 9.72187C63.069 8.28263 63.4128 6.29838 64.8616 5.28177C66.3023 4.27096 68.3079 4.60677 69.3311 6.04609Z" fill="white"/>
<path d="M130.428 110.255H67.4172C65.665 110.255 64.2441 109.714 64.2441 109.048V96.694C64.2441 96.0277 65.6647 95.4875 67.4172 95.4875H130.428C132.18 95.4875 133.601 96.0277 133.601 96.694V109.048C133.6 109.714 132.18 110.255 130.428 110.255Z" fill="#088CFC"/>
<path d="M67.1325 100.145H68.4222L70.1495 104.361H70.2177L71.945 100.145H73.2347V105.963H72.2234V101.966H72.1694L70.5614 105.946H69.8058L68.1978 101.957H68.1438V105.963H67.1325V100.145ZM75.4364 100.145V105.963H74.3825V100.145H75.4364ZM81.5579 102.108H80.4954C80.4651 101.934 80.4092 101.779 80.3278 101.645C80.2463 101.509 80.145 101.393 80.0238 101.298C79.9026 101.204 79.7643 101.133 79.609 101.085C79.4556 101.036 79.2899 101.011 79.1119 101.011C78.7956 101.011 78.5153 101.091 78.271 101.25C78.0266 101.407 77.8353 101.638 77.6971 101.943C77.5588 102.246 77.4897 102.617 77.4897 103.054C77.4897 103.499 77.5588 103.874 77.6971 104.179C77.8372 104.482 78.0285 104.711 78.271 104.867C78.5153 105.02 78.7946 105.097 79.109 105.097C79.2833 105.097 79.4461 105.074 79.5977 105.028C79.7511 104.981 79.8884 104.912 80.0096 104.821C80.1327 104.73 80.2359 104.618 80.3192 104.486C80.4045 104.353 80.4632 104.202 80.4954 104.031L81.5579 104.037C81.5181 104.314 81.4319 104.573 81.2994 104.815C81.1687 105.058 80.9973 105.272 80.7852 105.457C80.573 105.641 80.3249 105.785 80.0408 105.889C79.7567 105.992 79.4414 106.043 79.0948 106.043C78.5835 106.043 78.127 105.924 77.7255 105.688C77.324 105.451 77.0077 105.109 76.7766 104.662C76.5456 104.215 76.43 103.679 76.43 103.054C76.43 102.427 76.5465 101.891 76.7795 101.446C77.0124 100.999 77.3297 100.657 77.7312 100.421C78.1327 100.184 78.5872 100.065 79.0948 100.065C79.4187 100.065 79.7198 100.111 79.9982 100.202C80.2766 100.293 80.5247 100.426 80.7425 100.602C80.9603 100.777 81.1393 100.991 81.2795 101.244C81.4215 101.496 81.5143 101.784 81.5579 102.108ZM82.5231 105.963V100.145H84.7049C85.1519 100.145 85.5269 100.223 85.8299 100.378C86.1348 100.533 86.3649 100.751 86.5202 101.031C86.6774 101.31 86.756 101.635 86.756 102.006C86.756 102.379 86.6765 102.703 86.5174 102.977C86.3602 103.25 86.1282 103.461 85.8214 103.611C85.5146 103.759 85.1377 103.832 84.6907 103.832H83.1367V102.957H84.5487C84.81 102.957 85.024 102.921 85.1907 102.849C85.3574 102.776 85.4805 102.669 85.56 102.528C85.6415 102.386 85.6822 102.212 85.6822 102.006C85.6822 101.799 85.6415 101.623 85.56 101.477C85.4786 101.33 85.3545 101.218 85.1879 101.142C85.0212 101.064 84.8062 101.026 84.543 101.026H83.5771V105.963H82.5231ZM85.5288 103.327L86.9691 105.963H85.793L84.3782 103.327H85.5288ZM92.9251 103.054C92.9251 103.681 92.8076 104.218 92.5728 104.665C92.3398 105.11 92.0217 105.451 91.6183 105.688C91.2167 105.924 90.7612 106.043 90.2518 106.043C89.7423 106.043 89.2859 105.924 88.8825 105.688C88.4809 105.449 88.1628 105.107 87.9279 104.662C87.695 104.215 87.5785 103.679 87.5785 103.054C87.5785 102.427 87.695 101.891 87.9279 101.446C88.1628 100.999 88.4809 100.657 88.8825 100.421C89.2859 100.184 89.7423 100.065 90.2518 100.065C90.7612 100.065 91.2167 100.184 91.6183 100.421C92.0217 100.657 92.3398 100.999 92.5728 101.446C92.8076 101.891 92.9251 102.427 92.9251 103.054ZM91.8654 103.054C91.8654 102.613 91.7963 102.241 91.658 101.938C91.5217 101.633 91.3323 101.403 91.0898 101.247C90.8474 101.09 90.5681 101.011 90.2518 101.011C89.9355 101.011 89.6561 101.09 89.4137 101.247C89.1713 101.403 88.9809 101.633 88.8427 101.938C88.7063 102.241 88.6381 102.613 88.6381 103.054C88.6381 103.495 88.7063 103.868 88.8427 104.173C88.9809 104.476 89.1713 104.707 89.4137 104.864C89.6561 105.019 89.9355 105.097 90.2518 105.097C90.5681 105.097 90.8474 105.019 91.0898 104.864C91.3323 104.707 91.5217 104.476 91.658 104.173C91.7963 103.868 91.8654 103.495 91.8654 103.054ZM97.0835 101.744C97.0569 101.496 96.9452 101.303 96.7482 101.165C96.5531 101.027 96.2994 100.957 95.9869 100.957C95.7672 100.957 95.5787 100.991 95.4215 101.057C95.2643 101.123 95.1441 101.213 95.0607 101.327C94.9774 101.44 94.9348 101.57 94.9329 101.716C94.9329 101.837 94.9603 101.942 95.0153 102.031C95.0721 102.12 95.1488 102.196 95.2454 102.259C95.342 102.319 95.449 102.37 95.5664 102.412C95.6838 102.454 95.8022 102.489 95.9215 102.517L96.467 102.653C96.6867 102.705 96.8978 102.774 97.1005 102.861C97.305 102.948 97.4878 103.058 97.6488 103.19C97.8117 103.323 97.9405 103.483 98.0352 103.671C98.1299 103.858 98.1772 104.078 98.1772 104.33C98.1772 104.671 98.0901 104.971 97.9158 105.23C97.7416 105.488 97.4897 105.689 97.1602 105.835C96.8325 105.979 96.4357 106.051 95.9698 106.051C95.5172 106.051 95.1242 105.981 94.7908 105.841C94.4594 105.701 94.1999 105.496 94.0124 105.227C93.8268 104.958 93.7264 104.631 93.7113 104.244H94.7482C94.7634 104.447 94.8259 104.616 94.9357 104.75C95.0456 104.885 95.1886 104.985 95.3647 105.051C95.5427 105.117 95.7416 105.151 95.9613 105.151C96.1905 105.151 96.3912 105.117 96.5636 105.048C96.7378 104.978 96.8742 104.882 96.9727 104.759C97.0711 104.634 97.1213 104.488 97.1232 104.321C97.1213 104.17 97.0768 104.045 96.9897 103.946C96.9026 103.846 96.7804 103.762 96.6232 103.696C96.4679 103.628 96.2861 103.567 96.0778 103.514L95.4158 103.344C94.9367 103.221 94.5579 103.034 94.2795 102.784C94.003 102.532 93.8647 102.198 93.8647 101.781C93.8647 101.439 93.9575 101.138 94.1431 100.881C94.3306 100.623 94.5853 100.423 94.9073 100.281C95.2293 100.137 95.5939 100.065 96.0011 100.065C96.4139 100.065 96.7757 100.137 97.0863 100.281C97.3988 100.423 97.6441 100.621 97.8221 100.875C98.0001 101.127 98.092 101.417 98.0977 101.744H97.0835ZM99.1168 105.963V100.145H102.901V101.028H100.171V102.608H102.705V103.492H100.171V105.08H102.924V105.963H99.1168ZM103.976 105.963V100.145H106.158C106.605 100.145 106.98 100.223 107.283 100.378C107.588 100.533 107.818 100.751 107.973 101.031C108.131 101.31 108.209 101.635 108.209 102.006C108.209 102.379 108.13 102.703 107.971 102.977C107.813 103.25 107.581 103.461 107.275 103.611C106.968 103.759 106.591 103.832 106.144 103.832H104.59V102.957H106.002C106.263 102.957 106.477 102.921 106.644 102.849C106.81 102.776 106.934 102.669 107.013 102.528C107.095 102.386 107.135 102.212 107.135 102.006C107.135 101.799 107.095 101.623 107.013 101.477C106.932 101.33 106.808 101.218 106.641 101.142C106.474 101.064 106.259 101.026 105.996 101.026H105.03V105.963H103.976ZM106.982 103.327L108.422 105.963H107.246L105.831 103.327H106.982ZM109.809 100.145L111.324 104.724H111.383L112.895 100.145H114.054L112.002 105.963H110.701L108.653 100.145H109.809ZM115.874 100.145V105.963H114.82V100.145H115.874ZM121.995 102.108H120.933C120.903 101.934 120.847 101.779 120.765 101.645C120.684 101.509 120.583 101.393 120.461 101.298C120.34 101.204 120.202 101.133 120.047 101.085C119.893 101.036 119.727 101.011 119.549 101.011C119.233 101.011 118.953 101.091 118.708 101.25C118.464 101.407 118.273 101.638 118.135 101.943C117.996 102.246 117.927 102.617 117.927 103.054C117.927 103.499 117.996 103.874 118.135 104.179C118.275 104.482 118.466 104.711 118.708 104.867C118.953 105.02 119.232 105.097 119.547 105.097C119.721 105.097 119.884 105.074 120.035 105.028C120.189 104.981 120.326 104.912 120.447 104.821C120.57 104.73 120.673 104.618 120.757 104.486C120.842 104.353 120.901 104.202 120.933 104.031L121.995 104.037C121.956 104.314 121.869 104.573 121.737 104.815C121.606 105.058 121.435 105.272 121.223 105.457C121.011 105.641 120.762 105.785 120.478 105.889C120.194 105.992 119.879 106.043 119.532 106.043C119.021 106.043 118.565 105.924 118.163 105.688C117.761 105.451 117.445 105.109 117.214 104.662C116.983 104.215 116.868 103.679 116.868 103.054C116.868 102.427 116.984 101.891 117.217 101.446C117.45 100.999 117.767 100.657 118.169 100.421C118.57 100.184 119.025 100.065 119.532 100.065C119.856 100.065 120.157 100.111 120.436 100.202C120.714 100.293 120.962 100.426 121.18 100.602C121.398 100.777 121.577 100.991 121.717 101.244C121.859 101.496 121.952 101.784 121.995 102.108ZM122.961 105.963V100.145H126.745V101.028H124.015V102.608H126.549V103.492H124.015V105.08H126.767V105.963H122.961ZM130.982 101.744C130.955 101.496 130.844 101.303 130.647 101.165C130.452 101.027 130.198 100.957 129.885 100.957C129.666 100.957 129.477 100.991 129.32 101.057C129.163 101.123 129.042 101.213 128.959 101.327C128.876 101.44 128.833 101.57 128.831 101.716C128.831 101.837 128.859 101.942 128.914 102.031C128.971 102.12 129.047 102.196 129.144 102.259C129.24 102.319 129.347 102.37 129.465 102.412C129.582 102.454 129.701 102.489 129.82 102.517L130.365 102.653C130.585 102.705 130.796 102.774 130.999 102.861C131.203 102.948 131.386 103.058 131.547 103.19C131.71 103.323 131.839 103.483 131.934 103.671C132.028 103.858 132.076 104.078 132.076 104.33C132.076 104.671 131.989 104.971 131.814 105.23C131.64 105.488 131.388 105.689 131.059 105.835C130.731 105.979 130.334 106.051 129.868 106.051C129.416 106.051 129.023 105.981 128.689 105.841C128.358 105.701 128.098 105.496 127.911 105.227C127.725 104.958 127.625 104.631 127.61 104.244H128.647C128.662 104.447 128.724 104.616 128.834 104.75C128.944 104.885 129.087 104.985 129.263 105.051C129.441 105.117 129.64 105.151 129.86 105.151C130.089 105.151 130.29 105.117 130.462 105.048C130.636 104.978 130.773 104.882 130.871 104.759C130.97 104.634 131.02 104.488 131.022 104.321C131.02 104.17 130.975 104.045 130.888 103.946C130.801 103.846 130.679 103.762 130.522 103.696C130.366 103.628 130.185 103.567 129.976 103.514L129.314 103.344C128.835 103.221 128.456 103.034 128.178 102.784C127.901 102.532 127.763 102.198 127.763 101.781C127.763 101.439 127.856 101.138 128.042 100.881C128.229 100.623 128.484 100.423 128.806 100.281C129.128 100.137 129.492 100.065 129.9 100.065C130.312 100.065 130.674 100.137 130.985 100.281C131.297 100.423 131.542 100.621 131.721 100.875C131.899 101.127 131.99 101.417 131.996 101.744H130.982Z" fill="white"/>
<path d="M93.9278 73.7399L94.4566 74.0434V75.9343C94.4566 76.064 94.5626 76.1692 94.6931 76.1692C94.8235 76.1692 94.9295 76.064 94.9295 75.9343V74.0434L95.4583 73.7399C95.5315 73.698 95.5765 73.6204 95.5765 73.5365V72.794C95.5765 72.7101 95.5315 72.6324 95.4583 72.5906L94.8113 72.2192C94.7381 72.1773 94.648 72.1773 94.5748 72.2192L93.9278 72.5906C93.8546 72.6324 93.8096 72.7101 93.8096 72.794V73.5365C93.8096 73.6204 93.8546 73.698 93.9278 73.7399ZM94.2825 72.9296L94.6931 72.6941L95.1036 72.9296V73.4008L94.6931 73.6363L94.2825 73.4008V72.9296Z" fill="#02577A"/>
<path d="M95.4583 92.0896L94.9295 91.7861V89.8952C94.9295 89.7655 94.8235 89.6603 94.6931 89.6603C94.5626 89.6603 94.4566 89.7655 94.4566 89.8952V91.7861L93.9278 92.0896C93.8546 92.1315 93.8096 92.2091 93.8096 92.293V93.0356C93.8096 93.1195 93.8546 93.1971 93.9278 93.239L94.5748 93.6103C94.6114 93.6312 94.6524 93.6417 94.6931 93.6417C94.7337 93.6417 94.7747 93.6313 94.8113 93.6103L95.4583 93.239C95.5315 93.1971 95.5765 93.1195 95.5765 93.0356V92.293C95.5765 92.2091 95.5315 92.1315 95.4583 92.0896ZM95.1036 92.8999L94.6931 93.1354L94.2825 92.8999V92.4287L94.6931 92.1931L95.1036 92.4287V92.8999Z" fill="#02577A"/>
<path d="M99.6603 78.2139C99.7209 78.2139 99.7815 78.1909 99.8273 78.145L101.173 76.8079L101.764 76.9648C101.783 76.9704 101.804 76.9729 101.824 76.9729C101.886 76.9729 101.947 76.9487 101.992 76.9041L102.52 76.3791C102.58 76.3198 102.603 76.2331 102.581 76.152L102.388 75.435C102.366 75.354 102.302 75.2907 102.221 75.269L101.499 75.0768C101.417 75.0544 101.33 75.0783 101.27 75.1376L100.742 75.6626C100.682 75.7219 100.659 75.8084 100.681 75.8895L100.839 76.4761L99.4933 77.8127C99.4009 77.9045 99.4005 78.0532 99.4929 78.145C99.5391 78.1909 99.5997 78.2139 99.6603 78.2139ZM101.508 75.5659L101.966 75.6877L102.089 76.1428L101.754 76.476L101.296 76.3541L101.173 75.899L101.508 75.5659Z" fill="#02577A"/>
<path d="M89.5584 87.6843L88.2126 89.0214L87.623 88.8645C87.5406 88.8417 87.4541 88.8658 87.3943 88.9252L86.8659 89.4502C86.8064 89.5095 86.7831 89.5962 86.8049 89.6773L86.9985 90.3945C87.0203 90.4755 87.0843 90.5388 87.1655 90.5605L87.8872 90.7525C87.9075 90.758 87.9282 90.7606 87.9485 90.7606C88.0102 90.7606 88.0708 90.7363 88.1159 90.6917L88.6443 90.1667C88.7038 90.1074 88.7271 90.021 88.7053 89.9398L88.5473 89.3537L89.8932 88.0166C89.9852 87.9248 89.9852 87.7761 89.8932 87.6843C89.8008 87.5925 89.6508 87.5925 89.5584 87.6843ZM87.8779 90.2635L87.4198 90.1418L87.2971 89.6865L87.6322 89.3535L88.0904 89.4754L88.2131 89.9303L87.8779 90.2635Z" fill="#02577A"/>
<path d="M101.992 88.9252C101.932 88.8658 101.845 88.8417 101.763 88.8645L101.173 89.0214L99.8276 87.6843C99.7352 87.5925 99.5852 87.5925 99.4928 87.6843C99.4008 87.7761 99.4008 87.9248 99.4928 88.0166L100.839 89.3537L100.681 89.9398C100.659 90.021 100.682 90.1074 100.742 90.1667L101.27 90.6917C101.315 90.7363 101.376 90.7606 101.438 90.7606C101.458 90.7606 101.479 90.758 101.499 90.7525L102.221 90.5605C102.302 90.5388 102.366 90.4755 102.388 90.3945L102.581 89.6773C102.603 89.5962 102.58 89.5095 102.52 89.4502L101.992 88.9252ZM101.966 90.1418L101.508 90.2635L101.173 89.9303L101.296 89.4754L101.754 89.3535L102.089 89.6865L101.966 90.1418Z" fill="#02577A"/>
<path d="M87.3942 76.904C87.4393 76.9486 87.4996 76.9728 87.5616 76.9728C87.582 76.9728 87.6027 76.9702 87.6226 76.9647L88.2127 76.8078L89.5588 78.1449C89.6046 78.1908 89.6652 78.2137 89.7258 78.2137C89.7864 78.2137 89.847 78.1908 89.8932 78.1449C89.9856 78.0531 89.9852 77.9044 89.8928 77.8126L88.5472 76.4759L88.7053 75.8894C88.727 75.8082 88.7038 75.7218 88.6443 75.6625L88.1159 75.1375C88.0557 75.0782 87.9696 75.0543 87.8872 75.0767L87.1655 75.2689C87.0842 75.2906 87.0203 75.3539 86.9985 75.4349L86.8049 76.1519C86.7831 76.233 86.8064 76.3197 86.8659 76.379L87.3942 76.904ZM87.4198 75.6876L87.8779 75.5657L88.2131 75.8989L88.0904 76.354L87.6322 76.4759L87.2971 76.1427L87.4198 75.6876Z" fill="#02577A"/>
<path d="M105.458 82.7974L105.084 82.1543C105.042 82.0817 104.964 82.0369 104.88 82.0369H104.132C104.048 82.0369 103.97 82.0817 103.927 82.1543L103.622 82.6799H101.719C101.588 82.6799 101.482 82.7851 101.482 82.9149C101.482 83.0447 101.588 83.1498 101.719 83.1498H103.622L103.927 83.6752C103.97 83.7479 104.048 83.7927 104.132 83.7927H104.88C104.964 83.7927 105.042 83.7479 105.084 83.6752L105.458 83.0324C105.5 82.9597 105.5 82.8701 105.458 82.7974ZM104.743 83.3228H104.268L104.032 82.9149L104.269 82.5068H104.743L104.98 82.9149L104.743 83.3228Z" fill="#02577A"/>
<path d="M87.9048 82.9149C87.9048 82.7851 87.7988 82.6799 87.6683 82.6799H85.7651L85.4598 82.1543C85.4177 82.0817 85.3397 82.0369 85.2551 82.0369H84.5076C84.423 82.0369 84.345 82.0817 84.3029 82.1543L83.9293 82.7974C83.8868 82.8701 83.8868 82.9597 83.9293 83.0324L84.3029 83.6752C84.345 83.7479 84.423 83.7927 84.5076 83.7927H85.2551C85.3397 83.7927 85.4177 83.7479 85.4598 83.6752L85.7651 83.1498H87.6683C87.7988 83.1499 87.9048 83.0447 87.9048 82.9149ZM85.1188 83.3228H84.6439L84.4071 82.9149L84.6443 82.5068H85.1184L85.3556 82.9149L85.1188 83.3228Z" fill="#02577A"/>
<path d="M94.6934 80.2463C93.2124 80.2463 92.0078 81.4433 92.0078 82.9148C92.0078 84.3861 93.2124 85.5832 94.6934 85.5832C96.1743 85.5832 97.3789 84.3861 97.3789 82.9148C97.3789 81.4433 96.1743 80.2463 94.6934 80.2463Z" fill="#02A9F7"/>
<path d="M99.371 83.9216C99.3928 83.8212 99.4778 83.7465 99.5805 83.7369L100.309 83.6703C100.325 83.669 100.337 83.656 100.337 83.6402V82.1896C100.337 82.1736 100.325 82.1606 100.31 82.1593H100.309L99.5805 82.0927C99.4778 82.0831 99.3928 82.0084 99.371 81.908C99.2509 81.3527 99.0304 80.8255 98.7155 80.3411C98.6597 80.2548 98.6664 80.1424 98.7325 80.0635L99.2018 79.5029C99.2122 79.4906 99.2111 79.4731 99.2 79.4619L98.1676 78.4361C98.1565 78.4246 98.1384 78.424 98.1258 78.4345L97.562 78.9004C97.4825 78.9661 97.3694 78.9729 97.2826 78.9173C96.7952 78.6047 96.2646 78.3857 95.7056 78.266C95.6047 78.2445 95.5293 78.1603 95.5201 78.058L95.4528 77.334C95.4514 77.318 95.4384 77.3063 95.4225 77.3063H93.9626C93.9467 77.3063 93.9334 77.318 93.9319 77.3336L93.8647 78.058C93.8554 78.1602 93.7801 78.2445 93.6792 78.266C93.1201 78.3857 92.5895 78.6047 92.1021 78.9173C92.0153 78.9727 91.9023 78.9661 91.8228 78.9004L91.2586 78.4341C91.2453 78.424 91.2283 78.4249 91.2168 78.4363L90.1852 79.4618C90.1737 79.4731 90.1726 79.4906 90.183 79.5027L90.6522 80.0635C90.7184 80.1424 90.725 80.2548 90.6692 80.3411C90.3544 80.8255 90.1338 81.3527 90.0137 81.908C89.9919 82.0084 89.907 82.0831 89.8042 82.0927L89.0756 82.1593C89.0597 82.1606 89.0479 82.1736 89.0479 82.1896V83.6402C89.0479 83.656 89.0597 83.669 89.0752 83.6703L89.8042 83.7369C89.907 83.7465 89.9919 83.821 90.0137 83.9214C90.1346 84.4778 90.3552 85.005 90.6692 85.4885C90.725 85.5748 90.7184 85.6872 90.6522 85.7661L90.183 86.3267C90.173 86.339 90.1737 86.3565 90.1848 86.3675L91.2172 87.3935C91.2283 87.4048 91.246 87.4054 91.2586 87.3955L91.8228 86.9292C91.8664 86.8932 91.92 86.8749 91.9739 86.8749C92.0183 86.8749 92.063 86.8873 92.1022 86.9125C92.5892 87.2247 93.1198 87.4439 93.6792 87.5638C93.7801 87.5854 93.8555 87.6697 93.8647 87.7718L93.9319 88.4956C93.9334 88.5116 93.9467 88.5233 93.9626 88.5233H95.4225C95.4384 88.5233 95.4514 88.5116 95.4528 88.4958L95.5201 87.7718C95.5293 87.6697 95.6047 87.5855 95.7056 87.5638C96.265 87.4439 96.7956 87.2247 97.2826 86.9125C97.3694 86.8567 97.4825 86.8637 97.562 86.9292L98.1262 87.3955C98.1391 87.4057 98.1569 87.4045 98.1676 87.3936L99.1996 86.3678C99.211 86.3565 99.2118 86.339 99.2018 86.3267L98.7325 85.7661C98.6664 85.6872 98.6597 85.5748 98.7155 85.4885C99.0304 85.0041 99.2509 84.4769 99.371 83.9216ZM94.6924 86.0532C92.9509 86.0532 91.5339 84.6454 91.5339 82.9149C91.5339 81.1844 92.9509 79.7764 94.6924 79.7764C96.4339 79.7764 97.8509 81.1844 97.8509 82.9149C97.8509 84.6454 96.4339 86.0532 94.6924 86.0532Z" fill="#02A9F7"/>
<path d="M135.005 80.478C136.05 81.037 137.366 80.6446 137.929 79.6058L142.159 71.7975C142.722 70.7587 142.327 69.4513 141.281 68.8922C140.236 68.3332 138.92 68.7256 138.357 69.7644L134.127 77.5727C133.564 78.6116 133.959 79.9189 135.005 80.478Z" fill="#283770"/>
<path d="M138.025 79.0436C138.138 77.8636 137.374 76.8165 136.325 76.7167L127.174 77.0533C126.866 76.9978 126.516 76.9213 126.234 76.823C125.579 76.5943 123.724 76.1815 123.667 76.4472C123.609 76.7129 124.821 77.2516 124.705 77.3433C124.589 77.4351 123.606 77.2463 123.194 77.1328C122.781 77.0193 121.937 76.6344 121.74 76.7876C121.542 76.9407 121.687 77.2775 121.687 77.2775C121.687 77.2775 121.383 77.0914 121.303 77.3024C121.222 77.5135 121.626 77.9176 121.626 77.9176C121.626 77.9176 121.467 77.7969 121.437 78.0516C121.406 78.3061 122.214 78.7028 122.214 78.7028C122.214 78.7028 122.034 78.6864 122.038 78.8826C122.041 79.0788 123.16 79.4833 124.029 79.5111C124.804 79.5358 126.652 79.3916 127.04 79.3603L135.911 81.0074C136.96 81.1073 137.911 80.2236 138.025 79.0436Z" fill="#FDAE97"/>
<path d="M145.795 62.2839C145.795 62.2839 146.905 63.1131 146.636 64.7878C146.368 66.4626 146.218 67.3689 147.285 67.471C148.352 67.5732 150.5 66.9717 150.653 68.3939C150.805 69.8161 149.783 70.7474 151.284 71.0309C152.785 71.3145 152.962 73.2421 152.962 73.2421C152.962 73.2421 147.54 76.5252 142.477 73.3646C137.414 70.2041 142.889 68.1543 142.889 68.1543L145.795 62.2839Z" fill="#322A28"/>
<path d="M144.619 83.0762C146.032 84.9149 146.565 88.7268 145.663 92.8333C144.762 96.9397 144.458 99.6392 144.458 99.6392C144.223 101.54 142.481 102.892 140.568 102.658C138.654 102.425 137.293 100.695 137.528 98.7941L138.966 83.0762H144.619Z" fill="#0775EF"/>
<path d="M144.93 68.0026L148.709 69.7027C148.709 69.7027 147.869 79.3656 147.782 80.4227C147.695 81.4797 148.021 83.076 148.021 83.076H138.966C138.966 83.076 139.074 77.8988 138.466 76.4534C138.054 75.4744 137.771 74.8787 138.01 73.757C138.249 72.6353 139.997 70.6522 139.715 68.7107L141.686 68.0836L144.93 68.0026Z" fill="#E5F0F8"/>
<path d="M142.4 81.2367C143.429 81.8266 144.756 81.4732 145.35 80.4516L149.813 72.7722C150.406 71.7506 150.051 70.4321 149.022 69.8423C147.994 69.2524 146.667 69.6057 146.073 70.6274L141.61 78.3067C141.016 79.3284 141.372 80.6469 142.4 81.2367Z" fill="#283770"/>
<path d="M141.047 62.3137C141.047 62.3137 140.483 61.0782 141.703 60.6497L141.047 62.3137Z" fill="#332B27"/>
<path d="M144.947 68.002L144.944 68.0045C144.904 68.0751 144.218 69.2225 142.921 69.1266C141.774 69.0409 141.688 68.0827 141.688 68.0827V63.7176H144.48L144.947 68.002Z" fill="#FDAE97"/>
<path d="M141.687 67.5856L143.635 65.4811L141.686 66.2086L141.687 67.5856Z" fill="#E89780"/>
<path d="M143.575 65.7618C142.686 66.3304 141.612 66.3717 140.948 65.9644C140.282 65.5594 140.349 64.5638 140.518 63.9267C140.518 63.9242 140.518 63.9242 140.519 63.9218C140.554 63.79 140.604 63.6048 140.659 63.3948C140.874 62.5719 141.193 61.3533 141.193 61.3533C141.327 60.7107 143.106 59.2071 144.917 61.0061C146.728 62.8076 144.464 65.1931 143.575 65.7618Z" fill="#FDAE97"/>
<path d="M141.239 61.0938C141.239 61.0938 141.293 61.8555 142.389 62.323C143.485 62.7905 144.536 63.5298 144.452 64.6611C144.368 65.7925 144.782 66.4127 144.782 66.4127C144.782 66.4127 144.887 65.0028 145.552 63.7863C145.81 63.3144 146.014 62.3322 145.521 61.5116C144.745 60.2166 142.835 59.2844 141.239 61.0938Z" fill="#322A28"/>
<path d="M144.26 64.4262C144.042 64.7749 143.986 65.0189 144.261 65.1889C144.537 65.3587 144.991 65.2982 145.208 64.9496C145.426 64.6011 145.38 64.1807 145.104 64.0109C144.829 63.8409 144.478 64.0776 144.26 64.4262Z" fill="#FDAE97"/>
<path d="M144.875 64.6553C144.645 64.5554 144.453 64.6606 144.453 64.6606C144.593 64.2679 145.068 64.4059 145.068 64.4059" stroke="#E89780" stroke-width="0.6316" stroke-miterlimit="10" stroke-linecap="round" stroke-linejoin="round"/>
<path d="M142.62 63.4519C142.583 63.6061 142.472 63.7122 142.371 63.6886C142.271 63.665 142.219 63.5209 142.256 63.3666C142.293 63.2123 142.404 63.1063 142.504 63.1299C142.605 63.1534 142.656 63.2976 142.62 63.4519Z" fill="#332B27"/>
<path d="M141.321 63.0211C141.284 63.1754 141.173 63.2814 141.073 63.2579C140.972 63.2343 140.92 63.0902 140.957 62.9359C140.994 62.7816 141.105 62.6756 141.205 62.6991C141.306 62.7227 141.358 62.8669 141.321 63.0211Z" fill="#332B27"/>
<path d="M136.364 113.805H143.474L144.516 99.6146L144.543 99.2046C144.543 97.2576 142.928 95.6882 140.954 95.7471C139.175 95.798 137.684 97.2362 137.579 99.0038L136.364 113.805Z" fill="#0775EF"/>
<path d="M143.047 63.2248C143.047 63.2248 142.826 62.7672 142.43 62.8211" stroke="#332B27" stroke-width="0.9376" stroke-miterlimit="10"/>
<path d="M141.413 62.5103C141.413 62.5103 141.196 62.4154 140.897 62.6022" stroke="#332B27" stroke-width="0.9376" stroke-miterlimit="10"/>
<path d="M145.308 113.805H152.956L151.452 99.0262L151.447 98.9619C151.321 97.1649 149.791 95.7455 147.925 95.7455C145.974 95.7455 144.395 97.2934 144.395 99.2055C144.395 99.3127 144.4 99.4171 144.411 99.5189L145.308 113.805Z" fill="#088CFC"/>
<path d="M148.021 83.0762C149.814 84.5519 151.039 87.7006 151.091 91.9033C151.142 96.1059 151.457 98.8042 151.457 98.8042C151.658 100.709 150.267 102.415 148.35 102.615C146.433 102.816 144.715 101.434 144.514 99.5292L141.805 83.0762H148.021Z" fill="#088CFC"/>
<path d="M145.207 68.1264C145.207 68.1264 142.99 71.0618 142.564 74.161C142.139 77.2601 143.515 80.7056 143.885 84.0139C144.256 87.3223 146.109 100.954 146.109 100.954H152.273C152.273 100.954 152.581 91.8586 151.477 88.1468C150.374 84.4351 148.71 69.7027 148.71 69.7027L145.207 68.1264Z" fill="#283770"/>
<path d="M143.3 64.1245C143.311 64.2893 143.056 64.4405 142.731 64.4622C142.405 64.4839 142.133 64.3679 142.121 64.2031C142.11 64.0382 142.365 63.887 142.69 63.8653C143.016 63.8436 143.288 63.9597 143.3 64.1245Z" fill="#E89780"/>
<path d="M140.858 63.8303C140.809 63.9201 140.678 63.9501 140.518 63.922C140.553 63.7902 140.603 63.605 140.658 63.395C140.835 63.5433 140.923 63.7181 140.858 63.8303Z" fill="#E89780"/>
<path d="M144.981 59.7422C144.444 60.1319 144.485 61.0943 145.071 61.8917C145.658 62.6891 146.569 63.0195 147.106 62.6298C147.642 62.2401 147.602 61.2778 147.015 60.4804C146.428 59.683 145.518 59.3525 144.981 59.7422Z" fill="#322A28"/>
<path d="M144.135 65.1936C144.103 65.3357 144.193 65.4769 144.336 65.5089C144.479 65.5409 144.621 65.4517 144.653 65.3096C144.686 65.1675 144.596 65.0263 144.453 64.9943C144.31 64.9623 144.168 65.0515 144.135 65.1936Z" stroke="white" stroke-width="0.8298" stroke-miterlimit="10"/>
<path d="M145.443 121.452H151.86L151.83 120.836L151.733 118.889L151.768 113.805H147.12L148.304 118.889L145.443 121.452Z" fill="#FDAE97"/>
<path d="M134.547 121.452H141.32L141.33 120.836L141.457 118.889L141.993 113.805H137.288L137.407 118.889L135.234 120.836L134.547 121.452Z" fill="#FDAE97"/>
<path d="M151.861 121.453H145.444C145.459 121.204 145.505 120.963 145.583 120.736C145.951 119.659 146.975 118.889 148.174 118.889H151.732L151.829 120.736L151.832 120.836L151.861 121.453Z" fill="#322A28"/>
<path d="M141.459 118.889L141.35 120.736L141.332 120.836L141.319 121.453H134.546L134.574 121.282C134.607 121.091 134.653 120.91 134.721 120.736C134.892 120.276 135.181 119.878 135.549 119.57C136.052 119.145 136.705 118.889 137.408 118.889H141.459Z" fill="#322A28"/>
<path d="M148.081 119.645H146.922" stroke="white" stroke-width="0.8298" stroke-miterlimit="10"/>
<path d="M147.713 120.092H146.555" stroke="white" stroke-width="0.8298" stroke-miterlimit="10"/>
<path d="M136.968 119.645H135.81" stroke="white" stroke-width="0.8298" stroke-miterlimit="10"/>
<path d="M136.6 120.092H135.441" stroke="white" stroke-width="0.8298" stroke-miterlimit="10"/>
<path d="M149.997 119.943C149.997 120.212 150.217 120.431 150.488 120.431C150.759 120.431 150.979 120.212 150.979 119.943C150.979 119.674 150.759 119.456 150.488 119.456C150.217 119.456 149.997 119.674 149.997 119.943Z" fill="white"/>
<path d="M139.116 119.943C139.116 120.212 139.336 120.431 139.607 120.431C139.878 120.431 140.098 120.212 140.098 119.943C140.098 119.674 139.878 119.456 139.607 119.456C139.336 119.456 139.116 119.674 139.116 119.943Z" fill="white"/>
<path d="M141.241 68.2255C141.241 68.2255 140.268 70.5918 140.108 73.9379C139.949 77.284 138.505 100.954 138.505 100.954H135.559C135.559 100.954 138.823 80.1282 138.4 78.001C137.976 75.8739 137.126 74.631 137.503 73.3165C137.88 72.002 139.715 68.7108 139.715 68.7108L141.241 68.2255Z" fill="#283770"/>
<path d="M138.578 76.7891C138.578 76.7891 137.914 75.3454 137.935 74.2601C137.956 73.1747 138.703 72.2284 138.703 72.2284" stroke="white" stroke-width="1.2631" stroke-miterlimit="10"/>
<path d="M141.35 120.736L141.319 121.453H134.546L134.574 121.282C134.607 121.091 134.653 120.91 134.721 120.736H141.35Z" fill="white"/>
<path d="M151.861 121.453H145.444C145.459 121.204 145.505 120.963 145.583 120.736H151.829L151.832 120.836L151.861 121.453Z" fill="white"/>
<path d="M147.466 115.289L151.767 114.121L151.769 113.805H147.12L147.466 115.289Z" fill="#E89780"/>
<path d="M137.322 115.289L141.992 114.21V113.805H137.287L137.322 115.289Z" fill="#E89780"/>
<path d="M127.084 76.794L126.91 80.7748C126.91 80.7748 134.899 83.0929 137.095 80.8418C139.291 78.5907 137.191 76.2781 135.608 76.331C134.025 76.3838 127.084 76.794 127.084 76.794Z" fill="#283770"/>
<path d="M109.802 76.4014C109.802 75.5485 110.498 74.8572 111.356 74.8572H123.118V77.9455H111.356C110.498 77.9455 109.802 77.2541 109.802 76.4014Z" fill="#93ACBF"/>
<path d="M109.802 86.2152C109.802 87.068 110.498 87.7593 111.356 87.7593H123.118V84.6711H111.356C110.498 84.6711 109.802 85.3625 109.802 86.2152Z" fill="#93ACBF"/>
<path d="M119.525 90.1615V72.4553H126.641C131.563 72.4553 135.553 76.4189 135.553 81.3084C135.553 86.1978 131.563 90.1615 126.641 90.1615H119.525Z" fill="#586773"/>
<path d="M120.659 91.3537V71.2628H117.758V91.3537H120.659Z" fill="#93ACBF"/>
<path d="M127.538 76.7909C126.756 76.7909 126.121 76.1597 126.121 75.3836C126.121 75.1316 126.188 74.8974 126.303 74.6939C126.449 74.4343 126.677 74.2256 126.954 74.1034C127.131 74.0219 127.33 73.9762 127.538 73.9762C128.319 73.9762 128.955 74.6074 128.955 75.3836C128.955 75.633 128.888 75.8671 128.773 76.0707C128.627 76.3302 128.401 76.5389 128.125 76.6611C127.945 76.7451 127.748 76.7909 127.538 76.7909Z" fill="#F9ECB8"/>
<path d="M128.124 76.661L126.303 74.6938C126.449 74.4342 126.677 74.2255 126.953 74.1033L128.772 76.0706C128.626 76.3302 128.401 76.5388 128.124 76.661Z" fill="#F9E181"/>
<path d="M127.538 85.8258C126.756 85.8258 126.121 86.457 126.121 87.2332C126.121 87.4851 126.188 87.7193 126.303 87.9229C126.449 88.1824 126.677 88.3911 126.954 88.5133C127.131 88.5948 127.33 88.6405 127.538 88.6405C128.319 88.6405 128.955 88.0093 128.955 87.2332C128.955 86.9838 128.888 86.7496 128.773 86.5461C128.627 86.2865 128.401 86.0778 128.125 85.9556C127.945 85.8716 127.748 85.8258 127.538 85.8258Z" fill="#F9ECB8"/>
<path d="M128.124 85.9556L126.303 87.9228C126.449 88.1824 126.677 88.3911 126.953 88.5132L128.772 86.546C128.626 86.2864 128.401 86.0777 128.124 85.9556Z" fill="#F9E181"/>
<path d="M123.739 84.8084V77.8082C123.739 77.6573 123.864 77.5338 124.016 77.5338C124.168 77.5338 124.292 77.6573 124.292 77.8082V84.8084C124.292 84.9593 124.168 85.0828 124.016 85.0828C123.864 85.0828 123.739 84.9593 123.739 84.8084Z" fill="#93ACBF"/>
<path d="M125.086 84.8084V77.8082C125.086 77.6573 125.21 77.5338 125.362 77.5338C125.514 77.5338 125.639 77.6573 125.639 77.8082V84.8084C125.639 84.9593 125.514 85.0828 125.362 85.0828C125.21 85.0828 125.086 84.9593 125.086 84.8084Z" fill="#93ACBF"/>
<path d="M126.434 84.8084V77.8082C126.434 77.6573 126.558 77.5338 126.71 77.5338C126.862 77.5338 126.986 77.6573 126.986 77.8082V84.8084C126.986 84.9593 126.862 85.0828 126.71 85.0828C126.558 85.0828 126.434 84.9593 126.434 84.8084Z" fill="#93ACBF"/>
<path d="M127.78 84.8084V77.8082C127.78 77.6573 127.905 77.5338 128.057 77.5338C128.209 77.5338 128.333 77.6573 128.333 77.8082V84.8084C128.333 84.9593 128.209 85.0828 128.057 85.0828C127.905 85.0828 127.78 84.9593 127.78 84.8084Z" fill="#93ACBF"/>
<path d="M129.128 84.8084V77.8082C129.128 77.6573 129.252 77.5338 129.404 77.5338C129.556 77.5338 129.681 77.6573 129.681 77.8082V84.8084C129.681 84.9593 129.556 85.0828 129.404 85.0828C129.252 85.0828 129.128 84.9593 129.128 84.8084Z" fill="#93ACBF"/>
<path d="M130.475 84.8084V77.8082C130.475 77.6573 130.599 77.5338 130.751 77.5338C130.903 77.5338 131.027 77.6573 131.027 77.8082V84.8084C131.027 84.9593 130.903 85.0828 130.751 85.0828C130.599 85.0828 130.475 84.9593 130.475 84.8084Z" fill="#93ACBF"/>
<path d="M128.398 82.3557C128.416 82.1308 128.76 82.2259 128.76 82.2259C128.76 82.2259 128.528 81.9421 128.674 81.7407C128.821 81.5393 129.74 81.6768 130.168 81.6724C130.596 81.6681 131.593 81.5793 131.679 81.459C131.765 81.3388 130.45 81.1548 130.431 80.8835C130.413 80.6123 132.309 80.4989 133.003 80.5384C133.301 80.5555 133.659 80.5327 133.97 80.5013L142.67 77.6608C143.705 77.4683 144.732 78.2642 144.951 79.4294C145.171 80.5945 144.504 81.7053 143.468 81.8978L134.485 82.7551C134.12 82.8919 132.384 83.5389 131.633 83.7283C130.791 83.9404 129.603 83.8596 129.545 83.6719C129.487 83.4844 129.664 83.4506 129.664 83.4506C129.664 83.4506 128.777 83.2916 128.735 83.0387C128.694 82.7857 128.88 82.858 128.88 82.858C128.88 82.858 128.38 82.5805 128.398 82.3557Z" fill="#FDAE97"/>
<path d="M133.958 79.9292L134.633 83.4161C134.633 83.4161 142.278 82.8297 143.909 81.8443C145.541 80.8589 145.18 79.9028 144.952 79.1393C144.725 78.3758 143.879 77.2914 142.731 77.517C141.583 77.7425 133.958 79.9292 133.958 79.9292Z" fill="#283770"/>
<path d="M142.564 76.661L144.524 73.0783" stroke="white" stroke-width="1.2631" stroke-miterlimit="10"/>
<path d="M143.545 82.0208C143.545 82.0208 145.648 81.169 146.382 79.6024C147.117 78.0358 147.895 76.1473 147.895 76.1473" stroke="white" stroke-width="1.2631" stroke-miterlimit="10"/>
<path d="M71.6819 86.7902C71.6146 86.9705 70.4412 86.9609 69.6299 86.6885C68.9421 86.4585 67.4138 85.7585 66.9648 85.549L67.8133 82.8098C68.1004 82.859 68.6967 82.9029 68.9671 82.9662C69.6867 83.1345 71.0638 83.7196 71.0249 83.9865C70.9883 84.2512 69.7304 84.0004 69.8064 84.125C69.8824 84.2497 70.8056 84.7436 71.2242 84.7791C71.645 84.817 72.5565 84.7504 72.6849 84.9583C72.8155 85.1687 72.563 85.4282 72.563 85.4282C72.563 85.4282 72.9089 85.3628 72.9104 85.5848C72.912 85.8067 72.3996 86.0422 72.3996 86.0422C72.3996 86.0422 72.5859 85.9843 72.5267 86.2288C72.465 86.4755 71.5832 86.5651 71.5832 86.5651C71.5832 86.5651 71.754 86.6102 71.6819 86.7902Z" fill="#FDAE97"/>
<path d="M67.9795 82.2685L59.3091 78.8074C58.2668 78.4269 57.0578 79.073 56.6203 80.2463C56.1855 81.4196 56.6828 82.693 57.7251 83.0762L66.7586 86.2105L67.9795 82.2685Z" fill="#F74242"/>
<path d="M56.1875 72.1529L52.8944 72.0974L53.0967 68.0691L53.0967 68.0691L53.1953 66.1029L55.6727 65.0682L55.7337 65.911L55.7337 65.9116L55.8159 67.0304L55.8159 67.0308L56.1875 72.1529Z" fill="#FEAFAD" stroke="#FEAFAD"/>
<path d="M48.2051 86.7293L46.3731 101.795C46.3155 102.176 46.3174 102.572 46.3956 102.972C46.7637 104.853 48.5972 106.081 50.4908 105.716C52.3844 105.35 53.1091 103.897 53.4492 101.737C54.1021 97.591 56.3824 85.1503 56.3824 85.1503L48.2051 86.7293Z" fill="#283770"/>
<path d="M60.0843 85.9711L53.3545 86.4196L53.388 93.8264L54.1868 94.9999L54.9272 102.14L61.7394 101.599L60.0843 85.9711Z" fill="#283770"/>
<path d="M54.6026 70.7618C56.2011 70.7967 56.9791 69.9256 57.1467 69.5414L56.4517 69.355L52.5365 69.2314L52.0615 69.3825C52.262 69.7531 52.9695 70.726 54.6026 70.7618Z" fill="#FEAFAD"/>
<path d="M60.0295 83.8517L60.0303 83.8517L60.057 83.8513C60.9897 83.836 61.7366 83.0644 61.7214 82.1458L61.5598 72.3863L61.5598 72.3863C61.5446 71.4676 60.7724 70.7207 59.8396 70.7359L59.8386 70.736L59.8121 70.7363C58.8794 70.7516 58.1325 71.5232 58.1477 72.4418L58.1477 72.4418M60.0295 83.8517L57.6478 72.45L58.1477 72.4418M60.0295 83.8517C59.0968 83.8669 58.3246 83.12 58.3093 82.2014L60.0295 83.8517ZM58.1477 72.4418L58.3093 82.2014L58.1477 72.4418Z" fill="#8BC0BD" stroke="#8BC0BD"/>
<path d="M59.7772 80.6242L59.7773 80.6242L59.8482 78.6123L59.8482 78.611L60.1031 70.7546L56.8744 69.9764C56.8139 70.0502 56.7348 70.1347 56.6374 70.2072L56.6259 70.2187L56.5825 70.2468C56.1708 70.5138 55.546 70.653 54.4934 70.6288L59.7772 80.6242ZM59.7772 80.6242L59.777 80.6365M59.7772 80.6242L59.777 80.6365M59.777 80.6365L59.7136 86.636M59.777 80.6365L59.7136 86.636M59.7136 86.636H48.658L48.7107 71.1155L52.225 69.8541C52.5899 70.3116 53.2118 70.6001 54.4931 70.6288L59.7136 86.636Z" fill="white" stroke="#8BC0BD"/>
<path d="M57.6155 70.1661L60.1071 70.757C60.1065 70.7833 60.1059 70.8107 60.1053 70.8393C60.0986 71.1513 60.0898 71.5999 60.0809 72.1467C60.0632 73.2403 60.0454 74.7277 60.0454 76.3022C60.0454 77.876 60.0631 79.5402 60.1165 80.9865C60.1694 82.42 60.2584 83.6771 60.4094 84.4146C60.6846 85.7584 60.817 87.421 60.8798 88.762C60.911 89.4295 60.9247 90.0115 60.9305 90.4265C60.9318 90.5172 60.9327 90.5998 60.9334 90.6736C60.0666 90.8218 59.191 90.8937 58.4968 90.9277C58.1556 90.9444 57.8606 90.9519 57.6348 90.955L57.6092 90.0043C57.5856 89.12 57.5537 87.9045 57.5202 86.5796C57.4531 83.9287 57.38 80.8433 57.3554 79.0955C57.331 77.3591 57.4036 74.9806 57.483 73.0289C57.5226 72.0546 57.5637 71.1895 57.5949 70.5679C57.6024 70.4194 57.6093 70.2849 57.6155 70.1661Z" fill="#8BC0BD" stroke="#8BC0BD"/>
<path d="M51.2026 84.0342L51.202 84.0344L51.1758 84.0397C51.1758 84.0397 51.1757 84.0397 51.1757 84.0397C50.2615 84.2249 49.3633 83.6313 49.1784 82.7303L49.1784 82.7303L47.2146 73.1663C47.2146 73.1663 47.2146 73.1663 47.2146 73.1663C47.0299 72.2664 47.621 71.3726 48.5343 71.1875L48.5349 71.1873L48.5611 71.182C48.5612 71.182 48.5613 71.182 48.5614 71.1819C49.4756 70.9969 50.3736 71.5905 50.5585 72.4914L50.5585 72.4914L52.5223 82.0554C52.5223 82.0554 52.5223 82.0554 52.5223 82.0554C52.7071 82.9554 52.1159 83.8491 51.2026 84.0342Z" fill="#8BC0BD" stroke="#8BC0BD"/>
<path d="M45.0986 117.087L51.4288 117.083L53.3369 102.449C53.5361 100.542 52.1445 98.8341 50.2273 98.6334C48.3076 98.4354 46.5913 99.8178 46.3892 101.722C46.371 101.888 46.3689 102.05 46.375 102.213L45.273 115.058L45.0986 117.087Z" fill="#283770"/>
<path d="M54.9031 101.877L56.5286 117.087H62.7476L61.7505 101.794C61.7586 101.633 61.7126 101.453 61.6991 101.286C61.5287 99.376 60.0007 97.9495 58.078 98.116C56.1579 98.2853 54.7354 99.967 54.9031 101.877Z" fill="#283770"/>
<path d="M56.976 63.3277C56.976 63.3277 57.5552 61.8912 56.8454 62.0227C56.1356 62.1543 56.976 63.3277 56.976 63.3277Z" fill="#322A28"/>
<path d="M53.8212 86.255L53.6612 86.2323C53.583 86.1557 53.6673 86.0654 53.8186 86.0565L53.8212 86.255ZM53.3211 86.2483L53.3218 86.3017L53.1493 91.0054C53.0593 91.0147 52.9569 91.0248 52.8438 91.0355C52.3938 91.0778 51.7782 91.1274 51.1144 91.157C50.4492 91.1866 49.7435 91.1957 49.1109 91.1586C48.6419 91.1311 48.2394 91.0794 47.931 91.0032C47.929 90.841 47.9269 90.6289 47.9253 90.3783C47.9215 89.774 47.9208 88.9462 47.9334 88.0515C47.9588 86.243 48.0383 84.2221 48.2413 83.1931C48.3561 82.6107 48.4392 81.5328 48.5021 80.2817C48.5657 79.0173 48.6102 77.5379 48.6412 76.1295C48.6722 74.7204 48.6899 73.3795 48.6998 72.391C48.7048 71.8967 48.7078 71.4904 48.7096 71.2075L48.7101 71.1157L51.6806 70.0505C51.7212 70.2685 51.7716 70.5428 51.8294 70.8631C51.9843 71.7222 52.1914 72.9114 52.4002 74.2316C52.8193 76.8825 53.2394 80.0264 53.2666 82.0955L53.315 85.7868L53.3211 86.2483Z" fill="#8BC0BD" stroke="#8BC0BD"/>
<path d="M55.8474 67.4713L55.8579 67.6156L55.6446 67.4611L55.8474 67.4713Z" fill="#EA9D85" stroke="#FEAFAD"/>
<path d="M56.6676 64.721L56.6676 64.7209L56.5122 63.0983L56.4538 62.4882L56.4372 62.3146C56.4305 62.3014 56.4199 62.2818 56.4038 62.2552C56.3643 62.1897 56.3052 62.1043 56.2272 62.0098C56.07 61.8193 55.8515 61.6105 55.5873 61.4536C55.3256 61.2981 55.0286 61.1986 54.7008 61.2052C54.376 61.2117 53.9813 61.3229 53.5213 61.6528L56.6676 64.721ZM56.6676 64.721L56.7489 65.5699L56.7489 65.5699M56.6676 64.721L56.7489 65.5699M56.7489 65.5699C56.7774 65.8678 56.7676 66.2208 56.683 66.5152C56.5986 66.8085 56.4638 66.9738 56.2894 67.0451L56.289 67.0453M56.7489 65.5699L56.289 67.0453M56.289 67.0453C55.7696 67.2584 54.8941 67.1241 54.2 66.5052M56.289 67.0453L54.2 66.5052M54.2 66.5052C54.0525 66.3732 53.8103 66.0745 53.5605 65.6537C53.3149 65.2402 53.0809 64.7407 52.933 64.2255C52.6308 63.1729 52.7206 62.2276 53.5211 61.6529L54.2 66.5052Z" fill="#FEAFAD" stroke="#FEAFAD"/>
<path d="M57.9424 71.2141C57.9424 71.2141 57.6108 76.5109 57.4935 78.8547C57.3763 81.1985 57.9424 89.4484 57.9424 89.4484" stroke="#8BC0BD" stroke-width="1.4363" stroke-miterlimit="10" stroke-linecap="round" stroke-linejoin="round"/>
<path d="M52.6356 67.0742C52.6356 67.0742 53.1879 66.1568 53.1506 65.657C53.1132 65.1573 53.6899 64.5949 53.5969 63.8274C53.5039 63.0598 53.4667 62.7364 53.8666 62.7734C54.2665 62.8104 57.0941 63.4386 57.1685 62.1081C57.2429 60.7775 53.9021 59.4931 52.5543 61.7477C52.5543 61.7477 51.6581 61.707 51.9319 63.5944C52.2058 65.4817 52.6044 65.8032 52.6356 67.0742Z" fill="#322A28"/>
<path d="M51.3574 70.2141C51.3574 70.2141 51.9852 75.4016 52.3683 77.964C52.7514 80.5265 52.8178 86.8426 52.9088 89.1827" stroke="#8BC0BD" stroke-width="1.4363" stroke-miterlimit="10" stroke-linecap="round" stroke-linejoin="round"/>
<path d="M53.4853 65.2922C53.7882 65.6773 53.8862 65.9593 53.5818 66.1955C53.2774 66.4317 52.7323 66.4177 52.4294 66.0325C52.1266 65.6473 52.1279 65.1436 52.4323 64.9074C52.7367 64.6711 53.1825 64.907 53.4853 65.2922Z" fill="#FDAE97"/>
<path d="M55.0889 64.2724C55.1038 64.428 55.198 64.5464 55.2993 64.5368C55.4006 64.5272 55.4707 64.3934 55.4558 64.2378C55.441 64.0823 55.3468 63.9639 55.2454 63.9734C55.1441 63.983 55.074 64.1169 55.0889 64.2724Z" fill="#322A28"/>
<path d="M56.9842 64.0934C56.999 64.249 56.929 64.3829 56.8277 64.3924C56.7264 64.402 56.6322 64.2837 56.6172 64.128C56.6024 63.9725 56.6724 63.8385 56.7737 63.829C56.8751 63.8195 56.9693 63.9379 56.9842 64.0934Z" fill="#322A28"/>
<path d="M52.7663 65.7053C53.0175 65.6333 53.2325 65.6613 53.2325 65.6613C52.9639 65.2597 52.6357 65.3404 52.6357 65.3404" stroke="#FEAFAD" stroke-width="1.3993" stroke-miterlimit="10" stroke-linecap="round" stroke-linejoin="round"/>
<path d="M54.8291 63.977C54.8291 63.977 55.1329 63.6166 55.5349 63.6857" stroke="#332B27" stroke-width="0.8951" stroke-miterlimit="10"/>
<path d="M57.1067 63.5941C57.1067 63.5941 56.8148 63.3669 56.4629 63.5715" stroke="#332B27" stroke-width="0.8951" stroke-miterlimit="10"/>
<path d="M57.4265 119.464L57.2598 117.087H61.9192L62.1012 119.464H57.4265Z" fill="#FEAFAD"/>
<path d="M62.0016 118.164L57.2598 117.087H61.9192L62.0016 118.164Z" fill="#FEAFAD"/>
<path d="M50.5096 119.464L50.6884 117.083L45.9159 117.087L45.835 119.464H50.5096Z" fill="#FEAFAD"/>
<path d="M50.5908 118.411L45.918 117.087L50.6905 117.083L50.5908 118.411Z" fill="#FEAFAD"/>
<path d="M64.3975 121.464H57.5171L57.5054 121.186L57.4209 119.344H62.1027C62.6823 119.344 63.2186 119.682 63.6286 120.034C63.9676 120.336 64.22 120.731 64.3383 121.186C64.3659 121.276 64.3856 121.37 64.3975 121.464Z" fill="black"/>
<path d="M64.3979 121.463H57.5176L57.5059 121.186H64.3388C64.3664 121.276 64.3861 121.37 64.3979 121.463Z" fill="#FFF1F0"/>
<path d="M43.5752 121.464H50.4555L50.4673 121.186L50.5517 119.344H45.8699C45.2903 119.344 44.7541 119.682 44.344 120.034C44.0049 120.336 43.7526 120.731 43.6342 121.186C43.6067 121.276 43.587 121.37 43.5752 121.464Z" fill="black"/>
<path d="M43.5752 121.463H50.4555L50.4673 121.186H43.6343C43.6067 121.276 43.587 121.37 43.5752 121.463Z" fill="#FFF1F0"/>
<path d="M55.4753 66.0325L56.3027 66.3215C56.3027 66.3215 56.1328 66.741 55.7149 66.6206C55.297 66.5003 55.4753 66.0325 55.4753 66.0325Z" fill="white"/>
<path d="M57.9424 80.7921C57.9424 80.9561 58.0762 81.089 58.2412 81.089C58.4062 81.089 58.54 80.9561 58.54 80.7921C58.54 80.6282 58.4062 80.4953 58.2412 80.4953C58.0762 80.4952 57.9424 80.6281 57.9424 80.7921Z" fill="white"/>
<path d="M73.2118 91.5061V73.7999H67.1932C62.5129 73.7999 58.7188 77.5691 58.7188 82.2186V83.0874C58.7188 87.7369 62.5129 91.5061 67.1932 91.5061H73.2118Z" fill="#586773"/>
<path d="M75.7945 91.0867V74.2197C75.7945 73.988 75.6054 73.8001 75.372 73.8001H72.7203C72.487 73.8001 72.2979 73.9879 72.2979 74.2197V91.0867C72.2979 91.3184 72.4869 91.5063 72.7203 91.5063H75.372C75.6054 91.5062 75.7945 91.3184 75.7945 91.0867Z" fill="#93ACBF"/>
<path d="M75.3614 74.2301V91.0762H72.7306V74.2301H75.3614ZM75.3717 74.0709H72.7202C72.6376 74.0709 72.5703 74.1375 72.5703 74.2195V91.0865C72.5703 91.1685 72.6376 91.2354 72.7202 91.2354H75.3717C75.4543 91.2354 75.5216 91.1686 75.5216 91.0865V74.2195C75.5215 74.1375 75.4543 74.0709 75.3717 74.0709Z" fill="#586773"/>
<path d="M65.199 78.1357C65.9803 78.1357 66.6157 77.5045 66.6157 76.7283C66.6157 76.4763 66.5491 76.2422 66.4338 76.0386C66.2877 75.779 66.0597 75.5703 65.783 75.4482C65.6062 75.3667 65.4064 75.3209 65.1989 75.3209C64.4176 75.3209 63.7822 75.9521 63.7822 76.7283C63.7822 76.9777 63.8488 77.2118 63.9641 77.4154C64.1101 77.6749 64.3356 77.8837 64.6122 78.0058C64.7917 78.0898 64.989 78.1357 65.199 78.1357Z" fill="#F9ECB8"/>
<path d="M64.611 78.0058L66.4325 76.0386C66.2865 75.7791 66.0585 75.5703 65.7818 75.4482L63.9629 77.4154C64.1089 77.675 64.3343 77.8837 64.611 78.0058Z" fill="#F9E181"/>
<path d="M65.199 87.1705C65.9803 87.1705 66.6157 87.8017 66.6157 88.5779C66.6157 88.8299 66.5491 89.064 66.4338 89.2676C66.2877 89.5271 66.0597 89.7359 65.783 89.858C65.6062 89.9395 65.4064 89.9853 65.1989 89.9853C64.4176 89.9853 63.7822 89.3541 63.7822 88.5779C63.7822 88.3285 63.8488 88.0944 63.9641 87.8908C64.1101 87.6312 64.3356 87.4225 64.6122 87.3004C64.7917 87.2164 64.989 87.1705 65.199 87.1705Z" fill="#F9ECB8"/>
<path d="M64.611 87.3003L66.4325 89.2675C66.2865 89.5271 66.0585 89.7358 65.7818 89.858L63.9629 87.8907C64.1089 87.6311 64.3343 87.4224 64.611 87.3003Z" fill="#F9E181"/>
<path d="M70.6005 86.153V79.1529C70.6005 79.0019 70.4761 78.8784 70.3242 78.8784C70.1722 78.8784 70.0479 79.0019 70.0479 79.1529V86.153C70.0479 86.304 70.1722 86.4275 70.3242 86.4275C70.4761 86.4275 70.6005 86.304 70.6005 86.153Z" fill="#93ACBF"/>
<path d="M69.2528 86.153V79.1529C69.2528 79.0019 69.1285 78.8784 68.9765 78.8784C68.8245 78.8784 68.7002 79.0019 68.7002 79.1529V86.153C68.7002 86.304 68.8245 86.4275 68.9765 86.4275C69.1285 86.4275 69.2528 86.304 69.2528 86.153Z" fill="#93ACBF"/>
<path d="M67.9051 86.153V79.1529C67.9051 79.0019 67.7808 78.8784 67.6288 78.8784C67.4769 78.8784 67.3525 79.0019 67.3525 79.1529V86.153C67.3525 86.304 67.4769 86.4275 67.6288 86.4275C67.7808 86.4275 67.9051 86.304 67.9051 86.153Z" fill="#93ACBF"/>
<path d="M66.5585 86.153V79.1529C66.5585 79.0019 66.4341 78.8784 66.2822 78.8784C66.1302 78.8784 66.0059 79.0019 66.0059 79.1529V86.153C66.0059 86.304 66.1302 86.4275 66.2822 86.4275C66.4341 86.4275 66.5585 86.304 66.5585 86.153Z" fill="#93ACBF"/>
<path d="M65.2118 86.153V79.1529C65.2118 79.0019 65.0874 78.8784 64.9355 78.8784C64.7835 78.8784 64.6592 79.0019 64.6592 79.1529V86.153C64.6592 86.304 64.7835 86.4275 64.9355 86.4275C65.0874 86.4275 65.2118 86.304 65.2118 86.153Z" fill="#93ACBF"/>
<path d="M63.8641 86.153V79.1529C63.8641 79.0019 63.7398 78.8784 63.5878 78.8784C63.4359 78.8784 63.3115 79.0019 63.3115 79.1529V86.153C63.3115 86.304 63.4359 86.4275 63.5878 86.4275C63.7398 86.4275 63.8641 86.304 63.8641 86.153Z" fill="#93ACBF"/>
<path d="M74.0462 79.7581C74.5954 79.7581 75.0406 78.9821 75.0406 78.0249C75.0406 77.0676 74.5954 76.2916 74.0462 76.2916C73.497 76.2916 73.0518 77.0676 73.0518 78.0249C73.0518 78.9821 73.497 79.7581 74.0462 79.7581Z" fill="#586773"/>
<path d="M74.0462 89.0145C74.5954 89.0145 75.0406 88.2385 75.0406 87.2812C75.0406 86.324 74.5954 85.548 74.0462 85.548C73.497 85.548 73.0518 86.324 73.0518 87.2812C73.0518 88.2385 73.497 89.0145 74.0462 89.0145Z" fill="#586773"/>
<path d="M57.9424 83.5192C57.9424 83.6832 58.0762 83.8162 58.2412 83.8162C58.4062 83.8162 58.54 83.6833 58.54 83.5192C58.54 83.3553 58.4062 83.2224 58.2412 83.2224C58.0762 83.2224 57.9424 83.3553 57.9424 83.5192Z" fill="white"/>
<path d="M65.1935 84.0515C65.178 84.2432 64.0461 84.5502 63.1908 84.5068C62.4659 84.4709 60.8038 84.2092 60.3145 84.1286L60.3827 81.2634C60.6725 81.2334 61.2584 81.1149 61.536 81.1028C62.2746 81.0708 63.7598 81.2626 63.7952 81.53C63.8324 81.7947 62.5532 81.8924 62.6604 81.9918C62.7676 82.0913 63.7912 82.3178 64.2037 82.2391C64.619 82.1621 65.4781 81.8523 65.6584 82.0177C65.8416 82.1851 65.6695 82.5029 65.6695 82.5029C65.6695 82.5029 65.9845 82.3466 66.0467 82.5599C66.1088 82.7731 65.6799 83.1379 65.6799 83.1379C65.6799 83.1379 65.8434 83.0319 65.8532 83.2832C65.8613 83.5373 65.037 83.8612 65.037 83.8612C65.037 83.8612 65.2138 83.8587 65.1935 84.0515Z" fill="#FDAE97"/>
<path d="M59.8099 84.2899L50.7821 83.7405C50.0046 83.6763 49.3283 82.879 49.4087 81.8531C49.4915 80.8271 50.2831 80.1462 51.0598 80.2017L59.8848 81.1454L59.8099 84.2899Z" fill="#8BC0BD" stroke="#8BC0BD"/>
<path d="M173.999 59.1804L173.987 46.772C173.986 46.1271 173.461 45.6047 172.815 45.6054L148.563 45.6285C147.899 45.6291 147.362 46.1663 147.362 46.8282L147.374 59.1749C147.375 59.8369 147.913 60.373 148.577 60.3724L172.829 60.3492C173.476 60.3486 173.999 59.8253 173.999 59.1804Z" fill="#2BC6FF"/>
<path d="M173.762 58.8584L173.75 46.8938C173.749 46.2704 173.239 45.7656 172.61 45.7661L148.974 45.7887C148.329 45.7893 147.806 46.3085 147.807 46.9484L147.818 58.8533C147.819 59.4932 148.342 60.0114 148.988 60.0108L172.624 59.9883C173.253 59.9877 173.762 59.4818 173.762 58.8584Z" fill="#BBDBF3"/>
<path d="M173.066 59.4237L173.052 46.6469L148.296 46.6683L148.31 59.445L173.066 59.4237Z" fill="url(#paint0_linear_2666_2933)"/>
<path d="M149.286 48.2371L149.286 57.8548C149.286 58.1894 149.573 58.4605 149.928 58.4605L165.488 58.4605C165.842 58.4605 166.13 58.1893 166.13 57.8548L166.13 48.2371C166.13 47.9026 165.842 47.6314 165.488 47.6314L149.928 47.6314C149.573 47.6314 149.286 47.9026 149.286 48.2371Z" fill="white"/>
<path d="M157.094 57.3549L157.094 57.4785L164.899 57.4785L164.899 57.3549L157.094 57.3549Z" fill="#A2BDDD"/>
<path d="M158.963 57.0132L158.963 57.8204L162.452 57.8204L162.452 57.0132L158.963 57.0132Z" fill="#42B38F"/>
<path d="M156.266 55.1466L156.266 55.2703L164.071 55.2703L164.071 55.1466L156.266 55.1466Z" fill="#A2BDDD"/>
<path d="M158.135 54.8049L158.135 55.6121L161.624 55.6121L161.624 54.8049L158.135 54.8049Z" fill="#E26A71"/>
<path d="M154.24 53.0005L154.24 53.1241L162.046 53.1241L162.046 53.0005L154.24 53.0005Z" fill="#A2BDDD"/>
<path d="M156.109 52.6585L156.109 53.4658L159.598 53.4658L159.598 52.6585L156.109 52.6585Z" fill="#42B38F"/>
<path d="M153.248 50.6682L153.248 50.7917L161.054 50.7917L161.054 50.6682L153.248 50.6682Z" fill="#A2BDDD"/>
<path d="M155.117 50.3263L155.117 51.1336L158.606 51.1336L158.606 50.3263L155.117 50.3263Z" fill="#E26A71"/>
<path d="M153.95 48.6458L153.95 48.7693L161.756 48.7693L161.756 48.6458L153.95 48.6458Z" fill="#A2BDDD"/>
<path d="M155.82 48.3038L155.82 49.111L159.309 49.111L159.309 48.3038L155.82 48.3038Z" fill="#E26A71"/>
<path d="M167.121 48.2268L167.121 57.865C167.121 58.1939 167.508 58.4605 167.985 58.4605L171.211 58.4605C171.688 58.4605 172.075 58.1939 172.075 57.865L172.075 48.2268C172.075 47.898 171.688 47.6314 171.211 47.6314L167.985 47.6314C167.508 47.6314 167.121 47.898 167.121 48.2268Z" fill="white"/>
<path d="M170.903 56.1975L168.536 56.1975C168.115 56.1975 167.774 55.8586 167.774 55.4405C167.774 55.0224 168.115 54.6835 168.536 54.6835L170.903 54.6835C171.324 54.6835 171.665 55.0224 171.665 55.4405C171.665 55.8586 171.324 56.1975 170.903 56.1975Z" fill="#42B38F"/>
<path d="M168.793 55.072C168.836 55.063 168.903 55.0563 168.971 55.0563C169.069 55.0563 169.132 55.073 169.179 55.1109C169.218 55.1399 169.241 55.1844 169.241 55.2435C169.241 55.3159 169.193 55.3793 169.114 55.4083L169.114 55.4105C169.185 55.4284 169.269 55.4874 169.269 55.5988C169.269 55.6634 169.244 55.7124 169.205 55.7491C169.153 55.797 169.068 55.8193 168.944 55.8193C168.877 55.8193 168.825 55.8148 168.793 55.8104L168.793 55.072ZM168.891 55.3794L168.979 55.3794C169.082 55.3794 169.143 55.3259 169.143 55.2535C169.143 55.1655 169.075 55.131 168.977 55.131C168.932 55.131 168.906 55.1343 168.891 55.1377L168.891 55.3794ZM168.891 55.7391C168.91 55.7425 168.938 55.7436 168.972 55.7436C169.073 55.7436 169.166 55.7068 169.166 55.5976C169.166 55.4952 169.078 55.4528 168.971 55.4528L168.89 55.4528L168.891 55.7391Z" fill="white"/>
<path d="M169.498 55.062L169.498 55.5064C169.498 55.6746 169.573 55.7459 169.674 55.7459C169.786 55.7459 169.858 55.6724 169.858 55.5064L169.858 55.062L169.957 55.062L169.957 55.4998C169.957 55.7303 169.834 55.825 169.671 55.825C169.516 55.825 169.399 55.737 169.399 55.5042L169.399 55.062L169.498 55.062Z" fill="white"/>
<path d="M170.293 55.8126L170.293 55.4941L170.055 55.062L170.166 55.062L170.272 55.2691C170.301 55.3259 170.324 55.3716 170.347 55.4239L170.35 55.4239C170.371 55.3749 170.397 55.3259 170.426 55.2691L170.534 55.062L170.645 55.062L170.392 55.493L170.392 55.8126L170.293 55.8126Z" fill="white"/>
<path d="M170.903 51.1781L168.536 51.1781C168.115 51.1781 167.774 50.8392 167.774 50.4211C167.774 50.003 168.115 49.6641 168.536 49.6641L170.903 49.6641C171.324 49.6641 171.665 50.003 171.665 50.4211C171.665 50.8392 171.324 51.1781 170.903 51.1781Z" fill="#E26A71"/>
<path d="M168.7 50.679C168.743 50.7057 168.807 50.728 168.874 50.728C168.974 50.728 169.032 50.6756 169.032 50.5999C169.032 50.5297 168.992 50.4896 168.89 50.4506C168.767 50.4072 168.691 50.3437 168.691 50.2379C168.691 50.121 168.788 50.0341 168.935 50.0341C169.012 50.0341 169.068 50.0519 169.102 50.0708L169.075 50.1499C169.05 50.1365 169 50.1142 168.932 50.1142C168.828 50.1142 168.789 50.1755 168.789 50.2267C168.789 50.2969 168.835 50.3314 168.939 50.3715C169.067 50.4205 169.132 50.4818 169.132 50.5921C169.132 50.7079 169.046 50.8081 168.868 50.8081C168.795 50.8081 168.715 50.787 168.675 50.7602L168.7 50.679Z" fill="white"/>
<path d="M169.656 50.445L169.362 50.445L169.362 50.7157L169.69 50.7157L169.69 50.797L169.265 50.797L169.265 50.0463L169.673 50.0463L169.673 50.1276L169.362 50.1276L169.362 50.3648L169.656 50.3648L169.656 50.445Z" fill="white"/>
<path d="M169.817 50.0463L169.915 50.0463L169.915 50.7156L170.238 50.7156L170.238 50.7969L169.817 50.7969L169.817 50.0463Z" fill="white"/>
<path d="M170.347 50.0463L170.444 50.0463L170.444 50.7156L170.767 50.7156L170.767 50.7969L170.347 50.7969L170.347 50.0463Z" fill="white"/>
<path d="M31.5879 42.5862C33.2766 42.873 34.2551 43.5819 34.5722 44.6519C34.6757 43.8016 34.5815 43.0472 33.9998 42.5862C33.5649 42.3371 32.6272 42.4274 31.5879 42.5862Z" fill="#BEBEBD"/>
<path d="M26.9265 47.7422C26.9282 47.7436 26.9296 47.7439 26.9298 47.7418C27.0081 46.8564 26.9762 46.1969 26.6253 45.5046C26.3061 44.8746 25.5037 44.3947 25.4619 44.3645C25.0767 44.0866 25.3378 45.217 25.795 45.5491C26.1668 45.819 25.7941 46.7463 26.9265 47.7422Z" fill="#232D3A"/>
<path d="M13.5216 71.4873L1.5705 65.4803C0.828595 65.1074 0.528908 64.2026 0.901123 63.4593L12.2487 40.7996C12.6209 40.0563 13.5241 39.7561 14.266 40.129L26.2171 46.136C26.959 46.5089 27.2587 47.4137 26.8865 48.157L15.5389 70.8167C15.1667 71.56 14.2635 71.8602 13.5216 71.4873Z" fill="#073856"/>
<path d="M12.7804 69.684L0.829289 63.677C0.0873835 63.3041 -0.212303 62.3992 0.159913 61.656L11.5075 38.9962C11.8797 38.2529 12.7829 37.9527 13.5248 38.3256L25.4759 44.3326C26.2178 44.7055 26.5175 45.6104 26.1453 46.3536L14.7977 69.0134C14.4255 69.7566 13.5223 70.0569 12.7804 69.684Z" fill="#073856" fill-opacity="0.62"/>
<path d="M27.5324 40.0518L30.2957 42.2516C30.2015 41.9256 30.1316 41.8726 30.3628 40.6932C30.4924 39.8262 30.4947 38.9726 30.1566 38.6182C30.1529 38.5397 30.0643 38.5033 29.9953 38.5409L27.5463 39.8735C27.4786 39.9104 27.2165 39.7884 27.5324 40.0518Z" fill="#BEBEBD"/>
<path d="M30.467 39.9241C31.1383 40.8707 32.4733 41.7397 33.9996 42.5862C33.5089 42.2865 32.2778 42.5041 32.2778 42.5041C31.5682 42.5971 30.8256 42.6779 30.3563 42.2573C29.9136 41.717 30.3689 41.202 30.467 39.9241Z" fill="#E6E5E7"/>
<path d="M34.6096 44.652L34.6042 44.3055C34.5904 43.4057 34.4605 42.3508 33.2156 42.4241L31.3911 42.5799C30.7493 42.6061 29.9366 42.3196 30.1594 41.3455C30.4877 40.0249 30.6367 38.9693 30.0664 38.5389" stroke="#ADAAAA" stroke-width="5" stroke-miterlimit="10"/>
<path d="M12.8226 68.954L1.38806 63.2066C0.871405 62.9469 0.662702 62.3168 0.921905 61.7992L11.9042 39.8689C12.1634 39.3513 12.7924 39.1422 13.309 39.4019L24.7436 45.1493C25.2602 45.409 25.4689 46.0391 25.2097 46.5567L14.2275 68.4869C13.9682 69.0046 13.3393 69.2136 12.8226 68.954Z" fill="#1B2E35"/>
<path d="M12.7142 68.6828L1.27966 62.9354C0.763007 62.6757 0.554303 62.0456 0.813506 61.528L11.7958 39.5977C12.055 39.0801 12.684 38.871 13.2006 39.1307L24.6352 44.8781C25.1518 45.1378 25.3605 45.7679 25.1013 46.2855L14.1191 68.2158C13.8598 68.7334 13.2309 68.9425 12.7142 68.6828Z" fill="#CCE6FF"/>
<path d="M19.3001 54.8159L9.43512 49.8575C9.03624 49.657 8.87511 49.1705 9.07523 48.7709L12.0677 42.7953C12.2679 42.3956 12.7534 42.2342 13.1523 42.4347L23.0173 47.3931C23.4161 47.5936 23.5773 48.0801 23.3772 48.4797L20.3847 54.4554C20.1845 54.855 19.699 55.0164 19.3001 54.8159Z" fill="#343F50"/>
<path d="M19.0804 54.2963L9.2154 49.3379C8.81652 49.1374 8.65539 48.6509 8.85551 48.2513L11.848 42.2757C12.0481 41.8761 12.5337 41.7146 12.9326 41.9151L22.7975 46.8735C23.1964 47.074 23.3576 47.5605 23.1574 47.9601L20.1649 53.9358C19.9648 54.3354 19.4792 54.4968 19.0804 54.2963Z" fill="#D8ECD7"/>
<path d="M23.2723 46.3214L12.4248 40.8691C12.2972 40.805 12.2457 40.6494 12.3097 40.5216L12.4702 40.2011C12.5342 40.0733 12.6895 40.0217 12.817 40.0858L23.6646 45.5381C23.7921 45.6022 23.8436 45.7578 23.7796 45.8856L23.6192 46.2061C23.5551 46.3339 23.3999 46.3855 23.2723 46.3214Z" fill="#252A30" stroke="#7C7779" stroke-miterlimit="10"/>
<path d="M10.2856 53.3923L7.56147 52.0231C7.40252 51.9432 7.3383 51.7493 7.41805 51.5901L8.0368 50.3545C8.11654 50.1953 8.31005 50.1309 8.46901 50.2108L11.1931 51.5801C11.3521 51.66 11.4163 51.8538 11.3366 52.0131L10.7178 53.2486C10.6381 53.4079 10.4446 53.4722 10.2856 53.3923Z" fill="#343F50"/>
<path d="M14.2749 55.3974L11.5507 54.0282C11.3918 53.9483 11.3276 53.7544 11.4073 53.5951L12.0261 52.3596C12.1058 52.2003 12.2993 52.136 12.4583 52.2159L15.1824 53.5851C15.3414 53.665 15.4056 53.8589 15.3258 54.0182L14.7071 55.2537C14.6273 55.413 14.4338 55.4773 14.2749 55.3974Z" fill="#343F50"/>
<path d="M18.2573 57.399L15.5332 56.0297C15.3742 55.9498 15.31 55.756 15.3897 55.5967L16.0085 54.3612C16.0882 54.2019 16.2817 54.1376 16.4407 54.2175L19.1648 55.5867C19.3238 55.6666 19.388 55.8605 19.3083 56.0197L18.6895 57.2553C18.6098 57.4146 18.4162 57.4789 18.2573 57.399Z" fill="#343F50"/>
<path d="M9.04927 55.8718L6.32514 54.5026C6.16619 54.4227 6.10197 54.2288 6.18172 54.0696L6.80047 52.834C6.88021 52.6748 7.07372 52.6104 7.23268 52.6903L9.95682 54.0596C10.1158 54.1395 10.18 54.3333 10.1002 54.4926L9.48149 55.7281C9.40174 55.8874 9.20822 55.9517 9.04927 55.8718Z" fill="#343F50"/>
<path d="M13.0385 57.8769L10.3144 56.5076C10.1554 56.4277 10.0912 56.2339 10.171 56.0746L10.7897 54.8391C10.8695 54.6798 11.063 54.6155 11.2219 54.6954L13.9461 56.0646C14.105 56.1445 14.1692 56.3384 14.0895 56.4977L13.4708 57.7332C13.391 57.8925 13.1975 57.9568 13.0385 57.8769Z" fill="#343F50"/>
<path d="M17.02 59.8784L14.2958 58.5092C14.1369 58.4293 14.0727 58.2354 14.1524 58.0762L14.7712 56.8406C14.8509 56.6814 15.0444 56.617 15.2034 56.6969L17.9275 58.0662C18.0865 58.1461 18.1507 58.3399 18.0709 58.4992L17.4522 59.7347C17.3725 59.894 17.179 59.9583 17.02 59.8784Z" fill="#343F50"/>
<path d="M7.81295 58.3478L5.08881 56.9785C4.92986 56.8986 4.86564 56.7048 4.94539 56.5455L5.56414 55.31C5.64389 55.1507 5.83739 55.0864 5.99635 55.1663L8.7205 56.5355C8.87947 56.6154 8.94367 56.8093 8.86392 56.9685L8.24518 58.2041C8.16542 58.3633 7.97191 58.4277 7.81295 58.3478Z" fill="#343F50"/>
<path d="M11.8022 60.3528L9.07807 58.9836C8.91912 58.9037 8.8549 58.7098 8.93465 58.5506L9.5534 57.315C9.63314 57.1558 9.82665 57.0915 9.98561 57.1713L12.7097 58.5406C12.8687 58.6205 12.9329 58.8144 12.8532 58.9736L12.2344 60.2092C12.1547 60.3684 11.9612 60.4327 11.8022 60.3528Z" fill="#343F50"/>
<path d="M15.7846 62.3544L13.0605 60.9851C12.9015 60.9052 12.8373 60.7113 12.9171 60.5521L13.5358 59.3166C13.6156 59.1573 13.8091 59.093 13.968 59.1729L16.6922 60.5421C16.8511 60.622 16.9153 60.8159 16.8356 60.9751L16.2168 62.2107C16.1371 62.3699 15.9436 62.4343 15.7846 62.3544Z" fill="#343F50"/>
<path d="M6.54635 60.8969L3.82221 59.5277C3.66325 59.4478 3.59905 59.2539 3.67879 59.0946L4.29754 57.8591C4.37729 57.6999 4.57079 57.6355 4.72976 57.7154L7.4539 59.0847C7.61285 59.1646 7.67707 59.3584 7.59733 59.5177L6.97858 60.7532C6.89882 60.9125 6.70531 60.9768 6.54635 60.8969Z" fill="#343F50"/>
<path d="M10.5356 62.902L7.81147 61.5327C7.65251 61.4528 7.5883 61.259 7.66805 61.0997L8.2868 59.8642C8.36655 59.7049 8.56005 59.6406 8.71901 59.7205L11.4431 61.0897C11.6021 61.1696 11.6663 61.3635 11.5866 61.5227L10.9678 62.7583C10.8881 62.9175 10.6946 62.9819 10.5356 62.902Z" fill="#343F50"/>
<path d="M14.517 64.9036L11.7929 63.5343C11.634 63.4544 11.5697 63.2606 11.6495 63.1013L12.2682 61.8658C12.348 61.7065 12.5415 61.6422 12.7005 61.7221L15.4246 63.0913C15.5836 63.1712 15.6478 63.3651 15.568 63.5243L14.9493 64.7599C14.8695 64.9191 14.676 64.9835 14.517 64.9036Z" fill="#343F50"/>
<path d="M13.0215 41.1237C14.3802 37.967 16.3917 35.6464 19.2129 34.363C20.5322 33.7628 22.0608 33.8442 23.3171 34.5673L30.0457 38.5158C30.1488 38.5751 30.1521 38.6173 30.0407 38.6589C26.3292 40.0452 24.0153 42.6025 22.9249 46.1014L13.0215 41.1237Z" fill="#E0E0E2" stroke="#ADAAAA" stroke-width="5" stroke-miterlimit="10"/>
<path d="M24.4256 38.102L20.158 35.7155C20.1128 35.6902 20.0491 35.7161 20.0159 35.7733C19.9826 35.8304 19.9923 35.8973 20.0375 35.9226L24.3052 38.3091C24.3504 38.3344 24.4141 38.3086 24.4473 38.2514C24.4806 38.1942 24.4709 38.1273 24.4256 38.102Z" fill="#ADAAAA"/>
<path d="M26.9483 38.3552L21.6155 35.461C21.559 35.4303 21.4868 35.4521 21.4543 35.5097C21.4217 35.5673 21.4411 35.6388 21.4977 35.6695L26.8304 38.5637C26.8869 38.5944 26.9591 38.5726 26.9917 38.515C27.0242 38.4574 27.0048 38.3859 26.9483 38.3552Z" fill="#ADAAAA"/>
<path d="M10.2172 53.0615L7.49311 51.6923C7.33415 51.6124 7.26994 51.4185 7.34969 51.2593L7.96844 50.0237C8.04819 49.8645 8.24169 49.8001 8.40065 49.88L11.1248 51.2493C11.2838 51.3292 11.348 51.523 11.2682 51.6823L10.6495 52.9178C10.5697 53.0771 10.3762 53.1414 10.2172 53.0615Z" fill="#8D949B"/>
<path d="M14.2221 55.0744L11.498 53.7052C11.339 53.6253 11.2748 53.4314 11.3546 53.2721L11.9733 52.0366C12.0531 51.8773 12.2466 51.813 12.4055 51.8929L15.1297 53.2621C15.2886 53.342 15.3528 53.5359 15.2731 53.6952L14.6543 54.9307C14.5746 55.09 14.3811 55.1543 14.2221 55.0744Z" fill="#8D949B"/>
<path d="M18.227 57.0873L15.5029 55.7181C15.3439 55.6382 15.2797 55.4443 15.3595 55.2851L15.9782 54.0495C16.058 53.8903 16.2515 53.8259 16.4104 53.9058L19.1346 55.2751C19.2935 55.355 19.3577 55.5488 19.278 55.7081L18.6592 56.9436C18.5795 57.1029 18.386 57.1672 18.227 57.0873Z" fill="#8D949B"/>
<path d="M8.99947 55.4935L6.27534 54.1243C6.11638 54.0444 6.05217 53.8505 6.13192 53.6913L6.75066 52.4557C6.83041 52.2965 7.02392 52.2321 7.18288 52.312L9.90701 53.6813C10.066 53.7612 10.1302 53.955 10.0504 54.1143L9.43169 55.3498C9.35194 55.5091 9.15844 55.5734 8.99947 55.4935Z" fill="#8D949B"/>
<path d="M13.0044 57.5065L10.2802 56.1373C10.1213 56.0574 10.0571 55.8635 10.1368 55.7043L10.7555 54.4687C10.8353 54.3095 11.0288 54.2451 11.1878 54.325L13.9119 55.6943C14.0709 55.7742 14.1351 55.968 14.0553 56.1273L13.4366 57.3628C13.3568 57.5221 13.1633 57.5864 13.0044 57.5065Z" fill="#8D949B"/>
<path d="M17.0083 59.5195L14.2841 58.1502C14.1252 58.0703 14.061 57.8765 14.1407 57.7172L14.7595 56.4817C14.8392 56.3224 15.0327 56.2581 15.1917 56.338L17.9158 57.7072C18.0748 57.7871 18.139 57.981 18.0592 58.1402L17.4405 59.3758C17.3607 59.535 17.1672 59.5994 17.0083 59.5195Z" fill="#8D949B"/>
<path d="M7.74947 57.9902L5.02534 56.621C4.86639 56.5411 4.80217 56.3472 4.88192 56.188L5.50066 54.9524C5.58041 54.7932 5.77392 54.7288 5.93288 54.8087L8.65701 56.178C8.81596 56.2579 8.88018 56.4517 8.80043 56.611L8.18169 57.8465C8.10194 58.0058 7.90843 58.0701 7.74947 57.9902Z" fill="#8D949B"/>
<path d="M11.7544 60.0032L9.03022 58.6339C8.87126 58.554 8.80705 58.3602 8.8868 58.2009L9.50555 56.9654C9.5853 56.8061 9.7788 56.7418 9.93776 56.8217L12.6619 58.1909C12.8209 58.2708 12.8851 58.4647 12.8053 58.6239L12.1866 59.8595C12.1068 60.0187 11.9133 60.0831 11.7544 60.0032Z" fill="#8D949B"/>
<path d="M15.7602 62.016L13.0361 60.6468C12.8771 60.5669 12.8129 60.373 12.8927 60.2138L13.5114 58.9782C13.5912 58.819 13.7847 58.7547 13.9436 58.8346L16.6678 60.2038C16.8267 60.2837 16.8909 60.4776 16.8112 60.6368L16.1924 61.8724C16.1127 62.0316 15.9192 62.096 15.7602 62.016Z" fill="#8D949B"/>
<path d="M6.47603 60.5342L3.7519 59.165C3.59294 59.0851 3.52873 58.8912 3.60848 58.732L4.22723 57.4964C4.30697 57.3372 4.50048 57.2728 4.65944 57.3528L7.38358 58.722C7.54254 58.8019 7.60674 58.9958 7.527 59.155L6.90825 60.3906C6.8285 60.5498 6.635 60.6141 6.47603 60.5342Z" fill="#8D949B"/>
<path d="M10.4809 62.5472L7.75678 61.1779C7.59782 61.098 7.53362 60.9042 7.61336 60.7449L8.23211 59.5094C8.31186 59.3501 8.50536 59.2858 8.66433 59.3657L11.3885 60.7349C11.5474 60.8148 11.6116 61.0087 11.5319 61.1679L10.9131 62.4035C10.8334 62.5627 10.6399 62.6271 10.4809 62.5472Z" fill="#8D949B"/>
<path d="M14.4848 64.5601L11.7607 63.1908C11.6017 63.1109 11.5375 62.9171 11.6173 62.7578L12.236 61.5222C12.3158 61.363 12.5093 61.2987 12.6682 61.3786L15.3924 62.7478C15.5513 62.8277 15.6155 63.0216 15.5358 63.1808L14.917 64.4164C14.8373 64.5756 14.6438 64.6399 14.4848 64.5601Z" fill="#8D949B"/>
<path d="M14.4382 48.8541L13.9165 47.0961C13.8309 46.8291 13.9934 46.5462 14.2668 46.4861L14.8046 46.3597C14.9639 46.3247 15.126 46.4067 15.1924 46.556L15.5354 47.5506C15.6531 47.8152 15.9393 47.9615 16.2222 47.9018L18.0652 47.553C18.3538 47.492 18.6383 47.6719 18.7077 47.959L18.8241 48.5359C18.8935 48.8231 18.633 49 18.3399 49.0333L15.4822 49.4887C15.1007 49.532 14.5555 49.2203 14.4382 48.8541Z" fill="#90C859"/>
<path d="M5.01433 63.4458L2.66369 62.2643C2.40891 62.1362 2.306 61.8255 2.43382 61.5702L2.87119 60.6969C2.99901 60.4416 3.30918 60.3385 3.56396 60.4666L5.9146 61.6481C6.16938 61.7761 6.27229 62.0869 6.14447 62.3421L5.7071 63.2155C5.57928 63.4707 5.26912 63.5738 5.01433 63.4458Z" fill="#343F50"/>
<path d="M8.91375 65.4056L6.56311 64.2241C6.30832 64.096 6.20541 63.7853 6.33324 63.53L6.77061 62.6567C6.89843 62.4014 7.20859 62.2983 7.46337 62.4264L9.81401 63.6079C10.0688 63.7359 10.1717 64.0467 10.0439 64.3019L9.60652 65.1753C9.47869 65.4305 9.16853 65.5336 8.91375 65.4056Z" fill="#343F50"/>
<path d="M12.8874 67.4025L10.5367 66.221C10.282 66.093 10.179 65.7822 10.3069 65.527L10.7442 64.6536C10.8721 64.3984 11.1822 64.2952 11.437 64.4233L13.7877 65.6048C14.0424 65.7329 14.1454 66.0436 14.0175 66.2989L13.5802 67.1722C13.4523 67.4275 13.1422 67.5306 12.8874 67.4025Z" fill="#343F50"/>
<path d="M8.8991 65.1247L6.54846 63.9432C6.29368 63.8151 6.19077 63.5044 6.31859 63.2491L6.75594 62.3758C6.88376 62.1205 7.19393 62.0174 7.44871 62.1455L9.79935 63.327C10.0541 63.455 10.157 63.7658 10.0292 64.021L9.59187 64.8944C9.46404 65.1496 9.15388 65.2527 8.8991 65.1247Z" fill="#F8D53F"/>
<path d="M12.8727 67.1217L10.5221 65.9402C10.2673 65.8121 10.1644 65.5014 10.2922 65.2461L10.7296 64.3728C10.8574 64.1175 11.1676 64.0144 11.4224 64.1425L13.773 65.324C14.0278 65.452 14.1307 65.7628 14.0029 66.018L13.5655 66.8914C13.4377 67.1466 13.1275 67.2497 12.8727 67.1217Z" fill="#4E62AC"/>
<path d="M5.00067 63.1649L2.65003 61.9834C2.39524 61.8553 2.29232 61.5446 2.42016 61.2894L2.85753 60.416C2.98535 60.1607 3.29551 60.0576 3.55029 60.1857L5.90093 61.3672C6.15572 61.4953 6.25863 61.806 6.1308 62.0613L5.69344 62.9346C5.56561 63.1898 5.25545 63.293 5.00067 63.1649Z" fill="#EE4351"/>
<path d="M0.170122 62.5517C0.169419 62.5497 0.166448 62.5509 0.16708 62.5529C0.436773 63.4429 0.620449 64.0346 0.990986 64.6545C1.37922 65.304 1.7654 64.207 1.78302 64.1585C1.78335 64.1576 1.78275 64.1568 1.78183 64.1564C0.94159 63.8374 0.447163 63.3574 0.170122 62.5517Z" fill="#232D3A"/>
<path d="M40.077 76.2568L29.0047 79.9318C27.8137 80.3271 26.5284 79.6803 26.1338 78.4872L18.8317 56.4061C18.4371 55.213 19.0827 53.9252 20.2737 53.5299L31.346 49.8549C32.537 49.4596 33.8223 50.1064 34.2169 51.2995L41.519 73.3806C41.9136 74.5738 41.268 75.8615 40.077 76.2568Z" fill="#3A3A3A"/>
<path d="M39.5262 75.7847L29.1631 79.2244C28.1015 79.5767 26.9558 79.0002 26.6041 77.9366L19.5427 56.5836C19.191 55.52 19.7665 54.3722 20.8281 54.0198L31.1911 50.5802C32.2528 50.2278 33.3985 50.8044 33.7502 51.8679L40.8115 73.221C41.1633 74.2845 40.5878 75.4324 39.5262 75.7847Z" fill="#E9ECE5"/>
<path d="M35.9217 62.5938L24.5285 66.3753C24.2837 66.4566 24.0195 66.3236 23.9384 66.0784L21.5668 58.9069C21.4857 58.6617 21.6184 58.3969 21.8632 58.3157L33.2564 54.5341C33.5012 54.4529 33.7654 54.5858 33.8465 54.8311L36.2181 62.0025C36.2992 62.2478 36.1665 62.5125 35.9217 62.5938Z" fill="#9B9C9F"/>
<path d="M35.6736 62.4034L24.2804 66.185C24.0356 66.2662 23.7714 66.1333 23.6903 65.888L21.3187 58.7166C21.2376 58.4713 21.3703 58.2066 21.6152 58.1253L33.0083 54.3437C33.2532 54.2625 33.5174 54.3954 33.5985 54.6407L35.9701 61.8122C36.0512 62.0574 35.9184 62.3221 35.6736 62.4034Z" fill="#4E62AC"/>
<path d="M29.2582 51.9371L23.1907 53.951C23.0835 53.9866 22.9679 53.9284 22.9323 53.821L22.7634 53.31C22.7278 53.2027 22.786 53.0868 22.8931 53.0512L28.9606 51.0373C29.0678 51.0017 29.1835 51.0599 29.219 51.1673L29.388 51.6783C29.4235 51.7857 29.3654 51.9016 29.2582 51.9371Z" fill="#3A3A3A"/>
<path d="M25.1084 59.7837L22.9857 60.4882C22.8688 60.527 22.7427 60.4635 22.7039 60.3464L22.2877 59.0879C22.249 58.9708 22.3124 58.8443 22.4293 58.8055L24.552 58.101C24.6689 58.0622 24.7951 58.1257 24.8338 58.2428L25.25 59.5013C25.2887 59.6185 25.2254 59.7449 25.1084 59.7837Z" fill="#C9CFD3"/>
<path d="M24.3428 62.8623L23.6905 63.0788C23.6496 63.0924 23.6054 63.0702 23.5919 63.0292L23.4112 62.4828C23.3977 62.4419 23.4198 62.3977 23.4607 62.3841L24.1131 62.1676C24.154 62.154 24.1981 62.1762 24.2117 62.2172L24.3923 62.7635C24.4059 62.8045 24.3837 62.8487 24.3428 62.8623Z" fill="#C9CFD3"/>
<path d="M25.461 62.4913L24.8086 62.7079C24.7677 62.7214 24.7236 62.6992 24.71 62.6582L24.5294 62.1119C24.5158 62.0709 24.538 62.0267 24.5789 62.0131L25.2313 61.7966C25.2721 61.783 25.3163 61.8052 25.3298 61.8462L25.5105 62.3926C25.524 62.4335 25.5019 62.4778 25.461 62.4913Z" fill="#C9CFD3"/>
<path d="M26.585 62.1183L25.9326 62.3348C25.8918 62.3484 25.8476 62.3262 25.8341 62.2852L25.6534 61.7388C25.6398 61.6978 25.662 61.6536 25.7029 61.6401L26.3553 61.4235C26.3962 61.41 26.4403 61.4322 26.4538 61.4732L26.6345 62.0195C26.6481 62.0605 26.6259 62.1047 26.585 62.1183Z" fill="#C9CFD3"/>
<path d="M27.7022 61.7473L27.0498 61.9638C27.0089 61.9774 26.9648 61.9552 26.9513 61.9142L26.7706 61.3678C26.757 61.3269 26.7792 61.2826 26.8201 61.2691L27.4724 61.0526C27.5133 61.039 27.5575 61.0612 27.571 61.1022L27.7517 61.6486C27.7652 61.6895 27.7431 61.7337 27.7022 61.7473Z" fill="#C9CFD3"/>
<path d="M34.5945 72.4601C35.7919 71.2604 35.7919 69.3153 34.5945 68.1156C33.397 66.916 31.4555 66.916 30.2581 68.1156C29.0606 69.3153 29.0606 71.2604 30.2581 72.46C31.4555 73.6597 33.397 73.6597 34.5945 72.4601Z" stroke="#F9CE0D" stroke-width="20" stroke-miterlimit="10"/>
<path d="M32.0911 72.0162L30.5908 71.4925C30.3597 71.4174 30.2439 71.1603 30.3412 70.9381L30.5268 70.4971C30.5835 70.3676 30.7237 70.2955 30.8624 70.3245L31.7356 70.5871C31.9814 70.6385 32.23 70.5119 32.3324 70.2833L33.0276 68.8143C33.1319 68.5812 33.4034 68.4726 33.6403 68.5693L34.1048 68.7795C34.3418 68.8762 34.3331 69.1484 34.207 69.3707L33.0691 71.6052C32.905 71.8947 32.4081 72.1193 32.0911 72.0162Z" fill="#90C859"/>
<defs>
<linearGradient id="paint0_linear_2666_2933" x1="148.296" y1="53.046" x2="173.066" y2="53.046" gradientUnits="userSpaceOnUse">
<stop stop-color="#FDFDFD"/>
<stop offset="0.1104" stop-color="#ECF9FD"/>
<stop offset="0.3078" stop-color="#D3F3FE"/>
<stop offset="0.5152" stop-color="#C2EFFF"/>
<stop offset="0.7374" stop-color="#B7EDFF"/>
<stop offset="1" stop-color="#B4ECFF"/>
</linearGradient>
</defs>
</svg>
