<svg width="152" height="128" viewBox="0 0 152 128" fill="none" xmlns="http://www.w3.org/2000/svg">
<path d="M71.9828 25.8998C71.2516 24.7887 70.0124 24.0871 68.6295 24.1714C68.5877 24.1739 68.5449 24.1774 68.5029 24.1808C66.6181 24.3603 65.1253 26.0179 65.0355 28.0286C65.0011 28.8163 65.1766 29.5561 65.5062 30.1903C65.6652 30.4954 65.8587 30.7758 66.0824 31.0259V31.0268C66.259 31.2229 66.4529 31.401 66.6621 31.5567C67.1707 31.9349 67.4897 32.5322 67.5632 33.1818L67.3866 33.1846C67.336 33.1854 67.2891 33.2084 67.2565 33.2443C67.2504 33.2509 67.2453 33.2583 67.2393 33.2659C67.217 33.2988 67.2036 33.3399 67.2043 33.3845C67.2058 33.4932 67.29 33.5811 67.3922 33.5795C67.3416 33.5803 67.2947 33.6033 67.262 33.6392C67.2586 33.6429 67.256 33.6467 67.2525 33.6505C67.2251 33.6862 67.2091 33.7311 67.2098 33.7794C67.2113 33.8881 67.2955 33.976 67.3977 33.9744C67.3471 33.9752 67.3002 33.9983 67.2676 34.035C67.2623 34.0407 67.2572 34.0473 67.2521 34.0539C67.229 34.0877 67.2147 34.1307 67.2154 34.1752C67.2169 34.283 67.3011 34.3709 67.4033 34.3693C67.3527 34.3701 67.3058 34.3932 67.2731 34.43C67.2705 34.4328 67.2688 34.4347 67.2671 34.4374C67.2378 34.4723 67.2202 34.519 67.2209 34.5701C67.2224 34.6788 67.3066 34.7658 67.4088 34.7642L67.6002 34.7612C67.6025 34.8096 67.6065 34.8577 67.6136 34.905C67.639 35.0693 67.6931 35.2229 67.7694 35.3608C67.7838 35.3868 67.799 35.4122 67.815 35.437C67.823 35.4494 67.8315 35.4613 67.8399 35.4734C67.8511 35.4896 67.8624 35.5056 67.8743 35.5211C67.8829 35.5325 67.8916 35.5438 67.9007 35.5549C67.915 35.5725 67.9297 35.5896 67.9449 35.6064C67.9519 35.6143 67.9587 35.6224 67.9659 35.6301C67.9878 35.6533 68.0106 35.6754 68.0341 35.6968C68.0422 35.7042 68.0507 35.7112 68.059 35.7185C68.0765 35.7335 68.0941 35.7482 68.1124 35.7622C68.1216 35.7693 68.1308 35.7764 68.1403 35.7833C68.1618 35.7991 68.1838 35.814 68.2063 35.8284C68.2119 35.8319 68.2171 35.8358 68.2228 35.8392C68.2505 35.8562 68.2791 35.8719 68.3081 35.8866C68.317 35.8912 68.3262 35.8954 68.3353 35.8998C68.357 35.9102 68.3792 35.9199 68.4015 35.929C68.4114 35.933 68.4213 35.937 68.4312 35.9408C68.4593 35.9513 68.4878 35.961 68.5168 35.9694C68.5201 35.9703 68.5233 35.9716 68.5267 35.9725C68.5588 35.9815 68.5916 35.9888 68.6247 35.9951C68.6344 35.997 68.6442 35.9983 68.6539 36C68.679 36.0041 68.7042 36.0074 68.7298 36.0099C68.7399 36.0109 68.75 36.012 68.7602 36.0127C68.7948 36.0153 68.8295 36.0167 68.8647 36.0162L69.0735 36.0128C69.4186 36.0074 69.7292 35.8538 69.9512 35.6095C70.1337 35.4106 70.2568 35.1511 70.2937 34.8625C70.2966 34.8376 70.2986 34.8125 70.3002 34.7872C70.3017 34.7647 70.3025 34.742 70.303 34.7193C70.303 34.7189 70.303 34.7186 70.3031 34.7183L70.4769 34.7155C70.5276 34.7147 70.5744 34.6917 70.6072 34.6559C70.6407 34.6191 70.661 34.5705 70.6603 34.5156C70.6596 34.4645 70.6405 34.4183 70.6094 34.3844C70.5757 34.3441 70.5256 34.3198 70.4714 34.3206C70.522 34.3198 70.5689 34.2968 70.6016 34.261C70.6352 34.2242 70.6555 34.1746 70.6548 34.1207C70.6541 34.0761 70.6387 34.0336 70.6137 34.0005C70.579 33.9546 70.5253 33.9248 70.4659 33.9257C70.5165 33.9249 70.5634 33.9019 70.5961 33.8651C70.6297 33.8293 70.6499 33.7787 70.6492 33.7248C70.6485 33.6764 70.6313 33.6322 70.6019 33.5973C70.5673 33.5561 70.5162 33.5299 70.4604 33.5308C70.511 33.53 70.5579 33.507 70.5905 33.4702C70.6241 33.4343 70.6444 33.3848 70.6437 33.3299C70.643 33.2853 70.6285 33.2447 70.6045 33.2125C70.5697 33.1647 70.5151 33.1349 70.4548 33.1359L70.2792 33.1387C70.3345 32.487 70.6372 31.8797 71.1343 31.4847C72.0831 30.7317 72.6909 29.5223 72.6719 28.1666C72.6598 27.3231 72.4068 26.5427 71.9828 25.8998Z" fill="white"/>
<path d="M14.7063 124.701C14.7063 124.701 -30.3274 0.608343 52.3144 9.00807C87.7104 12.6058 81.1026 34.4319 96.7354 54.8536C106.868 68.0908 126.357 57.262 133.661 68.8291C140.964 80.3962 132.381 113.378 129.371 124.701H14.7063Z" fill="#E5F0F8"/>
<path d="M131.136 57.3447V56.3404L136.587 53.2026V54.7366L132.946 56.8425L136.587 58.9484V60.4824L131.136 57.3447Z" fill="#E5F0F8"/>
<path d="M138.246 61.7375L137.352 61.3193L140.713 50.4969L141.607 50.9433L138.246 61.7375Z" fill="#E5F0F8"/>
<path d="M147.952 56.3403V57.3446L142.501 60.4824V58.9484L146.142 56.8425L142.501 54.7366V53.2026L147.952 56.3403Z" fill="#E5F0F8"/>
<path d="M138.497 8.55164H89.6516C89.0734 8.55164 88.6045 9.30188 88.6045 10.2274V14.1073V48.6269H139.544V14.1074V10.2275C139.544 9.30196 139.075 8.55164 138.497 8.55164Z" fill="#E5F0F8"/>
<path d="M138.863 12.318H89.2861V48.01H138.863V12.318Z" fill="white"/>
<path d="M135.332 11.5845L137.586 9.38147" stroke="white" stroke-width="4.5267" stroke-miterlimit="10" stroke-linecap="round" stroke-linejoin="round"/>
<path d="M137.586 11.5845L135.332 9.38147" stroke="white" stroke-width="4.5267" stroke-miterlimit="10" stroke-linecap="round" stroke-linejoin="round"/>
<path d="M137.885 31.1492H90.2637V34.5329H137.885V31.1492Z" fill="#E5F0F8"/>
<path d="M107.414 32.4584H91.9639V33.2116H107.414V32.4584Z" fill="white"/>
<path d="M118.817 32.4585H108.354V33.2118H118.817V32.4585Z" fill="white"/>
<path d="M136.177 35.7367H91.9707V45.4047H136.177V35.7367Z" stroke="#E5F0F8" stroke-width="2.6082" stroke-miterlimit="10"/>
<path d="M95.8064 35.7367H91.9707V45.4047H95.8064V35.7367Z" stroke="#E5F0F8" stroke-width="2.6082" stroke-miterlimit="10"/>
<path d="M117.979 35.7367H95.8066V45.4047H117.979V35.7367Z" stroke="#E5F0F8" stroke-width="2.6082" stroke-miterlimit="10"/>
<path d="M136.178 35.7367H132.679V45.4047H136.178V35.7367Z" stroke="#E5F0F8" stroke-width="2.6082" stroke-miterlimit="10"/>
<path d="M132.678 35.7367H129.18V45.4047H132.678V35.7367Z" stroke="#E5F0F8" stroke-width="2.6082" stroke-miterlimit="10"/>
<path d="M129.179 35.7367H124.808V45.4047H129.179V35.7367Z" stroke="#E5F0F8" stroke-width="2.6082" stroke-miterlimit="10"/>
<path d="M124.808 35.7367H117.979V45.4047H124.808V35.7367Z" stroke="#E5F0F8" stroke-width="2.6082" stroke-miterlimit="10"/>
<path d="M136.177 38.6204H91.9707V40.8818H136.177V38.6204Z" stroke="#E5F0F8" stroke-width="2.6082" stroke-miterlimit="10"/>
<path d="M136.177 40.8818H91.9707V43.1433H136.177V40.8818Z" stroke="#E5F0F8" stroke-width="2.6082" stroke-miterlimit="10"/>
<path d="M136.177 43.1434H91.9707V45.4049H136.177V43.1434Z" stroke="#E5F0F8" stroke-width="2.6082" stroke-miterlimit="10"/>
<path d="M137.885 13.9976H90.2637V17.3813H137.885V13.9976Z" fill="#E5F0F8"/>
<path d="M107.414 15.3068H91.9639V16.06H107.414V15.3068Z" fill="white"/>
<path d="M118.817 15.3068H108.354V16.06H118.817V15.3068Z" fill="white"/>
<path d="M136.177 18.5852H91.9707V28.2532H136.177V18.5852Z" stroke="#E5F0F8" stroke-width="2.6082" stroke-miterlimit="10"/>
<path d="M95.8064 18.5852H91.9707V28.2532H95.8064V18.5852Z" stroke="#E5F0F8" stroke-width="2.6082" stroke-miterlimit="10"/>
<path d="M117.979 18.5852H95.8066V28.2532H117.979V18.5852Z" stroke="#E5F0F8" stroke-width="2.6082" stroke-miterlimit="10"/>
<path d="M136.178 18.5852H132.679V28.2532H136.178V18.5852Z" stroke="#E5F0F8" stroke-width="2.6082" stroke-miterlimit="10"/>
<path d="M132.678 18.5852H129.18V28.2532H132.678V18.5852Z" stroke="#E5F0F8" stroke-width="2.6082" stroke-miterlimit="10"/>
<path d="M129.179 18.5852H124.808V28.2532H129.179V18.5852Z" stroke="#E5F0F8" stroke-width="2.6082" stroke-miterlimit="10"/>
<path d="M124.808 18.5852H117.979V28.2532H124.808V18.5852Z" stroke="#E5F0F8" stroke-width="2.6082" stroke-miterlimit="10"/>
<path d="M136.177 21.4688H91.9707V23.7302H136.177V21.4688Z" stroke="#E5F0F8" stroke-width="2.6082" stroke-miterlimit="10"/>
<path d="M136.177 23.7302H91.9707V25.9917H136.177V23.7302Z" stroke="#E5F0F8" stroke-width="2.6082" stroke-miterlimit="10"/>
<path d="M136.177 25.9917H91.9707V28.2532H136.177V25.9917Z" stroke="#E5F0F8" stroke-width="2.6082" stroke-miterlimit="10"/>
<path d="M56.7043 35.1371L61.1165 44.5203H126.206L126.206 115.652H24.3467V44.5203H35.7531V35.1371H56.7043Z" fill="#93ACBF"/>
<path d="M58.7414 35.1371L63.1535 44.5203H128.243V115.652H26.3838V44.5203H37.7901V35.1371H58.7414Z" fill="#BBDBF3"/>
<path d="M91.6485 76.4987H85.5064V67.4714C85.5064 62.6656 81.8306 58.756 77.3123 58.756C72.7941 58.756 69.1181 62.6657 69.1181 67.4714V76.4987H62.9758C62.5681 76.4987 62.2383 76.8495 62.2383 77.2804V101.245C62.2383 101.679 62.5681 102.027 62.9758 102.027H77.3134H91.6485C92.0562 102.027 92.386 101.679 92.386 101.245V77.2804C92.3861 76.8495 92.0562 76.4987 91.6485 76.4987ZM71.7151 67.4714C71.7151 64.1889 74.226 61.5181 77.3123 61.5181C80.3985 61.5181 82.9096 64.1888 82.9096 67.4714V76.4987H77.3135H71.7151V67.4714Z" fill="white"/>
<path d="M79.2967 87.3162C79.2967 86.1508 78.4085 85.2062 77.3129 85.2062C76.2172 85.2062 75.3291 86.1509 75.3291 87.3162C75.3291 88.1249 75.7572 88.8265 76.3852 89.1807V93.8121C76.3852 94.3548 76.8027 94.7988 77.3129 94.7988C77.8232 94.7988 78.2407 94.3548 78.2407 93.8121V89.1806C78.8685 88.8264 79.2967 88.1249 79.2967 87.3162Z" fill="#BBDBF3"/>
<path d="M84.6484 64.8925H97.5809V51.8525H119.184" stroke="white" stroke-width="3.8032" stroke-miterlimit="10"/>
<path d="M84.6484 69.9019H108.178V64.2664H119.952" stroke="white" stroke-width="3.8032" stroke-miterlimit="10"/>
<path d="M90.7529 77.8879H106.766" stroke="white" stroke-width="3.8032" stroke-miterlimit="10"/>
<path d="M91.3408 82.801H101.349V85.3326H114.065V77.8881H122.425" stroke="white" stroke-width="3.8032" stroke-miterlimit="10"/>
<path d="M90.2148 90.0026H100.761V95.8653H123.367" stroke="white" stroke-width="3.8032" stroke-miterlimit="10"/>
<path d="M90.7529 99.3309H96.1691V105.844H115.589V109.741" stroke="white" stroke-width="3.8032" stroke-miterlimit="10"/>
<path d="M69.9779 64.8925H57.0454V51.8525H35.4424" stroke="white" stroke-width="3.8032" stroke-miterlimit="10"/>
<path d="M69.9784 69.9019H46.4491V64.2664H34.6748" stroke="white" stroke-width="3.8032" stroke-miterlimit="10"/>
<path d="M63.8753 77.8879H47.8623" stroke="white" stroke-width="3.8032" stroke-miterlimit="10"/>
<path d="M63.2863 82.801H53.2781V85.3326H40.5619V77.8881H32.2021" stroke="white" stroke-width="3.8032" stroke-miterlimit="10"/>
<path d="M64.4121 90.0026H53.8664V95.8653H31.2598" stroke="white" stroke-width="3.8032" stroke-miterlimit="10"/>
<path d="M63.8746 99.3309H58.4585V105.844H39.0391V109.741" stroke="white" stroke-width="3.8032" stroke-miterlimit="10"/>
<path d="M88.1943 100.7V110.348" stroke="white" stroke-width="3.8032" stroke-miterlimit="10"/>
<path d="M81.8043 99.6729V105.524H78.1543V110.348" stroke="white" stroke-width="3.8032" stroke-miterlimit="10"/>
<path d="M71.7148 100.209V109.436" stroke="white" stroke-width="3.8032" stroke-miterlimit="10"/>
<path d="M65.2021 100.7V106.22H68.7933V111.981" stroke="white" stroke-width="3.8032" stroke-miterlimit="10"/>
<path d="M120.904 52.0728C121.012 51.5848 120.728 51.0957 120.269 50.9805C119.81 50.8653 119.35 51.1675 119.242 51.6555C119.134 52.1435 119.418 52.6325 119.877 52.7477C120.335 52.8629 120.795 52.5608 120.904 52.0728Z" stroke="white" stroke-width="3.8032" stroke-miterlimit="10"/>
<path d="M121.561 64.4874C121.669 63.9994 121.385 63.5104 120.926 63.3952C120.467 63.28 120.008 63.5821 119.899 64.0701C119.791 64.5581 120.075 65.0471 120.534 65.1624C120.993 65.2776 121.452 64.9754 121.561 64.4874Z" stroke="white" stroke-width="3.8032" stroke-miterlimit="10"/>
<path d="M108.274 78.1089C108.382 77.6209 108.098 77.1319 107.639 77.0166C107.18 76.9014 106.721 77.2036 106.612 77.6916C106.504 78.1796 106.788 78.6686 107.247 78.7838C107.706 78.8991 108.165 78.5969 108.274 78.1089Z" stroke="white" stroke-width="3.8032" stroke-miterlimit="10"/>
<path d="M124.005 78.1096C124.113 77.6216 123.829 77.1326 123.371 77.0174C122.912 76.9022 122.452 77.2043 122.344 77.6923C122.235 78.1803 122.519 78.6693 122.978 78.7846C123.437 78.8998 123.897 78.5976 124.005 78.1096Z" stroke="white" stroke-width="3.8032" stroke-miterlimit="10"/>
<path d="M124.822 96.5075C125.156 96.1529 125.156 95.578 124.822 95.2235C124.489 94.8689 123.949 94.8689 123.615 95.2235C123.282 95.578 123.282 96.1529 123.615 96.5075C123.949 96.862 124.489 96.862 124.822 96.5075Z" stroke="white" stroke-width="3.8032" stroke-miterlimit="10"/>
<path d="M116.186 111.295C116.519 110.94 116.519 110.365 116.186 110.011C115.852 109.656 115.312 109.656 114.979 110.011C114.645 110.365 114.645 110.94 114.979 111.295C115.312 111.649 115.852 111.649 116.186 111.295Z" stroke="white" stroke-width="3.8032" stroke-miterlimit="10"/>
<path d="M89.0237 111.303C89.132 110.815 88.8479 110.326 88.3891 110.211C87.9303 110.095 87.4705 110.398 87.3622 110.886C87.2538 111.374 87.538 111.863 87.9968 111.978C88.4556 112.093 88.9153 111.791 89.0237 111.303Z" stroke="white" stroke-width="3.8032" stroke-miterlimit="10"/>
<path d="M72.5432 110.394C72.6515 109.906 72.3674 109.417 71.9086 109.302C71.4498 109.187 70.99 109.489 70.8817 109.977C70.7734 110.465 71.0575 110.954 71.5163 111.069C71.9751 111.184 72.4348 110.882 72.5432 110.394Z" stroke="white" stroke-width="3.8032" stroke-miterlimit="10"/>
<path d="M39.3684 111.488C39.8034 111.295 40.0088 110.763 39.8272 110.301C39.6455 109.838 39.1456 109.619 38.7106 109.813C38.2755 110.006 38.0701 110.538 38.2517 111C38.4334 111.463 38.9333 111.682 39.3684 111.488Z" stroke="white" stroke-width="3.8032" stroke-miterlimit="10"/>
<path d="M78.7561 111.723C79.0894 111.369 79.0894 110.794 78.7561 110.439C78.4227 110.085 77.8823 110.085 77.5489 110.439C77.2155 110.794 77.2156 111.369 77.5489 111.723C77.8823 112.078 78.4227 112.078 78.7561 111.723Z" stroke="white" stroke-width="3.8032" stroke-miterlimit="10"/>
<path d="M69.3957 113.539C69.7291 113.185 69.7291 112.61 69.3957 112.255C69.0624 111.901 68.5219 111.901 68.1885 112.255C67.8552 112.61 67.8552 113.185 68.1885 113.539C68.5219 113.894 69.0624 113.894 69.3957 113.539Z" stroke="white" stroke-width="3.8032" stroke-miterlimit="10"/>
<path d="M31.009 96.5067C31.3424 96.1522 31.3424 95.5773 31.009 95.2228C30.6757 94.8682 30.1352 94.8682 29.8018 95.2227C29.4685 95.5773 29.4685 96.1522 29.8018 96.5067C30.1352 96.8613 30.6757 96.8613 31.009 96.5067Z" stroke="white" stroke-width="3.8032" stroke-miterlimit="10"/>
<path d="M32.415 78.0291C32.4907 77.5342 32.1749 77.0677 31.7096 76.9871C31.2443 76.9065 30.8057 77.2424 30.7299 77.7373C30.6542 78.2322 30.97 78.6987 31.4353 78.7793C31.9006 78.8599 32.3392 78.524 32.415 78.0291Z" stroke="white" stroke-width="3.8032" stroke-miterlimit="10"/>
<path d="M34.3334 64.9952C34.7125 64.697 34.7925 64.1284 34.5121 63.7253C34.2317 63.3221 33.6972 63.237 33.3181 63.5353C32.9391 63.8335 32.8591 64.402 33.1395 64.8052C33.4198 65.2083 33.9544 65.2934 34.3334 64.9952Z" stroke="white" stroke-width="3.8032" stroke-miterlimit="10"/>
<path d="M35.1267 52.6238C35.5265 52.3581 35.6481 51.7979 35.3982 51.3727C35.1483 50.9475 34.6217 50.8182 34.2219 51.084C33.8221 51.3497 33.7006 51.9099 33.9505 52.3351C34.2003 52.7603 34.727 52.8896 35.1267 52.6238Z" stroke="white" stroke-width="3.8032" stroke-miterlimit="10"/>
<path d="M47.8768 78.1019C47.9856 77.614 47.702 77.1246 47.2433 77.0088C46.7846 76.8931 46.3245 77.1947 46.2157 77.6826C46.1068 78.1705 46.3904 78.6599 46.8491 78.7757C47.3078 78.8915 47.7679 78.5898 47.8768 78.1019Z" stroke="white" stroke-width="3.8032" stroke-miterlimit="10"/>
<path d="M119.685 123.842C128.22 123.842 135.139 121.692 135.139 119.039C135.139 116.386 128.22 114.236 119.685 114.236C111.15 114.236 104.23 116.386 104.23 119.039C104.23 121.692 111.15 123.842 119.685 123.842Z" fill="#073856"/>
<path d="M135.139 112.243H104.23V119.039H135.139V112.243Z" fill="#073856"/>
<path d="M119.685 117.046C128.22 117.046 135.139 114.896 135.139 112.243C135.139 109.59 128.22 107.44 119.685 107.44C111.15 107.44 104.23 109.59 104.23 112.243C104.23 114.896 111.15 117.046 119.685 117.046Z" fill="white"/>
<path d="M106.513 107.687V113.129C106.513 113.396 106.661 113.637 106.891 113.742C109.671 115.016 114.363 115.852 119.685 115.852C125.005 115.852 129.697 115.016 132.477 113.742C132.707 113.637 132.856 113.396 132.856 113.129V107.687C132.856 107.319 132.575 107.02 132.228 107.02H107.14C106.794 107.02 106.513 107.319 106.513 107.687Z" fill="#FFE30B"/>
<path d="M119.685 114.049C128.22 114.049 135.139 111.899 135.139 109.246C135.139 106.593 128.22 104.443 119.685 104.443C111.15 104.443 104.23 106.593 104.23 109.246C104.23 111.899 111.15 114.049 119.685 114.049Z" fill="#073856"/>
<path d="M135.139 102.45H104.23V109.246H135.139V102.45Z" fill="#073856"/>
<path d="M119.685 107.253C128.22 107.253 135.139 105.103 135.139 102.45C135.139 99.7973 128.22 97.6469 119.685 97.6469C111.15 97.6469 104.23 99.7973 104.23 102.45C104.23 105.103 111.15 107.253 119.685 107.253Z" fill="white"/>
<path d="M106.513 98.1089V103.37C106.513 103.68 106.685 103.962 106.954 104.083C109.741 105.34 114.403 106.164 119.685 106.164C124.966 106.164 129.628 105.341 132.415 104.083C132.683 103.962 132.856 103.68 132.856 103.37V98.1089C132.856 97.6802 132.529 97.3326 132.126 97.3326H107.243C106.84 97.3326 106.513 97.6802 106.513 98.1089Z" fill="#FFE30B"/>
<path d="M119.685 104.482C128.22 104.482 135.139 102.332 135.139 99.6787C135.139 97.026 128.22 94.8755 119.685 94.8755C111.15 94.8755 104.23 97.026 104.23 99.6787C104.23 102.332 111.15 104.482 119.685 104.482Z" fill="#073856"/>
<path d="M135.139 92.8829H104.23V99.6788H135.139V92.8829Z" fill="#073856"/>
<path d="M104.23 92.8831C104.23 93.8042 105.065 94.6644 106.512 95.3958C109.231 96.7684 114.113 97.685 119.685 97.685C125.254 97.685 130.136 96.7706 132.855 95.3958C134.303 94.6643 135.139 93.8042 135.139 92.8831C135.139 92.7521 135.122 92.6235 135.088 92.4948C134.891 91.7205 134.099 90.998 132.855 90.3704C130.136 88.9955 125.254 88.079 119.685 88.079C114.113 88.079 109.231 88.9955 106.512 90.3704C105.27 90.998 104.479 91.7205 104.281 92.4948C104.247 92.6235 104.23 92.7522 104.23 92.8831Z" fill="white"/>
<path d="M106.513 89.5938V94.6192C109.232 95.9941 114.113 96.9107 119.685 96.9107C125.255 96.9107 130.137 95.9941 132.856 94.6192V89.5938C131.654 88.9865 130.033 88.4673 128.114 88.079C125.69 87.5868 122.795 87.3024 119.685 87.3024C116.576 87.3024 113.681 87.5868 111.257 88.079C109.338 88.4673 107.714 88.9865 106.513 89.5938Z" fill="white"/>
<path d="M106.513 88.7713V94.1712C106.513 94.4482 106.666 94.6987 106.906 94.8079C109.687 96.0774 114.372 96.9107 119.685 96.9107C124.996 96.9107 129.681 96.0774 132.463 94.8079C132.702 94.6987 132.856 94.4482 132.856 94.1712V88.7713C132.856 88.389 132.564 88.079 132.205 88.079H107.164C106.804 88.079 106.513 88.389 106.513 88.7713Z" fill="#FFE30B"/>
<path d="M119.685 94.9876C128.22 94.9876 135.139 92.8371 135.139 90.1843C135.139 87.5316 128.22 85.3811 119.685 85.3811C111.15 85.3811 104.23 87.5316 104.23 90.1843C104.23 92.8371 111.15 94.9876 119.685 94.9876Z" fill="#073856"/>
<path d="M135.139 83.3884H104.23V90.1843H135.139V83.3884Z" fill="#073856"/>
<path d="M119.685 88.1917C128.22 88.1917 135.139 86.0412 135.139 83.3885C135.139 80.7357 128.22 78.5852 119.685 78.5852C111.15 78.5852 104.23 80.7357 104.23 83.3885C104.23 86.0412 111.15 88.1917 119.685 88.1917Z" fill="#E5F0F8"/>
<path d="M113.129 90.5853C113.358 90.3423 113.358 89.9484 113.129 89.7055C112.901 89.4625 112.531 89.4625 112.302 89.7055C112.074 89.9484 112.074 90.3423 112.302 90.5853C112.531 90.8282 112.901 90.8282 113.129 90.5853Z" fill="#BBDBF3"/>
<path d="M108.768 89.9455C109.092 89.9455 109.353 89.667 109.353 89.3234C109.353 88.9798 109.092 88.7013 108.768 88.7013C108.445 88.7013 108.184 88.9798 108.184 89.3234C108.184 89.667 108.445 89.9455 108.768 89.9455Z" fill="#BBDBF3"/>
<path d="M110.743 90.4593C111.066 90.4593 111.328 90.1808 111.328 89.8372C111.328 89.4936 111.066 89.2151 110.743 89.2151C110.42 89.2151 110.158 89.4936 110.158 89.8372C110.158 90.1808 110.42 90.4593 110.743 90.4593Z" fill="#FFE30B"/>
<path d="M112.718 99.7129C113.041 99.7129 113.303 99.4343 113.303 99.0907C113.303 98.7472 113.041 98.4686 112.718 98.4686C112.395 98.4686 112.133 98.7472 112.133 99.0907C112.133 99.4343 112.395 99.7129 112.718 99.7129Z" fill="#BBDBF3"/>
<path d="M108.902 98.8616C109.217 98.7827 109.412 98.4476 109.337 98.1132C109.263 97.7788 108.948 97.5718 108.634 97.6507C108.319 97.7297 108.125 98.0648 108.199 98.3991C108.273 98.7335 108.588 98.9406 108.902 98.8616Z" fill="white"/>
<path d="M111.288 99.0202C111.412 98.7027 111.27 98.3388 110.971 98.2073C110.673 98.0758 110.331 98.2266 110.207 98.544C110.084 98.8614 110.225 99.2254 110.524 99.3569C110.822 99.4883 111.164 99.3376 111.288 99.0202Z" fill="#BBDBF3"/>
<path d="M112.852 109.305C113.166 109.227 113.361 108.891 113.287 108.557C113.212 108.223 112.897 108.016 112.583 108.095C112.269 108.174 112.074 108.509 112.148 108.843C112.222 109.177 112.537 109.384 112.852 109.305Z" fill="white"/>
<path d="M108.768 108.514C109.092 108.514 109.353 108.235 109.353 107.892C109.353 107.548 109.092 107.27 108.768 107.27C108.445 107.27 108.184 107.548 108.184 107.892C108.184 108.235 108.445 108.514 108.768 108.514Z" fill="#FFE30B"/>
<path d="M110.743 109.028C111.066 109.028 111.328 108.749 111.328 108.405C111.328 108.062 111.066 107.783 110.743 107.783C110.42 107.783 110.158 108.062 110.158 108.405C110.158 108.749 110.42 109.028 110.743 109.028Z" fill="#BBDBF3"/>
<path d="M112.718 118.958C113.041 118.958 113.303 118.68 113.303 118.336C113.303 117.993 113.041 117.714 112.718 117.714C112.395 117.714 112.133 117.993 112.133 118.336C112.133 118.68 112.395 118.958 112.718 118.958Z" fill="#FFE30B"/>
<path d="M108.768 118.137C109.092 118.137 109.353 117.858 109.353 117.514C109.353 117.171 109.092 116.892 108.768 116.892C108.445 116.892 108.184 117.171 108.184 117.514C108.184 117.858 108.445 118.137 108.768 118.137Z" fill="#BBDBF3"/>
<path d="M110.743 118.65C111.066 118.65 111.328 118.372 111.328 118.028C111.328 117.685 111.066 117.406 110.743 117.406C110.42 117.406 110.158 117.685 110.158 118.028C110.158 118.372 110.42 118.65 110.743 118.65Z" fill="#FFE30B"/>
<path d="M26.4825 5.00793L17.2365 0.0511475C16.3322 0.423816 15.3222 0.632194 14.2568 0.632194C13.1914 0.632194 12.1813 0.423816 11.277 0.0511475L2.03105 5.00793C2.03105 5.00793 0.773946 21.479 14.2568 26.4457C27.7396 21.4789 26.4825 5.00793 26.4825 5.00793Z" fill="#FFE30B"/>
<path d="M24.6778 6.10076L16.925 1.94575C16.0774 2.24015 15.1821 2.39016 14.2568 2.39016V2.39038C13.332 2.39029 12.4368 2.24077 11.5895 1.94531L3.83782 6.10093C3.80567 7.13195 3.81092 10.2426 4.81087 13.6767C5.51912 16.1092 6.58128 18.2266 7.96774 19.9701C9.61235 22.0383 11.7271 23.5872 14.2568 24.5775L14.2568 24.5776C14.257 24.5776 14.2573 24.5777 14.2575 24.5778C14.2575 24.5778 14.2575 24.5778 14.2575 24.5778V24.5773C16.7876 23.5871 18.9026 22.0388 20.5472 19.9699C21.9335 18.227 22.9951 16.1093 23.7034 13.6762C24.7048 10.2419 24.7095 7.13121 24.6778 6.10076Z" fill="#FFE30B"/>
<path d="M18.8331 7.32532L13.921 14.7399L13.8779 14.805L11.445 11.5674L9.83301 12.4987L13.1244 16.8764L13.9319 16.8563L14.7651 16.8361L20.5025 8.1746L18.8331 7.32532Z" fill="#6ADB6A"/>
<path d="M138.015 127.283H9.11475C8.30438 127.283 7.64746 126.584 7.64746 125.722V125.421C7.64746 124.559 8.30438 123.861 9.11475 123.861H138.015C138.826 123.861 139.482 124.559 139.482 125.421V125.722C139.482 126.584 138.826 127.283 138.015 127.283Z" fill="#073856"/>
<path d="M13.7 75.918L9.72949 75.8462L9.93752 71.4119L10.0369 69.2913L10.0425 69.1857L13.1492 67.7966L13.2503 69.2953L13.3253 70.3875L13.7 75.918Z" fill="#FDAE97"/>
<path d="M5.93467 89.6443L4.26502 104.345C4.21259 104.717 4.21427 105.103 4.28553 105.493C4.62099 107.328 6.29194 108.527 8.01769 108.17C9.74344 107.814 10.404 106.396 10.7139 104.289C11.3089 100.243 13.3871 88.1035 13.3871 88.1035L5.93467 89.6443Z" fill="#088CFC"/>
<path d="M16.7611 88.9044L10.6279 89.3421L10.6585 96.5694L11.3864 97.7145L12.0612 104.682L18.2695 104.154L16.7611 88.9044Z" fill="#088CFC"/>
<path d="M0.889376 85.622L0.910194 85.6367C1.82512 86.2842 3.0719 86.0179 3.68067 85.0446L8.64125 77.1152C9.25002 76.1421 8.9996 74.8159 8.0846 74.1684L8.06378 74.1537C7.14886 73.5062 5.90208 73.7726 5.2933 74.7458L0.332723 82.6752C-0.276051 83.6483 -0.0256214 84.9744 0.889376 85.622Z" fill="#283770"/>
<path d="M27.3212 75.5303L25.6867 77.8571L23.5586 76.4791L25.9651 73.9677L27.7022 74.307L27.3212 75.5303Z" fill="#E89780"/>
<path d="M19.6144 86.0554C20.6058 86.6686 21.8393 86.4076 22.3456 85.4755L24.8511 80.6055L25.7348 78.8793L26.6597 77.0824L25.1217 75.9518L24.0297 75.1497L23.9243 75.0706L22.8019 76.842L21.7711 78.4645L18.738 83.2423C18.2317 84.1744 18.6229 85.4421 19.6144 86.0554Z" fill="#283770"/>
<path d="M11.766 74.0635C13.2228 74.0977 13.8433 73.3275 14.0304 73.0249L13.4856 72.7631L9.88301 72.5703L9.4502 72.7177C9.63289 73.0793 10.2776 74.0287 11.766 74.0635Z" fill="#FDAE97"/>
<path d="M16.9361 83.7042L17.0224 90.0411H5.80762L5.94056 74.0653L9.78906 72.5862C9.83215 72.6703 9.87892 72.7582 9.9364 72.8499L9.95078 72.8691C10.1592 73.1519 10.558 73.4195 11.6756 73.4462C12.6063 73.4691 13.0626 73.3315 13.3214 73.1519L13.325 73.148C13.4651 73.0487 13.5478 72.9302 13.6125 72.8232L17.2454 73.6755L17.001 81.7399L16.9361 83.7042Z" fill="#283770"/>
<path d="M3.10254 119.267L8.87158 119.262L10.6106 104.983C10.7921 103.122 9.52383 101.456 7.77657 101.26C6.02701 101.067 4.46283 102.416 4.27868 104.274C4.26215 104.436 4.26016 104.593 4.26575 104.753L3.26151 117.287L3.10254 119.267Z" fill="#088CFC"/>
<path d="M21.6242 86.1486C20.6298 86.6877 19.4016 86.2635 18.8948 85.2059L14.8216 76.7064C14.3148 75.6488 14.7136 74.3424 15.708 73.8033C16.7024 73.2642 17.9306 73.6884 18.4374 74.746L22.5106 83.2455C23.0174 84.3031 22.6186 85.6096 21.6242 86.1486Z" fill="#283770"/>
<path d="M53.3752 71.7981C60.2797 65.0104 60.704 53.5191 54.3223 46.1753C47.9414 38.8359 37.1369 38.3802 30.2324 45.1679C23.332 51.955 22.9084 63.4505 29.2853 70.7907C35.6669 78.1344 46.4748 78.585 53.3752 71.7981ZM30.495 69.5957C24.7223 62.9536 25.1071 52.5953 31.3551 46.4502C37.6006 40.3146 47.3391 40.7238 53.1118 47.3658C58.8838 54.0035 58.5005 64.3705 52.2558 70.5106C46.007 76.6514 36.2677 76.2377 30.495 69.5957Z" fill="#93ACBF"/>
<path d="M52.2559 70.5107C58.5006 64.3706 58.8839 54.0036 53.1119 47.3659C47.3392 40.7239 37.6006 40.3147 31.3552 46.4504C25.1071 52.5954 24.7224 62.9537 30.4951 69.5958C36.2678 76.2379 46.0071 76.6515 52.2559 70.5107ZM31.1116 68.9918C25.6536 62.7122 26.0159 52.9164 31.9232 47.106C37.8279 41.3052 47.0376 41.6903 52.4956 47.9701C57.9535 54.2497 57.592 64.0499 51.688 69.855C45.7799 75.661 36.5695 75.2714 31.1116 68.9918Z" fill="#586773"/>
<path d="M31.1117 68.9917C25.6537 62.7121 26.016 52.9163 31.9233 47.1059C37.828 41.3051 47.0377 41.6902 52.4957 47.9699C57.9536 54.2496 57.5921 64.0497 51.6882 69.8549C45.7801 75.6609 36.5696 75.2713 31.1117 68.9917Z" fill="#E5F0F8"/>
<path d="M24.0654 77.1741L23.4189 76.4695L30.1653 69.8406L30.7711 70.5846L24.0654 77.1741Z" fill="#93ACBF"/>
<path d="M8.89558 91.3574C8.89236 91.355 8.89191 91.352 8.88869 91.3496C8.47509 90.8766 8.50279 90.1362 8.95023 89.6957L22.9377 75.9456L23.419 76.4694L23.7144 76.7892L24.0656 77.1741L24.475 77.6207L10.4435 91.4151C10.0012 91.8516 9.31148 91.8269 8.89558 91.3574Z" fill="#586773"/>
<path d="M8.89551 91.3574C8.8978 91.354 8.90286 91.35 8.90783 91.3461L23.7143 76.7892L24.0656 77.1741L24.4749 77.6207L10.4435 91.4151C10.0012 91.8516 9.31141 91.8269 8.89551 91.3574Z" fill="#93ACBF"/>
<mask id="mask0_2365_26973" style="mask-type:luminance" maskUnits="userSpaceOnUse" x="27" y="42" width="30" height="32">
<path d="M52.4964 68.9917C57.9543 62.7121 57.5921 52.9163 51.6848 47.1059C45.7801 41.3051 36.5703 41.6902 31.1124 47.9699C25.6544 54.2496 26.0159 64.0497 31.9199 69.8549C37.8279 75.6609 47.0384 75.2713 52.4964 68.9917Z" fill="white"/>
</mask>
<g mask="url(#mask0_2365_26973)">
<path d="M31.6006 50.6071V50.2689L33.4359 49.2125V49.729L32.21 50.438L33.4359 51.1471V51.6635L31.6006 50.6071Z" fill="#6ADB6A"/>
<path d="M41.4159 50.0393H34.1172V50.8368H41.4159V50.0393Z" fill="#6ADB6A"/>
<path d="M38.8993 53.1212H31.6006V53.9188H38.8993V53.1212Z" fill="#6ADB6A"/>
<path d="M40.454 55.2683H33.1553V56.0659H40.454V55.2683Z" fill="#6ADB6A"/>
<path d="M40.454 61.1776H33.1553V61.9752H40.454V61.1776Z" fill="#6ADB6A"/>
<path d="M40.454 63.0056H33.1553V63.8032H40.454V63.0056Z" fill="#6ADB6A"/>
<path d="M57.6755 57.3132H35.6641V58.1108H57.6755V57.3132Z" fill="#6ADB6A"/>
<path d="M65.0695 64.9478H35.6641V65.7453H65.0695V64.9478Z" fill="#6ADB6A"/>
<path d="M65.0695 71.0624H35.6641V71.8599H65.0695V71.0624Z" fill="#6ADB6A"/>
<path d="M41.9623 73.14H35.6641V73.9376H41.9623V73.14Z" fill="#6ADB6A"/>
<path d="M65.0695 66.8998H35.6641V67.6973H65.0695V66.8998Z" fill="#6ADB6A"/>
<path d="M51.5737 68.8516H35.6641V69.6491H51.5737V68.8516Z" fill="#6ADB6A"/>
<path d="M42.4135 59.1512H35.6641V59.9488H42.4135V59.1512Z" fill="#6ADB6A"/>
</g>
<mask id="mask1_2365_26973" style="mask-type:luminance" maskUnits="userSpaceOnUse" x="27" y="42" width="30" height="32">
<path d="M52.4964 68.9917C57.9543 62.7121 57.5921 52.9163 51.6848 47.1059C45.7801 41.3051 36.5703 41.6902 31.1124 47.9699C25.6544 54.2496 26.0159 64.0497 31.9199 69.8549C37.8279 75.6609 47.0384 75.2713 52.4964 68.9917Z" fill="white"/>
</mask>
<g mask="url(#mask1_2365_26973)">
<path d="M66.6014 47.3235H38.4297V48.121H66.6014V47.3235Z" fill="#6ADB6A"/>
<path d="M41.9623 43.4153H35.6641V44.2128H41.9623V43.4153Z" fill="#6ADB6A"/>
<path d="M41.9623 45.3916H35.6641V46.1891H41.9623V45.3916Z" fill="#6ADB6A"/>
</g>
<path d="M13.3824 66.4189C13.3824 66.4189 13.4138 64.9579 13.0375 64.9579C12.6611 64.9579 12.7727 66.4154 13.3824 66.4189Z" fill="#332B27"/>
<path d="M13.3208 73.1517L11.675 75.9188L9.9502 72.8689C10.1586 73.1517 10.5574 73.4193 11.675 73.446C12.6058 73.4689 13.0621 73.3314 13.3208 73.1517Z" fill="#D6EAFF"/>
<path d="M14.854 86.6511C14.8302 86.837 13.7847 87.0759 13.0085 86.988C12.3507 86.9143 10.8514 86.5708 10.4102 86.4662L10.5756 84.2349C10.8408 84.2211 11.1326 84.1957 11.3805 84.1406C11.9914 84.0104 13.69 83.8577 13.7087 84.12C13.7292 84.3798 12.5832 84.7342 12.6758 84.8368C12.7683 84.9395 13.6653 84.8874 14.0447 84.8327C14.4265 84.7799 15.2239 84.5237 15.3796 84.6946C15.5378 84.8674 15.3652 85.1679 15.3652 85.1679C15.3652 85.1679 15.6598 85.0325 15.7056 85.2435C15.7514 85.4546 15.3426 85.7872 15.3426 85.7872C15.3426 85.7872 15.4967 85.6926 15.493 85.9379C15.4876 86.1859 14.7211 86.4576 14.7211 86.4576C14.7211 86.4576 14.8821 86.4643 14.854 86.6511Z" fill="#FDAE97"/>
<path d="M12.0386 104.425L13.5201 119.266H19.1877L18.279 104.344C18.2865 104.186 18.2445 104.011 18.2322 103.848C18.0769 101.984 16.6844 100.592 14.9321 100.755C13.1822 100.92 11.8858 102.561 12.0386 104.425Z" fill="#088CFC"/>
<path d="M10.9224 83.5169L8.91617 83.0872L7.09965 82.7006L2.25341 81.664C1.25024 81.5219 0.304172 82.3927 0.149721 83.6025C-0.00228101 84.8117 0.694815 85.9193 1.69852 86.0639L6.7573 86.4609L8.59548 86.6073L10.4952 86.7569L10.9224 83.5169Z" fill="#283770"/>
<path d="M13.435 72.0037L11.2031 70.2728L13.3255 70.3876L13.435 72.0037Z" fill="#EA9D85"/>
<path d="M13.1029 65.3375C13.1029 65.3375 13.4565 66.7059 13.7073 67.6767L13.9146 68.479C14.0784 69.113 14.1543 70.1022 13.5397 70.5158C12.9273 70.9288 11.929 70.9011 11.0952 70.3473C10.2608 69.7912 7.9701 66.858 9.63194 65.0413C11.296 63.224 12.9721 65.0236 13.1029 65.3375Z" fill="#FDAE97"/>
<path d="M9.90251 64.7769C9.90251 64.7769 10.5261 63.4686 11.0677 63.5662C11.6093 63.6639 11.0356 64.1716 11.0356 64.1716C11.0356 64.1716 12.8305 63.6691 13.4338 64.9091C14.0372 66.149 11.202 65.778 11.202 65.778C11.202 65.778 11.763 66.5214 11.202 66.5939C10.6409 66.6665 10.3838 66.4126 10.3838 66.4126C10.3838 66.4126 10.9437 67.5159 10.6316 67.8674C10.3195 68.2189 10.705 69.2147 11.0539 69.4979C11.4026 69.781 12.0305 69.6639 12.3179 69.4052C12.6052 69.1464 12.7888 69.0716 12.9677 69.0504C13.1467 69.0292 13.5699 69.1435 13.7525 69.1122C13.8647 69.093 14.0066 68.9692 14.0066 68.9692C14.0066 68.9692 14.1006 69.311 14.1071 69.4454C14.1209 69.7285 14.2528 70.9941 12.9034 71.0527C11.5541 71.1113 10.6339 70.4209 10.1658 69.3758L9.99374 70.1917C9.99374 70.1917 9.83057 69.2732 9.3591 68.8241C8.88763 68.375 8.29531 66.2953 9.14847 65.4948C9.14847 65.4948 8.41525 65.9411 8.50931 65.383C8.58049 64.9608 9.90251 64.7769 9.90251 64.7769Z" fill="#332B27"/>
<path d="M10.152 69.1318C10.3129 69.577 10.3229 69.8679 9.9943 70.0022C9.66573 70.1365 9.19434 69.9692 9.03346 69.5241C8.87258 69.079 9.00851 68.6092 9.33716 68.4749C9.66581 68.3405 9.99116 68.6867 10.152 69.1318Z" fill="#FDAE97"/>
<path d="M11.7807 67.6381C11.8187 67.7849 11.922 67.8827 12.0114 67.8566C12.1009 67.8306 12.1425 67.6904 12.1046 67.5436C12.0666 67.3969 11.9633 67.299 11.8738 67.3251C11.7843 67.3512 11.7426 67.4913 11.7807 67.6381Z" fill="#332B27"/>
<path d="M13.4532 67.1494C13.4911 67.2961 13.4495 67.4363 13.36 67.4624C13.2706 67.4885 13.1673 67.3906 13.1293 67.2439C13.0913 67.0971 13.133 66.957 13.2224 66.9309C13.3118 66.9047 13.4151 67.0026 13.4532 67.1494Z" fill="#332B27"/>
<path d="M12.289 68.5338C12.2813 68.6811 12.0515 68.7874 11.7758 68.7713C11.5 68.7551 11.2826 68.6227 11.2902 68.4754C11.2979 68.3281 11.5277 68.2218 11.8034 68.238C12.0792 68.2541 12.2965 68.3865 12.289 68.5338Z" fill="#E89780"/>
<path d="M13.7079 67.6769L13.8426 68.1985C13.6426 68.2847 13.4575 68.2734 13.3993 68.1671C13.3334 68.0405 13.4709 67.8216 13.7079 67.6769Z" fill="#E89780"/>
<path d="M9.41549 69.3143C9.65375 69.318 9.83354 69.4049 9.83354 69.4049C9.70717 68.9543 9.39941 68.9369 9.39941 68.9369" stroke="#EA9D85" stroke-width="1.3533" stroke-miterlimit="10" stroke-linecap="round" stroke-linejoin="round"/>
<path d="M12.4951 67.5393L13.0429 68.3891C13.0984 68.4752 13.0916 68.5904 13.0265 68.6685L12.9256 68.7894L12.8223 68.9133" stroke="#332B27" stroke-width="0.8657" stroke-miterlimit="10"/>
<path d="M11.501 67.3981C11.501 67.3981 11.7166 67.0011 12.0884 67.0004" stroke="#332B27" stroke-width="0.8657" stroke-miterlimit="10"/>
<path d="M13.4859 66.6493C13.4859 66.6493 13.1878 66.4795 12.9043 66.735" stroke="#332B27" stroke-width="0.8657" stroke-miterlimit="10"/>
<path d="M13.4768 72.6278L11.6758 73.4475L12.6222 74.6703L13.6997 72.8632L13.4768 72.6278Z" fill="white"/>
<path d="M9.88899 72.4465L11.6761 73.4475L10.8238 74.6188L9.72949 72.6111L9.88899 72.4465Z" fill="white"/>
<path d="M14.3384 121.586L14.1865 119.266H18.4329L18.5987 121.586H14.3384Z" fill="#FDAE97"/>
<path d="M18.508 120.317L14.1865 119.266H18.4329L18.508 120.317Z" fill="#EA9D85"/>
<path d="M8.03566 121.586L8.19852 119.263L3.84909 119.266L3.77539 121.586H8.03566Z" fill="#FDAE97"/>
<path d="M27.6329 73.466L26.9688 73.3697C26.7904 73.3438 26.6157 73.4387 26.5314 73.6072L25.8862 74.8969C25.7511 75.167 25.901 75.4988 26.1843 75.5567L26.8988 75.7028C27.0915 75.7422 27.2849 75.6381 27.3685 75.45L27.9632 74.1105C28.0867 73.8327 27.9201 73.5077 27.6329 73.466Z" fill="#FDAE97"/>
<path d="M8.10722 120.558L3.84863 119.266L8.19807 119.263L8.10722 120.558Z" fill="#EA9D85"/>
<path d="M9.51855 73.0793L11.676 76.7703L13.8047 73.3175" stroke="white" stroke-width="0.7042" stroke-miterlimit="10" stroke-linecap="round" stroke-linejoin="round"/>
<path d="M5.38677 82.3177L4.56445 82.1584" stroke="#322A28" stroke-width="0.7042" stroke-miterlimit="10" stroke-linecap="round" stroke-linejoin="round"/>
<path d="M5.87793 81.5321L6.38032 80.729" stroke="#322A28" stroke-width="0.7042" stroke-miterlimit="10" stroke-linecap="round" stroke-linejoin="round"/>
<path d="M20.6911 123.537H14.4208L14.41 123.266L14.333 121.468H18.5999C19.1281 121.468 19.6168 121.798 19.9905 122.142C20.2995 122.436 20.5294 122.822 20.6373 123.266C20.6624 123.354 20.6804 123.445 20.6911 123.537Z" fill="#322A28"/>
<path d="M20.6913 123.536H14.4209L14.4102 123.266H20.6374C20.6625 123.353 20.6806 123.445 20.6913 123.536Z" fill="#FFF1F0"/>
<path d="M18.7277 121.838C18.7277 121.838 18.1858 120.826 17.8207 121.226C17.4558 121.626 18.7277 121.838 18.7277 121.838Z" stroke="#FFF1F0" stroke-width="1.0718" stroke-miterlimit="10" stroke-linecap="round" stroke-linejoin="round"/>
<path d="M18.5361 122.04L18.7269 121.838M18.7269 121.838C18.7269 121.838 19.2689 120.826 19.6339 121.226C19.9989 121.626 18.7269 121.838 18.7269 121.838Z" stroke="#FFF1F0" stroke-width="1.0718" stroke-miterlimit="10" stroke-linecap="round" stroke-linejoin="round"/>
<path d="M18.8732 122.039L18.7275 121.838" stroke="#FFF1F0" stroke-width="1.0718" stroke-miterlimit="10" stroke-linecap="round" stroke-linejoin="round"/>
<path d="M1.71484 123.537H7.98519L7.99599 123.266L8.07299 121.468H3.80613C3.27788 121.468 2.78919 121.798 2.41554 122.142C2.10648 122.436 1.87656 122.822 1.76872 123.266C1.74362 123.354 1.72564 123.445 1.71484 123.537Z" fill="#322A28"/>
<path d="M1.71484 123.536H7.98519L7.99599 123.266H1.76872C1.74362 123.353 1.72564 123.445 1.71484 123.536Z" fill="#FFF1F0"/>
<path d="M3.67773 121.899C3.67773 121.899 4.21969 120.887 4.58477 121.287C4.9497 121.687 3.67773 121.899 3.67773 121.899Z" stroke="#FFF1F0" stroke-width="1.0718" stroke-miterlimit="10" stroke-linecap="round" stroke-linejoin="round"/>
<path d="M3.86867 122.101L3.67786 121.899M3.67786 121.899C3.67786 121.899 3.13591 120.887 2.7709 121.287C2.4059 121.687 3.67786 121.899 3.67786 121.899Z" stroke="#FFF1F0" stroke-width="1.0718" stroke-miterlimit="10" stroke-linecap="round" stroke-linejoin="round"/>
<path d="M3.53223 122.1L3.67787 121.899" stroke="#FFF1F0" stroke-width="1.0718" stroke-miterlimit="10" stroke-linecap="round" stroke-linejoin="round"/>
<path d="M18.5984 117.448H14.5654" stroke="white" stroke-width="1.5524" stroke-miterlimit="10"/>
<path d="M7.80834 117.448H3.77539" stroke="white" stroke-width="1.5524" stroke-miterlimit="10"/>
<path d="M5.80762 82.4161L10.9229 83.5169" stroke="#322A28" stroke-width="0.7042" stroke-miterlimit="10" stroke-linecap="round" stroke-linejoin="round"/>
<path d="M5.80762 86.3872L8.59593 86.6069" stroke="#322A28" stroke-width="0.7042" stroke-miterlimit="10" stroke-linecap="round" stroke-linejoin="round"/>
<path d="M12.675 69.6348C12.6914 69.7666 12.8744 69.8497 13.0837 69.8204C13.2931 69.7911 13.4494 69.6604 13.433 69.5285C13.4167 69.3967 13.2337 69.3136 13.0243 69.3429C12.815 69.3723 12.6586 69.503 12.675 69.6348Z" fill="#FDAE97"/>
<path d="M74.7544 89.7681C74.7544 90.8502 74.7544 90.8502 74.7544 90.8502V119.665C74.7544 120.45 74.1559 121.086 73.4177 121.086H25.8325C25.0943 121.086 24.4961 120.45 24.4961 119.665V89.7677C24.4961 88.9827 25.0946 88.3466 25.8325 88.3466H73.4177C74.1559 88.3462 74.7544 88.9834 74.7544 89.7681Z" fill="white"/>
<path d="M45.492 106.706C45.492 109.134 44.6287 111.346 43.2111 113.015C41.5899 114.924 39.2448 116.123 36.636 116.123C31.7442 116.123 27.7793 111.908 27.7793 106.706C27.7793 105.416 28.0237 104.186 28.4652 103.066L36.636 106.706L36.2166 97.2997C36.3539 97.291 36.4949 97.2885 36.636 97.2885C41.5267 97.2881 45.492 101.505 45.492 106.706Z" fill="#FFE30B"/>
<path d="M35.3354 95.7455C32.6888 95.8756 30.3478 97.2407 28.8071 99.3117C28.3113 99.9775 27.8987 100.717 27.585 101.512L35.7551 105.151L35.3354 95.7455Z" fill="#297EEC"/>
<path d="M66.8118 100.22H65.5957V101.513H66.8118V100.22Z" fill="#073856"/>
<path d="M71.9899 101.028H67.6324C67.6253 101.028 67.6191 101.022 67.6191 101.014V100.719C67.6191 100.711 67.6253 100.705 67.6324 100.705H71.9899C71.9974 100.705 72.0031 100.711 72.0031 100.719V101.014C72.0031 101.022 71.997 101.028 71.9899 101.028Z" fill="#297EEC"/>
<path d="M66.8118 97.9153H65.5957V99.2085H66.8118V97.9153Z" fill="#297EEC"/>
<path d="M71.9899 98.7235H67.6324C67.6253 98.7235 67.6191 98.7174 67.6191 98.7094V98.4143C67.6191 98.4064 67.6253 98.4003 67.6324 98.4003H71.9899C71.9974 98.4003 72.0031 98.4068 72.0031 98.4143V98.7094C72.0031 98.717 71.997 98.7235 71.9899 98.7235Z" fill="#297EEC"/>
<path d="M66.8118 102.524H65.5957V103.817H66.8118V102.524Z" fill="#FFE30B"/>
<path d="M71.9899 103.332H67.6324C67.6253 103.332 67.6191 103.326 67.6191 103.318V103.023C67.6191 103.015 67.6253 103.009 67.6324 103.009H71.9899C71.9974 103.009 72.0031 103.015 72.0031 103.023V103.318C72.0031 103.326 71.997 103.332 71.9899 103.332Z" fill="#297EEC"/>
<path d="M71.8507 107.87H65.748C65.664 107.87 65.5957 107.798 65.5957 107.709C65.5957 107.619 65.6637 107.547 65.748 107.547H71.8507C71.935 107.547 72.0029 107.619 72.0029 107.709C72.0033 107.798 71.935 107.87 71.8507 107.87Z" fill="#297EEC"/>
<path d="M71.8507 109.2H65.748C65.664 109.2 65.5957 109.128 65.5957 109.039C65.5957 108.949 65.6637 108.877 65.748 108.877H71.8507C71.935 108.877 72.0029 108.949 72.0029 109.039C72.0033 109.128 71.935 109.2 71.8507 109.2Z" fill="#297EEC"/>
<path d="M71.8507 110.53H65.748C65.664 110.53 65.5957 110.457 65.5957 110.368C65.5957 110.279 65.6637 110.207 65.748 110.207H71.8507C71.935 110.207 72.0029 110.279 72.0029 110.368C72.0033 110.457 71.935 110.53 71.8507 110.53Z" fill="#297EEC"/>
<path d="M71.8507 111.86H65.748C65.664 111.86 65.5957 111.787 65.5957 111.698C65.5957 111.608 65.6637 111.536 65.748 111.536H71.8507C71.935 111.536 72.0029 111.608 72.0029 111.698C72.0033 111.787 71.935 111.86 71.8507 111.86Z" fill="#297EEC"/>
<path d="M71.8507 113.189H65.748C65.664 113.189 65.5957 113.117 65.5957 113.028C65.5957 112.938 65.6637 112.866 65.748 112.866H71.8507C71.935 112.866 72.0029 112.938 72.0029 113.028C72.0033 113.117 71.935 113.189 71.8507 113.189Z" fill="#297EEC"/>
<path d="M71.8507 114.52H65.748C65.664 114.52 65.5957 114.447 65.5957 114.358C65.5957 114.269 65.6637 114.196 65.748 114.196H71.8507C71.935 114.196 72.0029 114.269 72.0029 114.358C72.0033 114.447 71.935 114.52 71.8507 114.52Z" fill="#297EEC"/>
<path d="M71.8507 115.849H65.748C65.664 115.849 65.5957 115.777 65.5957 115.688C65.5957 115.598 65.6637 115.526 65.748 115.526H71.8507C71.935 115.526 72.0029 115.598 72.0029 115.688C72.0033 115.777 71.935 115.849 71.8507 115.849Z" fill="#297EEC"/>
<path d="M74.7544 89.7682C74.7544 90.8503 74.7544 90.8503 74.7544 90.8503V92.2628H24.4961V89.7675C24.4961 88.9824 25.0946 88.3463 25.8325 88.3463H73.4177C74.1559 88.3463 74.7544 88.9835 74.7544 89.7682Z" fill="#184785"/>
<path d="M69.4592 90.3049C69.4592 90.6685 69.1819 90.9634 68.8399 90.9634C68.498 90.9634 68.2207 90.6688 68.2207 90.3049C68.2207 89.9409 68.4977 89.6464 68.8399 89.6464C69.1819 89.6464 69.4592 89.9409 69.4592 90.3049Z" fill="#297EEC"/>
<path d="M71.466 90.3049C71.466 90.6685 71.1887 90.9634 70.8468 90.9634C70.5049 90.9634 70.2275 90.6688 70.2275 90.3049C70.2275 89.9409 70.5049 89.6464 70.8468 89.6464C71.189 89.6464 71.466 89.9409 71.466 90.3049Z" fill="#073856"/>
<path d="M73.3879 90.3049C73.3879 90.6685 73.1106 90.9634 72.7687 90.9634C72.4267 90.9634 72.1494 90.6688 72.1494 90.3049C72.1494 89.9409 72.4267 89.6464 72.7687 89.6464C73.1106 89.6464 73.3879 89.9409 73.3879 90.3049Z" fill="#FFE30B"/>
<path d="M45.4922 106.706C45.4922 109.133 44.6289 111.345 43.2113 113.015L36.6362 106.706L36.2168 97.2995C36.3541 97.2909 36.4952 97.2883 36.6362 97.2883C41.5269 97.288 45.4922 101.504 45.4922 106.706Z" fill="#073856"/>
<path d="M56.9348 104.326H54.1152V117.174H56.9348V104.326Z" fill="#297EEC"/>
<path d="M54.1152 113.786C55.1141 113.458 56.0508 112.87 56.9348 112.237V117.175H54.1152V113.786Z" fill="#FFE30B"/>
<path d="M52.3264 107.897H49.5068V117.175H52.3264V107.897Z" fill="#297EEC"/>
<path d="M51.8044 114.003C51.9801 114.03 52.1541 114.047 52.3264 114.054V117.174H49.5068V114.083C50.0054 113.909 50.7355 113.837 51.8044 114.003Z" fill="#FFE30B"/>
<path d="M61.5432 100.488H58.7236V117.175H61.5432V100.488Z" fill="#297EEC"/>
<path d="M61.5432 109.633V117.175H58.7236V110.914C59.7256 110.19 60.6595 109.629 61.5432 109.633Z" fill="#FFE30B"/>
<path d="M61.4291 95.6237L58.8845 96.2041L59.5677 96.9169L55.6721 101.141L54.3051 99.7143L49.4705 104.956C49.2859 105.156 49.289 105.477 49.4769 105.673C49.6649 105.869 49.967 105.866 50.1516 105.666L54.318 101.149L55.685 102.575L60.2488 97.6274L60.9319 98.3402L61.4291 95.6237Z" fill="#073856"/>
<path d="M107.817 42.6876L107.836 39.6615L104.498 40.1854L107.817 42.6876Z" fill="#2D628C"/>
<path d="M89.7544 28.3329L89.4531 27.3939C89.4531 27.3939 88.9106 26.4962 88.7488 26.1487C88.6575 25.9528 88.3607 25.4526 88.284 25.3906C88.2233 25.3415 88.0465 25.3602 88.0309 25.4379C88.0107 25.5388 88.1603 26.0977 88.2148 26.3179C88.2667 26.5272 88.4223 27.1551 88.4223 27.1551C88.4223 27.1551 87.2819 26.0531 86.9199 25.661C86.7162 25.4403 86.1468 24.7688 85.9931 24.9096C85.876 25.0168 86.3865 25.7729 86.559 26.0334C86.7175 26.2729 87.1866 26.9961 87.1866 26.9961C87.1866 26.9961 86.391 26.1161 86.1258 25.8228C85.9329 25.6094 85.433 24.8963 85.2568 25.0487C85.0824 25.1996 85.6228 25.864 85.7798 26.1071C86.0014 26.4502 86.6662 27.4798 86.6662 27.4798C86.6662 27.4798 85.8144 26.5793 85.5304 26.2792C85.3733 26.1131 84.9656 25.5536 84.81 25.7081C84.6516 25.8655 85.1312 26.3725 85.2696 26.5622C85.5066 26.8871 86.2176 27.8621 86.2176 27.8621C86.2176 27.8621 85.5854 27.2292 85.3746 27.0182C85.2845 26.9281 85.0082 26.668 84.9277 26.7646C84.8182 26.8962 85.1666 27.2765 85.2702 27.4175L86.1263 28.583C86.1956 28.6773 86.2748 28.7624 86.3622 28.8362L87.8123 30.3847L89.7544 28.3329Z" fill="#FDAE97"/>
<path d="M101.009 39.1638L89.711 46.7735C89.387 46.9177 89.0791 47.1186 88.8043 47.3842C87.5105 48.6344 87.4146 50.7636 88.5901 52.1397C89.7655 53.5158 91.7673 53.6178 93.061 52.3675L106.085 45.1062L101.009 39.1638Z" fill="#0775EF"/>
<path d="M87.7811 50.3452C87.7605 50.1899 87.7461 50.0326 87.7461 49.8713C87.7461 48.0121 89.1631 46.5049 90.9111 46.5049C92.6591 46.5049 94.0762 48.0121 94.0762 49.8713L93.889 64.9036H88.6223L87.7811 50.3452Z" fill="#0775EF"/>
<path d="M106.997 45.0409L99.9213 54.0435C98.6722 55.6326 96.4277 55.8459 94.9336 54.5173C93.4396 53.1887 93.239 50.8014 94.4882 49.2123L101.564 40.2096C102.813 38.6204 105.058 38.4072 106.552 39.7358C108.046 41.0645 108.247 43.4517 106.997 45.0409Z" fill="#088CFC"/>
<path d="M101.208 24.7174L97.8604 26.3205L98.3219 40.7821L107.836 40.9388L109.278 26.0626L104.631 24.453L101.208 24.7174Z" fill="#E5F0F8"/>
<path d="M101.208 22.6288V24.8873C101.208 24.8873 101.335 25.375 102.414 25.3797C103.492 25.3821 104.631 24.6221 104.631 24.6221L104.297 19.6838L101.208 22.6288Z" fill="#FDAE97"/>
<path d="M101.207 24.5774L103.412 22.1423L101.207 22.1116V24.5774Z" fill="#E89780"/>
<path d="M100.304 18.0859C100.304 18.0859 100.304 19.4708 100.304 20.4533V21.2654C100.304 21.9069 100.473 22.8586 101.152 23.0788C101.828 23.2989 102.761 22.9983 103.411 22.2478C104.061 21.495 105.503 18.105 103.498 16.8526C101.49 15.6002 100.35 17.7545 100.304 18.0859Z" fill="#FDAE97"/>
<path d="M95.7649 37.8786C95.0577 38.4955 94.0381 38.4668 93.359 37.8586L87.4072 30.5327L88.2245 29.6168L89.7284 27.9265L89.9014 27.7295L96.0305 35.0696C96.6847 35.9193 96.5638 37.1827 95.7649 37.8786Z" fill="#8BC0BD"/>
<path d="M93.6504 51.2956C93.6504 49.4364 95.0675 47.9292 96.8154 47.9292C98.5634 47.9292 99.5228 48.7044 99.9041 50.5587C100.789 54.8634 102.646 66.328 102.646 66.328H97.162L93.6853 51.7695C93.6647 51.6142 93.6504 51.4569 93.6504 51.2956Z" fill="#088CFC"/>
<path d="M93.5631 37.9704C94.6099 38.6021 95.9525 38.2079 96.5463 37.0943L100.494 29.6917C101.088 28.5782 100.718 27.1503 99.6707 26.5186C98.6238 25.887 97.2813 26.2811 96.6875 27.3947L92.7394 34.7973C92.1455 35.9109 92.5161 37.3388 93.5631 37.9704Z" fill="#8BC0BD"/>
<path d="M103.29 16.735C103.29 16.735 100.863 15.5444 100.303 16.3264C99.7438 17.1084 100.676 17.3814 100.676 17.3814C100.676 17.3814 99.5187 17.236 99.5638 18.066C99.6088 18.8959 102.505 17.7627 102.505 17.7627C102.505 17.7627 101.544 18.2255 102.1 18.5927C102.655 18.9598 103.29 18.481 103.29 18.481C103.29 18.481 103.84 18.8158 103.75 20.3538C103.66 21.8918 104.523 22.2315 104.523 22.2315C104.523 22.2315 104.42 19.9014 104.843 19.2789C105.266 18.6565 104.645 16.3458 103.29 16.735Z" fill="#322A28"/>
<path d="M103.614 20.7102C103.379 21.1024 103.316 21.3785 103.605 21.5752C103.895 21.7718 104.376 21.7097 104.612 21.3174C104.847 20.9252 104.804 20.4478 104.514 20.2512C104.224 20.0545 103.85 20.318 103.614 20.7102Z" fill="#FDAE97"/>
<path d="M104.37 20.6803C104.37 20.6803 104.073 20.6331 103.869 21.0378C103.869 21.0378 104.057 20.992 104.286 21.0378" stroke="#E89780" stroke-width="0.6968" stroke-miterlimit="10"/>
<path d="M102.107 19.8869C102.107 20.0354 102.034 20.1559 101.943 20.1559C101.853 20.1559 101.779 20.0354 101.779 19.8869C101.779 19.7383 101.853 19.6179 101.943 19.6179C102.034 19.6179 102.107 19.7383 102.107 19.8869Z" fill="#2C3447"/>
<path d="M102.366 19.44C102.366 19.44 102.02 19.1837 101.691 19.3462" stroke="#2C3447" stroke-width="0.8724" stroke-miterlimit="10"/>
<path d="M100.415 19.8869C100.415 20.0354 100.488 20.1559 100.579 20.1559C100.669 20.1559 100.743 20.0354 100.743 19.8869C100.743 19.7383 100.669 19.6179 100.579 19.6179C100.488 19.6179 100.415 19.7383 100.415 19.8869Z" fill="#2C3447"/>
<path d="M100.263 19.4252C100.263 19.4252 100.502 19.1836 100.831 19.3461" stroke="#2C3447" stroke-width="0.8724" stroke-miterlimit="10"/>
<path d="M111.342 38.8194C112.507 38.498 113.213 37.2212 112.911 35.982L110.902 27.7437C110.6 26.5044 109.4 25.7534 108.235 26.0748C107.07 26.3962 106.363 27.673 106.666 28.9123L108.674 37.1505C108.976 38.3897 110.177 39.1407 111.342 38.8194Z" fill="#8BC0BD"/>
<path d="M101.846 20.87C101.89 21.0068 102.132 21.0437 102.387 20.9527C102.643 20.8617 102.815 20.6771 102.772 20.5403C102.729 20.4036 102.487 20.3666 102.231 20.4576C101.976 20.5486 101.803 20.7333 101.846 20.87Z" fill="#E89780"/>
<path d="M100.304 20.4532V20.9802C100.513 21.0062 100.684 20.9448 100.713 20.829C100.744 20.6919 100.562 20.5241 100.304 20.4532Z" fill="#E89780"/>
<path d="M93.2573 67.1578L93.3665 64.9037H89.0892L89.0215 67.1578H93.2573Z" fill="#FDAE97"/>
<path d="M89.0498 66.2142L93.3665 64.9037H89.0892L89.0498 66.2142Z" fill="#E89780"/>
<path d="M102.673 68.5822L102.323 66.328H98.1484L98.6796 68.5822H102.673Z" fill="#FDAE97"/>
<path d="M101.824 25.781H102.599L102.667 25.9371L102.31 26.2192H102.005L101.751 25.8891L101.824 25.781Z" fill="#F74242"/>
<path d="M98.4036 67.411L102.323 66.328H98.1484L98.4036 67.411Z" fill="#E89780"/>
<path d="M104.617 24.4271L102.183 25.3797L102.626 26.4606L104.725 24.6646L104.617 24.4271Z" fill="white"/>
<path d="M101.208 24.6895L101.091 24.9428L101.722 26.3584L102.183 25.3797L101.208 24.6895Z" fill="white"/>
<path d="M102.005 26.22L100.852 35.7429L101.751 36.9759L102.92 35.8576L102.31 26.22H102.005Z" fill="#F74242"/>
<path d="M107.111 30.9149L108.392 36.5437" stroke="#2C3447" stroke-width="0.8724" stroke-miterlimit="10"/>
<path d="M98.11 34.3322L98.001 30.9149" stroke="#2C3447" stroke-width="0.8724" stroke-miterlimit="10"/>
<path d="M102.673 68.5822L103.048 70.2252H97.4456C97.2642 69.3842 97.8649 68.5822 98.6761 68.5822H98.6796H102.673Z" fill="#403534"/>
<path d="M93.2569 67.1577V68.9467H87.3887L87.3959 68.7992C87.4406 67.8792 88.155 67.1577 89.021 67.1577H93.2569Z" fill="#403534"/>
<path d="M88.9375 67.5136C88.9375 67.5136 88.8098 66.9192 88.4944 67.0805C88.179 67.2419 88.9175 67.5348 88.9175 67.5348L88.4784 67.8575" stroke="white" stroke-width="0.4642" stroke-miterlimit="10" stroke-linecap="round" stroke-linejoin="round"/>
<path d="M88.9375 67.5136C88.9375 67.5136 89.0652 66.9192 89.3807 67.0805C89.696 67.2419 88.9575 67.5348 88.9575 67.5348L89.3966 67.8575" stroke="white" stroke-width="0.4642" stroke-miterlimit="10" stroke-linecap="round" stroke-linejoin="round"/>
<path d="M98.7197 69.0053C98.7197 69.0053 98.592 68.4109 98.2766 68.5722C97.9612 68.7336 98.6998 69.0265 98.6998 69.0265L98.2607 69.3492" stroke="white" stroke-width="0.4642" stroke-miterlimit="10" stroke-linecap="round" stroke-linejoin="round"/>
<path d="M98.7197 69.0053C98.7197 69.0053 98.8475 68.4109 99.1628 68.5722C99.4781 68.7336 98.7396 69.0265 98.7396 69.0265L99.1787 69.3492" stroke="white" stroke-width="0.4642" stroke-miterlimit="10" stroke-linecap="round" stroke-linejoin="round"/>
<path d="M100.855 24.8904C100.855 24.8904 100.626 27.4372 100.255 31.2831C99.8841 35.129 99.9085 41.1318 98.7407 42.2837C98.7407 42.2837 97.5375 42.3789 95.1016 43.1427C95.1016 43.1427 95.7827 40.7073 96.617 39.3285C97.4512 37.9497 97.8599 26.3205 97.8599 26.3205L100.855 24.8904Z" fill="#8BC0BD"/>
<path d="M100.657 27.0421L100.374 30.0407L101.273 29.2259L101.208 27.1007L100.657 27.0421Z" fill="#E5F0F8"/>
<path d="M105.459 24.74C105.459 24.74 104.56 28.8644 104.119 32.6889C103.679 36.5135 103.828 40.212 102.695 42.4578C102.695 42.4578 107.24 43.3274 107.229 45.277C107.229 45.277 108.51 43.7742 108.522 41.7158C108.533 39.6575 109.277 26.0625 109.277 26.0625L105.459 24.74Z" fill="#8BC0BD"/>
<path d="M90.5344 46.44H100.833L98.1451 38.2374H87.8467L90.5344 46.44Z" fill="#A5BBD6"/>
<path d="M100.72 46.0417L104.088 42.8735H94.1269L90.4219 46.0417H100.72Z" fill="#89A5C7"/>
<path d="M90.7288 46.2585H101.027L98.3394 38.0559H88.041L90.7288 46.2585Z" fill="#A5BBD6"/>
<path d="M88.0412 38.0559L87.8467 38.2374H98.1451L100.833 46.44L101.027 46.2585L98.3396 38.0559H88.0412Z" fill="#89A5C7"/>
<path d="M104.089 42.8735L104.201 43.2717L100.834 46.44L100.703 46.0417L104.089 42.8735Z" fill="#586773"/>
<path d="M93.9055 42.9695C94.536 42.9695 95.0472 42.7288 95.0472 42.4319C95.0472 42.1351 94.536 41.8944 93.9055 41.8944C93.2749 41.8944 92.7637 42.1351 92.7637 42.4319C92.7637 42.7288 93.2749 42.9695 93.9055 42.9695Z" fill="#89A5C7"/>
<path d="M102.005 40.3779L103.53 43.1641L103.522 43.1698C102.822 43.5616 101.355 45.0589 100.825 45.6118C100.703 45.7346 100.528 45.7664 100.377 45.6901L98.9371 44.9792C98.7104 44.8687 98.5414 44.6612 98.4696 44.4103L98.1539 43.3245C98.1245 43.2137 98.2179 43.1098 98.3213 43.1379L99.14 43.3818C99.2573 43.4133 99.3818 43.356 99.4318 43.2389L99.8974 42.2115L98.5707 43.0442C98.4949 43.0902 98.3968 43.0711 98.3432 42.9931L98.2701 42.8818C98.2165 42.8039 98.2281 42.6953 98.2979 42.6322L100.396 40.822L101.935 40.4331C101.935 40.433 101.959 40.413 102.005 40.3779Z" fill="#FDAE97"/>
<path d="M112.568 35.6502C113.212 36.6825 113.035 38.0272 112.175 38.6306L103.641 43.834L101.525 39.9648L109.436 34.7588C110.296 34.1554 111.926 34.6131 112.568 35.6502Z" fill="#8BC0BD"/>
<path d="M103.626 38.5828L108.277 35.5219L107.268 31.598" stroke="#322A28" stroke-width="1.2004" stroke-miterlimit="10"/>
<path d="M40.4994 16.8189C41.7314 18.674 44.0262 19.2369 45.8864 18.2721L50.4592 25.1587L51.5812 24.3158L47.0089 17.4301C48.4908 15.8897 48.7558 13.4016 47.5218 11.5434C46.1531 9.48223 43.4698 8.98304 41.532 10.4388C39.5943 11.8946 39.1308 14.7577 40.4994 16.8189ZM46.7588 12.1166C47.8246 13.7217 47.462 15.9626 45.9529 17.0963C44.4353 18.2364 42.337 17.8442 41.2712 16.2391C40.1993 14.6249 40.5594 12.3996 42.0771 11.2595C43.5862 10.1258 45.6869 10.5025 46.7588 12.1166Z" fill="white"/>
<path d="M83.1326 15.0377H51.9761C51.1096 15.0377 50.4072 14.625 50.4072 14.1159V4.67576C50.4072 4.16664 51.1096 3.75391 51.9761 3.75391H83.1326C83.999 3.75391 84.7014 4.16664 84.7014 4.67576V14.1159C84.7014 14.625 83.999 15.0377 83.1326 15.0377Z" fill="#088CFC"/>
<path d="M140.909 76.0688H114.615C113.759 76.0688 113.064 75.6822 113.064 75.2052V64.7433C113.064 64.2663 113.759 63.8796 114.615 63.8796H140.909C141.765 63.8796 142.459 64.2663 142.459 64.7433V75.2052C142.459 75.6822 141.765 76.0688 140.909 76.0688Z" fill="#FFE30B"/>
<path d="M150.273 29.3913H120.98C120.026 29.3913 119.253 29.0086 119.253 28.5365V18.181C119.253 17.7089 120.026 17.3262 120.98 17.3262H150.273C151.227 17.3262 152 17.7089 152 18.181V28.5365C152 29.0087 151.227 29.3913 150.273 29.3913Z" fill="#FF712F"/>
<path d="M66.1331 35.0734H65.7281C65.6662 34.8018 65.5654 34.5459 65.4322 34.3138L65.7187 34.0091C65.8203 33.9012 65.8199 33.7259 65.7187 33.6175L65.2558 33.1251C65.1541 33.0171 64.9889 33.0171 64.8878 33.1251L64.6014 33.4298C64.3828 33.2879 64.1426 33.181 63.8867 33.1155V32.6844C63.8867 32.5316 63.7704 32.4077 63.6267 32.4077H62.9721C62.8283 32.4077 62.7116 32.5316 62.7116 32.6844V33.1155C62.4562 33.181 62.2157 33.2879 61.9974 33.4298L61.711 33.1251C61.6095 33.0171 61.4446 33.0171 61.3429 33.1251L60.8796 33.6175C60.7781 33.7257 60.7781 33.9012 60.8796 34.0091L61.1664 34.3138C61.0328 34.5459 60.932 34.8018 60.8708 35.0734H60.4653C60.3216 35.0734 60.2051 35.1973 60.2051 35.35V36.0463C60.2051 36.1989 60.3216 36.323 60.4653 36.323H60.8708C60.9322 36.5948 61.0326 36.8506 61.1664 37.0826L60.8796 37.3873C60.7781 37.4953 60.7781 37.6708 60.8796 37.7787L61.3429 38.2712C61.4446 38.3793 61.6095 38.3793 61.711 38.2712L61.9974 37.9665C62.2156 38.1085 62.4562 38.2155 62.7116 38.281V38.712C62.7116 38.8648 62.8283 38.9887 62.9721 38.9887H63.6267C63.7704 38.9887 63.8867 38.8648 63.8867 38.712V38.281C64.1426 38.2155 64.383 38.1085 64.6014 37.9665L64.8878 38.2712C64.9889 38.3793 65.1541 38.3793 65.2558 38.2712L65.7187 37.7787C65.8199 37.6708 65.8199 37.4953 65.7187 37.3873L65.4322 37.0826C65.5654 36.8506 65.6662 36.5948 65.7281 36.323H66.1331C66.2768 36.323 66.3935 36.1989 66.3935 36.0463V35.35C66.3937 35.1975 66.2768 35.0734 66.1331 35.0734ZM63.2993 37.4506C62.3892 37.4506 61.6515 36.6663 61.6515 35.6985C61.6515 34.7306 62.3892 33.9463 63.2993 33.9463C64.209 33.9463 64.9469 34.7308 64.9469 35.6985C64.9469 36.6661 64.209 37.4506 63.2993 37.4506Z" fill="#EBAF54"/>
<path d="M83.137 31.7982H82.3417C82.3012 31.4784 82.2425 31.1647 82.1656 30.8592L82.8981 30.5325C83.169 30.4119 83.2965 30.0801 83.1828 29.7922L82.8521 28.9532C82.7383 28.6651 82.4265 28.5294 82.1558 28.6504L81.4225 28.9772C81.2796 28.7206 81.1241 28.4733 80.955 28.2373L81.5171 27.6391C81.7254 27.4183 81.7254 27.0602 81.5171 26.8392L80.9127 26.1958C80.705 25.9749 80.3678 25.9747 80.1603 26.1958L79.5975 26.794C79.359 26.6009 79.1087 26.4242 78.8481 26.2639L79.1492 25.4809C79.2604 25.1918 79.1298 24.8613 78.8582 24.7432L78.066 24.3984C77.7945 24.2801 77.4835 24.4188 77.3725 24.7079L77.0721 25.4883C76.8036 25.4145 76.5285 25.3593 76.2486 25.3192V24.473C76.2486 24.1608 76.0105 23.9073 75.7166 23.9073H74.8613C74.5674 23.9073 74.3291 24.1608 74.3291 24.473V25.3192C74.0286 25.3624 73.7336 25.4246 73.4465 25.5062L73.1391 24.7275C73.0258 24.4394 72.7136 24.3036 72.4429 24.4245L71.6542 24.7764C71.3829 24.8974 71.2554 25.2286 71.369 25.5169L71.6765 26.2966C71.4352 26.4479 71.2029 26.6139 70.9806 26.7938L70.4182 26.1956C70.2103 25.9745 69.8738 25.9747 69.6662 26.1956L69.0608 26.839C68.8531 27.0598 68.8531 27.4178 69.0608 27.6389L69.6237 28.2371C69.4421 28.4905 69.2755 28.7572 69.1252 29.0343L68.3891 28.7139C68.1171 28.5956 67.8066 28.7343 67.6954 29.0234L67.371 29.8653C67.2601 30.1545 67.3901 30.4848 67.6622 30.6033L68.3959 30.9225C68.3269 31.208 68.2747 31.5007 68.2372 31.7982H67.4411C67.1475 31.7982 66.9092 32.0517 66.9092 32.3639V33.2737C66.9092 33.586 67.1475 33.8394 67.4411 33.8394H68.2372C68.2773 34.1592 68.336 34.4725 68.4129 34.7784L67.6808 35.1051C67.4097 35.226 67.2822 35.5575 67.396 35.8456L67.7268 36.6846C67.8404 36.9727 68.1522 37.1084 68.4229 36.9876L69.1562 36.6607C69.2987 36.9172 69.4546 37.1643 69.6231 37.4005L69.061 37.9987C68.8533 38.2196 68.8533 38.5778 69.061 38.7989L69.6662 39.4423C69.874 39.6631 70.2105 39.6631 70.4184 39.4423L70.9808 38.8442C71.2196 39.0373 71.4702 39.2141 71.7308 39.3742L71.4295 40.1571C71.3186 40.4462 71.4489 40.7767 71.7205 40.895L72.5123 41.2394C72.7842 41.3577 73.0952 41.2195 73.2064 40.9301L73.5064 40.1497C73.7751 40.2235 74.0503 40.2787 74.3297 40.3189V41.1652C74.3297 41.4775 74.568 41.7309 74.8619 41.7309H75.7172C76.0111 41.7309 76.2491 41.4777 76.2491 41.1652V40.3182C76.5499 40.2752 76.8445 40.213 77.1324 40.1312L77.4396 40.91C77.5533 41.1982 77.8651 41.3338 78.1358 41.2129L78.9245 40.861C79.1954 40.7404 79.3231 40.4086 79.2095 40.1207L78.902 39.3408C79.1431 39.1893 79.3758 39.0237 79.5977 38.8438L80.1605 39.4418C80.368 39.6627 80.7052 39.6627 80.9129 39.4418L81.5173 38.7984C81.7256 38.5774 81.7256 38.2193 81.5173 37.9983L80.9552 37.4003C81.137 37.1467 81.3032 36.8805 81.4535 36.6033L82.1895 36.9233C82.462 37.0418 82.7724 36.9034 82.8837 36.6142L83.2079 35.7719C83.3192 35.4827 83.189 35.1524 82.9169 35.0343L82.183 34.7149C82.2522 34.4294 82.3042 34.1367 82.3419 33.8392H83.1372C83.4316 33.8392 83.6695 33.5857 83.6695 33.2735V32.3637C83.6693 32.0517 83.4314 31.7982 83.137 31.7982ZM75.2896 38.8812C72.1404 38.8812 69.5885 36.1671 69.5885 32.8188C69.5885 29.4705 72.1406 26.7564 75.2896 26.7564C78.4381 26.7564 80.9904 29.4705 80.9904 32.8188C80.9904 36.1671 78.4379 38.8812 75.2896 38.8812Z" fill="#283770"/>
</svg>
