<svg width="174" height="124" viewBox="0 0 174 124" fill="none" xmlns="http://www.w3.org/2000/svg">
<path d="M34.3293 122.254C27.5757 122.254 -1.02588 99.3688 9.28622 77.4785C18.2668 58.4145 37.6912 86.2029 31.7517 47.2794C29.2591 30.9437 47.7346 12.8993 66.0023 23.5184C76.3171 29.5143 94.2512 34.1708 100.135 22.4818C112.887 -2.85354 149.955 -1.39482 160.879 24.813C172.577 52.8785 146.701 50.7316 156.469 65.3029C162.05 73.6295 165.776 73.1059 171.553 86.581C178.317 102.355 169.982 122.471 154.202 122.471L34.3293 122.254Z" fill="#F5F8FF"/>
<path d="M67.9528 66.9922L66.8042 66.5833C66.2307 66.3791 65.841 65.8284 65.8713 65.2207C65.9118 64.4146 65.8633 63.6143 65.7325 62.8326C65.6301 62.2227 65.9589 61.6212 66.5177 61.3561L67.7224 60.784C68.423 60.4512 68.7211 59.6135 68.3883 58.9129L67.673 57.407C67.3402 56.7063 66.5025 56.4082 65.8019 56.741L64.5269 57.3469C63.9712 57.6107 63.299 57.5017 62.88 57.0515C62.3079 56.4376 61.6628 55.8837 60.951 55.406C60.4278 55.0545 60.2254 54.381 60.4367 53.7871L60.798 52.7723C61.0582 52.0418 60.6765 51.2384 59.946 50.9786L58.3752 50.4194C57.6447 50.1592 56.8413 50.5409 56.5815 51.2713L56.1161 52.5784C55.9128 53.1496 55.3665 53.5121 54.7602 53.5113C54.0697 53.5099 53.386 53.5735 52.7164 53.6981C52.127 53.8075 51.5295 53.5562 51.2235 53.0406L50.271 51.4377C49.8746 50.7709 49.0133 50.5515 48.3465 50.9475L46.9131 51.7989C46.2462 52.1953 46.0269 53.0566 46.4233 53.7235L47.164 54.9704C47.4923 55.5234 47.4074 56.2325 46.9465 56.6814C46.5127 57.1031 46.1115 57.5631 45.7475 58.0578C45.3868 58.5485 44.7368 58.7296 44.1634 58.5254L43.0143 58.1166C42.2838 57.8563 41.4804 58.238 41.2205 58.9685L40.6613 60.5393C40.4011 61.2698 40.7828 62.0732 41.5137 62.333L42.6548 62.7392C43.2318 62.9447 43.6251 63.4982 43.5953 64.1099C43.5726 64.5712 43.5793 65.0307 43.6135 65.4858C43.6629 66.1358 43.2452 66.7297 42.6214 66.9188L41.6779 67.2048C40.9358 67.4299 40.5163 68.2138 40.7414 68.9563L41.225 70.552C41.4497 71.2941 42.234 71.7136 42.9764 71.4885L44.4338 71.0467C44.9988 70.8754 45.6007 71.0836 45.9646 71.5485C46.474 72.1985 47.0577 72.7955 47.709 73.324C48.1792 73.7057 48.3745 74.3312 48.1712 74.902L47.7054 76.2103C47.4452 76.9408 47.8269 77.7442 48.5573 78.004L50.1282 78.5632C50.8587 78.8235 51.6621 78.4418 51.9219 77.7109L52.2831 76.6961C52.4945 76.1018 53.0772 75.7081 53.7049 75.7663C54.5542 75.8451 55.3995 75.8242 56.2265 75.7112C56.8337 75.6284 57.4214 75.9674 57.6843 76.5213L58.3005 77.8181C58.6332 78.5188 59.4709 78.8168 60.1716 78.4841L61.6775 77.7687C62.3781 77.4359 62.6762 76.5983 62.3434 75.8976L61.766 74.6818C61.5004 74.1226 61.6259 73.4481 62.0916 73.0402C62.6913 72.5148 63.2385 71.9213 63.7199 71.2669C64.0802 70.7762 64.7311 70.5961 65.3045 70.8003L66.4523 71.2087C67.1832 71.4689 67.9862 71.0872 68.246 70.3567L68.8052 68.7859C69.065 68.0554 68.6837 67.252 67.9528 66.9922ZM60.499 66.6198C59.3686 69.7962 55.8773 71.4547 52.7009 70.3242C49.5245 69.1938 47.8665 65.7025 48.9969 62.5266C50.1273 59.3502 53.6186 57.6917 56.7946 58.8221C59.971 59.9525 61.6294 63.4434 60.499 66.6198Z" fill="#E1ECFA"/>
<path d="M157.553 7.86188C159 6.41453 159 4.06789 157.553 2.62054C156.105 1.17319 153.759 1.17319 152.311 2.62055C150.864 4.0679 150.864 6.41452 152.311 7.86188C153.759 9.30923 156.105 9.30923 157.553 7.86188Z" fill="#E1ECFA"/>
<path d="M133.21 14.9627C133.679 12.9703 132.444 10.9753 130.451 10.5068C128.459 10.0382 126.464 11.2736 125.995 13.266C125.527 15.2585 126.762 17.2535 128.754 17.722C130.747 18.1905 132.742 16.9552 133.21 14.9627Z" fill="#E1ECFA"/>
<path d="M154.934 5.57288L130.287 13.5587L102.015 31.4772" stroke="#E1ECFA" stroke-width="5" stroke-miterlimit="10"/>
<path d="M160.276 122.47H150.161C148.099 122.47 146.429 120.8 146.429 118.739V19.5697C146.429 17.5086 148.099 15.8381 150.161 15.8381H160.276C162.337 15.8381 164.008 17.5091 164.008 19.5697V118.738C164.008 120.8 162.337 122.47 160.276 122.47Z" fill="#E1ECFA"/>
<path d="M136.177 122.999H126.061C124 122.999 122.33 121.328 122.33 119.268V35.6034C122.33 33.5423 124 31.8718 126.061 31.8718H136.177C138.238 31.8718 139.908 33.5428 139.908 35.6034V119.267C139.909 121.328 138.238 122.999 136.177 122.999Z" fill="#E1ECFA"/>
<path d="M112.724 122.699H102.609C100.547 122.699 98.877 121.028 98.877 118.968V50.1156C98.877 48.0545 100.548 46.384 102.609 46.384H112.724C114.785 46.384 116.456 48.055 116.456 50.1156V118.967C116.456 121.028 114.785 122.699 112.724 122.699Z" fill="#E1ECFA"/>
<path d="M83.6124 55.3779C66.7002 55.9695 51.4385 63.0203 40.1895 74.1269C39.4461 74.861 39.4662 76.0688 40.2318 76.7797L67.3542 101.978C68.0331 102.609 69.0847 102.644 69.785 102.037C73.7092 98.6322 78.7642 96.5778 84.2597 96.0693C85.1993 95.9825 85.9262 95.2111 85.9262 94.2676V57.6222C85.9262 56.3561 84.8777 55.3334 83.6124 55.3779Z" fill="#407BFF"/>
<path d="M20.9938 122.541H58.3834C59.3603 122.541 60.1566 121.775 60.2153 120.8C60.5704 114.917 62.0976 110.403 65.5627 106.22C66.1775 105.478 66.0885 104.379 65.3816 103.724L38.5208 78.8204C37.7694 78.1237 36.5923 78.1767 35.9054 78.9378C25.878 90.0472 19.6142 104.619 19.156 120.652C19.1267 121.685 19.959 122.541 20.9938 122.541Z" fill="#283770" fill-opacity="0.89"/>
<path d="M88.249 57.2018V94.2506C88.249 95.2049 88.9817 95.9869 89.9315 96.079C95.5249 96.6227 100.337 98.6886 104.401 102.101C105.107 102.693 106.149 102.65 106.825 102.023L133.968 76.8037C134.734 76.0928 134.754 74.8854 134.011 74.1514C122.666 62.9384 107.235 55.8529 90.1428 55.364C89.1072 55.3347 88.249 56.1661 88.249 57.2018Z" fill="#283770"/>
<path d="M154.761 120.638C154.304 104.619 148.05 90.0585 138.037 78.9528C137.35 78.1907 136.171 78.1378 135.42 78.8362L108.571 103.781C107.877 104.426 107.785 105.496 108.366 106.244C111.901 110.799 113.103 114.483 113.753 120.881C113.849 121.817 114.638 122.528 115.578 122.528H152.924C153.959 122.529 154.791 121.673 154.761 120.638Z" fill="#5C7DFA"/>
<path d="M86.8852 98.0422C74.0249 98.0422 63.4792 107.951 62.4658 120.55C62.3795 121.622 63.223 122.541 64.2978 122.541H109.473C110.547 122.541 111.39 121.622 111.305 120.55C110.291 107.951 99.7451 98.0422 86.8852 98.0422Z" fill="white"/>
<path d="M89.6041 109.592C88.7607 108.199 87.2428 107.467 85.7227 107.557L73.4037 85.8573C73.3441 85.7523 73.2743 85.6536 73.1955 85.5624L63.2909 74.1123C63.1206 73.9152 62.8051 74.1074 62.9026 74.3494L68.5168 88.309C68.5595 88.4144 68.6116 88.5159 68.6725 88.6119L82.2144 109.84C81.5587 111.108 81.5542 112.676 82.3483 113.987C83.5619 115.991 86.1697 116.631 88.1734 115.418C90.1767 114.204 90.8173 111.596 89.6041 109.592Z" fill="#315782"/>
<path d="M149.733 116.661L149.83 119.816L153.188 119.26L153.175 116.644L149.733 116.661Z" fill="#E1B39D"/>
<path d="M153.188 119.26C149.717 119.207 148.581 119.203 144.226 121.389C143.639 121.714 143.88 122.612 144.551 122.608L152.553 122.569C153.713 122.636 153.188 119.26 153.188 119.26Z" fill="#2F526E"/>
<path d="M165.271 116.447L165.352 119.614L168.721 119.871L168.705 116.629L165.271 116.447Z" fill="#E1B39D"/>
<path d="M166.886 119.247C166.448 119.249 165.053 119.341 164.331 120.058C163.398 120.984 163.522 122.587 163.901 122.589L169.837 122.609C170.124 122.631 170.029 121.226 169.366 120.332C168.768 119.527 168.271 119.24 166.886 119.247Z" fill="#315780"/>
<path d="M165.879 77.4916C166.236 79.9286 167.784 91.0388 167.612 99.7356C167.612 99.7618 167.613 99.7876 167.616 99.8138L169.638 117.147C169.68 117.511 169.397 117.83 169.03 117.83H165.088C164.803 117.83 164.556 117.634 164.492 117.357C163.808 114.412 160.16 98.6554 159.887 96.5654C159.587 94.2583 159.286 91.1487 159.286 91.1487L156.783 101.359C156.78 101.373 156.777 101.387 156.774 101.401L153.994 117.546C153.943 117.843 153.683 118.058 153.381 118.054L149.246 117.989C148.895 117.983 148.621 117.684 148.646 117.333L149.955 98.9962C149.957 98.9806 149.958 98.9646 149.961 98.949L153.284 76.7589C153.331 76.4444 153.611 76.2184 153.929 76.2388L165.313 76.9733C165.601 76.9924 165.837 77.206 165.879 77.4916Z" fill="#315782"/>
<path d="M159.292 91.1487L157.735 78.772" stroke="#264154" stroke-width="0.5" stroke-miterlimit="10" stroke-linecap="round"/>
<path d="M158.285 90.1699L154.927 101.179L152.651 116.644" stroke="#264154" stroke-width="0.5" stroke-miterlimit="10" stroke-linecap="round"/>
<path d="M165.133 82.3574L166.246 99.6571L168.53 116.644" stroke="#264154" stroke-width="0.5" stroke-miterlimit="10" stroke-linecap="round"/>
<path d="M156.039 79.678C156.039 79.678 156.635 83.8647 158.285 83.8064" stroke="#264154" stroke-width="0.5" stroke-miterlimit="10" stroke-linecap="round"/>
<path d="M162.044 78.772C162.044 78.772 162.673 81.4826 164.618 83.8075" stroke="#264154" stroke-width="0.5" stroke-miterlimit="10" stroke-linecap="round"/>
<path d="M165.583 68.6426C165.574 68.4264 165.441 66.557 165.657 66.5446L169.104 67.0237C169.242 65.1895 168.633 56.4425 164.208 55.9923C161.052 55.6715 159.484 55.8904 157.008 55.9896C155.216 56.0617 153.554 56.9545 152.514 58.4159C151.218 60.2354 149.586 62.8161 149.072 64.8892C148.309 67.9722 151.655 69.3437 152.642 69.6765C152.803 69.7307 152.909 69.8798 152.91 70.0497L152.937 76.9501C152.939 77.2891 153.216 77.5622 153.555 77.5591L165.572 77.4404C165.788 77.4275 165.953 77.2437 165.945 77.028L165.583 68.6426Z" fill="#283770" fill-opacity="0.89"/>
<path d="M157.275 54.8882L157.266 56.2882C157.266 56.2882 157.597 58.2572 159.804 58.3146C162.011 58.3719 162.195 55.9625 162.195 55.9625L161.541 53.8143L161.542 51.4378L162.404 47.8L153.374 44.6926C153.374 44.6926 152.814 50.0302 153.374 51.8977C153.934 53.7649 155.343 55.6387 157.275 54.8882Z" fill="#E1B39D"/>
<path d="M153.152 46.1001C153.152 46.1001 156.516 45.1623 157.445 47.4058C158.373 49.6493 158.337 49.139 158.724 48.7097C159.11 48.2809 160.459 48.405 160.306 49.5844C160.111 51.0836 159.779 52.3377 161.542 53.8137C161.542 53.8137 161.499 51.6036 162.805 49.692C164.111 47.7804 163.928 43.4741 159.575 42.7596C155.222 42.0451 157.55 41.029 154.117 41.562C150.685 42.0954 150.902 45.9088 153.152 46.1001Z" fill="#315782"/>
<path d="M154.8 60.953L153.875 65.0343" stroke="#5C7DFA" stroke-width="0.5" stroke-miterlimit="10" stroke-linecap="round"/>
<path d="M144.272 61.5465L153.266 60.9539C153.468 60.9406 153.652 61.0709 153.706 61.2658L157.654 75.3544C157.728 75.6173 157.54 75.8816 157.267 75.898L148.259 76.4403C148.057 76.4523 147.875 76.3224 147.82 76.128L143.887 62.0897C143.814 61.8277 144 61.5647 144.272 61.5465Z" fill="#315782"/>
<path d="M165.205 65.105L165.361 67.5362L156.616 67.7177C156.616 67.7177 156.362 66.4262 155.647 65.8181C154.933 65.21 154.615 65.2585 154.571 65.4969C154.527 65.7354 155.266 66.5664 155.098 66.9881C155.026 68.042 151.592 65.3065 151.451 65.9969C151.142 66.2425 151.751 66.8867 151.751 66.8867C151.38 66.9156 151.028 67.5446 151.493 67.7884C151.109 67.9081 151.127 68.6964 151.526 68.7881C150.581 69.6756 153.884 71.7749 156.374 70.1276C156.374 70.1276 166.947 71.6504 167.784 70.9226C168.621 70.1947 168.652 66.1433 168.652 66.1433L165.205 65.105Z" fill="#E1B39D"/>
<path d="M164.214 59.0823L164.723 66.3951L169.103 67.0241C169.26 67.041 168.711 65.7567 168.665 65.6059L167.996 64.1293L164.214 59.0823Z" fill="#283770" fill-opacity="0.89"/>
<path d="M144.777 68.8431C144.614 68.3266 144.594 67.5654 145.097 67.2732C146.084 66.6988 146.318 66.4568 146.666 66.6512C147.01 66.8443 146.657 67.3497 146.657 67.3497C147.029 67.3337 147.454 67.9164 147.021 68.2141C147.418 68.2866 147.494 69.0718 147.11 69.2101C147.668 69.6203 147.064 70.5576 145.847 70.6457C145.032 70.7044 144.912 69.2755 144.777 68.8431Z" fill="#E1B39D"/>
<path d="M165.361 67.4427L164.214 61.0927" stroke="#5C7DFA" stroke-width="0.5" stroke-miterlimit="10" stroke-linecap="round"/>
<path d="M154.475 76.4411L164.618 76.2378" stroke="#5C7DFA" stroke-width="0.5" stroke-miterlimit="10" stroke-linecap="round"/>
<path d="M33.3697 108.493L31.9693 107.995C31.2704 107.746 30.7948 107.075 30.8322 106.334C30.8816 105.351 30.8224 104.375 30.6627 103.423C30.5381 102.679 30.9389 101.946 31.62 101.623L33.089 100.925C33.9432 100.519 34.3066 99.4983 33.9009 98.6442L33.0289 96.8082C32.6232 95.9541 31.6018 95.5906 30.7481 95.9963L29.1937 96.7348C28.5162 97.0564 27.6972 96.9239 27.186 96.3749C26.4889 95.6266 25.7024 94.9513 24.8344 94.3685C24.1965 93.9401 23.9496 93.1193 24.2076 92.3951L24.648 91.1583C24.9652 90.2677 24.4999 89.2886 23.6093 88.9714L21.6945 88.2898C20.8039 87.9726 19.8247 88.438 19.5076 89.3286L18.9403 90.9221C18.6925 91.6183 18.0261 92.0605 17.2872 92.0592C16.4455 92.0574 15.6118 92.1353 14.7959 92.287C14.077 92.4204 13.3492 92.1139 12.9755 91.4853L11.8144 89.5314C11.3313 88.7187 10.2809 88.4509 9.46816 88.934L7.72071 89.9723C6.90793 90.4555 6.64056 91.5058 7.12325 92.3186L8.02633 93.8387C8.42672 94.5127 8.32306 95.3775 7.76119 95.9242C7.23268 96.4385 6.74333 96.9991 6.29979 97.6018C5.86026 98.2002 5.0675 98.4208 4.36861 98.1722L2.96816 97.6739C2.07753 97.3567 1.09837 97.8221 0.781173 98.7127L0.0996307 100.627C-0.217562 101.518 0.247774 102.497 1.1384 102.814L2.52951 103.31C3.23285 103.56 3.71242 104.235 3.67595 104.98C3.64836 105.543 3.65637 106.103 3.69819 106.658C3.75825 107.45 3.24932 108.174 2.48859 108.405L1.33815 108.753C0.433284 109.027 -0.0778714 109.983 0.196169 110.888L0.786067 112.833C1.06011 113.738 2.01613 114.249 2.921 113.975L4.69781 113.437C5.38647 113.228 6.12006 113.482 6.56404 114.048C7.18464 114.841 7.89643 115.568 8.69097 116.213C9.26441 116.678 9.50197 117.441 9.25462 118.137L8.68697 119.732C8.36977 120.623 8.83511 121.602 9.72574 121.919L11.6405 122.6C12.5311 122.918 13.5103 122.452 13.8274 121.562L14.2679 120.324C14.5254 119.6 15.2359 119.12 16.0011 119.191C17.0363 119.287 18.0671 119.261 19.0751 119.124C19.8154 119.023 20.5316 119.436 20.8524 120.111L21.6033 121.692C22.0091 122.546 23.03 122.91 23.8842 122.504L25.7202 121.632C26.5743 121.226 26.9378 120.205 26.5321 119.351L25.8283 117.869C25.5044 117.188 25.6574 116.365 26.2251 115.868C26.9565 115.227 27.6233 114.504 28.2101 113.706C28.6496 113.108 29.4428 112.888 30.1417 113.137L31.5413 113.635C32.4319 113.952 33.4111 113.487 33.7283 112.596L34.4098 110.681C34.7257 109.79 34.2608 108.81 33.3697 108.493ZM24.2828 108.04C22.9046 111.912 18.6485 113.934 14.7764 112.556C10.9042 111.178 8.88271 106.921 10.2605 103.049C11.6382 99.1771 15.8948 97.1552 19.7665 98.5334C23.6391 99.9116 25.661 104.168 24.2828 108.04Z" fill="#FFE30B"/>
<path d="M54.7443 115.395L53.9596 115.01C53.5681 114.818 53.335 114.394 53.4066 113.964C53.5009 113.393 53.532 112.819 53.5022 112.252C53.4791 111.809 53.7625 111.408 54.1816 111.264L55.086 110.955C55.6118 110.775 55.8925 110.203 55.7128 109.677L55.3262 108.546C55.1465 108.02 54.5739 107.74 54.0481 107.919L53.0907 108.247C52.6734 108.389 52.2037 108.257 51.9421 107.902C51.5848 107.418 51.1707 106.972 50.7027 106.573C50.3588 106.28 50.2694 105.784 50.4682 105.379L50.8081 104.686C51.0528 104.186 50.8468 103.584 50.3477 103.338L49.2746 102.812C48.7755 102.567 48.1727 102.773 47.9276 103.273L47.4898 104.165C47.2985 104.556 46.8799 104.769 46.4484 104.719C45.9568 104.662 45.4648 104.652 44.9776 104.686C44.5488 104.715 44.1439 104.488 43.9678 104.096L43.4201 102.877C43.1924 102.37 42.5967 102.143 42.0895 102.371L40.9991 102.861C40.492 103.088 40.2656 103.684 40.4933 104.191L40.9191 105.14C41.1077 105.56 40.9894 106.058 40.625 106.34C40.282 106.606 39.9586 106.9 39.6592 107.223C39.3625 107.542 38.8847 107.619 38.4927 107.426L37.708 107.042C37.2089 106.797 36.6061 107.003 36.3609 107.502L35.8346 108.575C35.59 109.074 35.7959 109.677 36.2951 109.922L37.0745 110.304C37.4687 110.497 37.7035 110.924 37.6324 111.357C37.5785 111.684 37.5461 112.011 37.5332 112.338C37.5154 112.805 37.1693 113.194 36.7097 113.278L36.0144 113.405C35.4676 113.504 35.1051 114.028 35.2047 114.575L35.4191 115.751C35.5188 116.298 36.0428 116.661 36.59 116.561L37.664 116.365C38.0804 116.289 38.4919 116.487 38.7134 116.847C39.023 117.352 39.3901 117.824 39.8109 118.254C40.1147 118.564 40.2028 119.025 40.0115 119.416L39.5733 120.309C39.3287 120.809 39.5346 121.411 40.0338 121.656L41.1068 122.183C41.606 122.427 42.2092 122.221 42.4539 121.722L42.7938 121.029C42.9926 120.623 43.4397 120.39 43.8824 120.483C44.4807 120.608 45.0844 120.662 45.6823 120.649C46.1214 120.64 46.5124 120.929 46.6543 121.345L46.9875 122.319C47.1673 122.845 47.7398 123.125 48.2657 122.946L49.3965 122.559C49.9224 122.379 50.2031 121.807 50.0233 121.281L49.7111 120.368C49.5674 119.948 49.7115 119.478 50.0767 119.226C50.547 118.9 50.9847 118.522 51.3806 118.096C51.6774 117.776 52.1552 117.701 52.5471 117.892L53.3314 118.277C53.8306 118.521 54.4334 118.315 54.6785 117.816L55.2048 116.743C55.4494 116.243 55.2435 115.64 54.7443 115.395ZM49.4664 114.522C48.4027 116.692 45.7811 117.589 43.6114 116.525C41.4418 115.461 40.5454 112.84 41.6091 110.67C42.6728 108.5 45.2944 107.604 47.464 108.668C49.6336 109.731 50.5301 112.353 49.4664 114.522Z" fill="#315782"/>
<path d="M59.2978 41.8085C65.4681 39.3015 68.4378 32.2671 65.9308 26.0968C63.4237 19.9265 56.3893 16.9568 50.219 19.4638C44.0487 21.9708 41.079 29.0052 43.586 35.1756C46.093 41.3459 53.1274 44.3156 59.2978 41.8085Z" fill="#5EC676" fill-opacity="0.89"/>
<path d="M60.2659 42.8019C66.9864 39.7622 69.9702 31.8499 66.9305 25.1294C63.8907 18.4089 55.9784 15.425 49.2579 18.4648C42.5374 21.5045 39.5536 29.4168 42.5933 36.1373C45.6331 42.8578 53.5453 45.8417 60.2659 42.8019Z" stroke="#5EC676" stroke-opacity="0.89" stroke-width="0.5" stroke-miterlimit="10"/>
<path d="M51.7809 31.5012L49.5872 37.091C49.5187 37.2654 49.7065 37.4296 49.8702 37.3384L51.5371 36.4122C51.6474 36.3508 51.7867 36.4064 51.8245 36.5269L52.3948 38.338C52.4513 38.5173 52.7018 38.5262 52.7712 38.3514L54.7513 33.3372C54.786 33.2487 54.754 33.1481 54.6743 33.0965L52.0759 31.4065C51.9695 31.3375 51.8267 31.3833 51.7809 31.5012Z" stroke="white" stroke-miterlimit="10"/>
<path d="M57.7487 31.7503L59.9424 37.3401C60.0109 37.5145 59.8231 37.6787 59.6594 37.5875L57.9925 36.6613C57.8822 36.5999 57.7429 36.6555 57.7051 36.776L57.1348 38.5871C57.0783 38.7664 56.8278 38.7753 56.7584 38.6005L54.7783 33.5863C54.7436 33.4978 54.7756 33.3973 54.8553 33.3456L57.4537 31.6556C57.5601 31.5871 57.7024 31.6329 57.7487 31.7503Z" stroke="white" stroke-miterlimit="10"/>
<path d="M54.7644 34.3966C58.0366 34.3966 60.6892 31.7439 60.6892 28.4718C60.6892 25.1996 58.0366 22.547 54.7644 22.547C51.4922 22.547 48.8396 25.1996 48.8396 28.4718C48.8396 31.7439 51.4922 34.3966 54.7644 34.3966Z" fill="#5EC676" fill-opacity="0.89" stroke="white" stroke-miterlimit="10"/>
<path d="M57.562 28.4718C57.562 30.0164 56.3097 31.2687 54.7646 31.2687C53.2196 31.2687 51.9673 30.0164 51.9673 28.4718C51.9673 26.9267 53.2196 25.6744 54.7646 25.6744C56.3097 25.6744 57.562 26.9272 57.562 28.4718Z" fill="white" stroke="#5EC676" stroke-opacity="0.89" stroke-miterlimit="10"/>
<path d="M54.2452 29.5087C54.1357 29.6101 53.96 29.5798 53.8906 29.4482L53.4507 28.6162C53.3933 28.5077 53.4346 28.3729 53.5432 28.3155C53.6526 28.2581 53.7865 28.2995 53.8439 28.408L54.1513 28.9895L55.7319 27.5259C55.8218 27.4418 55.9628 27.4476 56.0465 27.5379C56.1301 27.6282 56.1248 27.7688 56.0345 27.852L54.2452 29.5087Z" fill="#5EC676" fill-opacity="0.89"/>
<path d="M24.0761 65.5699C30.2464 63.0629 33.2161 56.0285 30.7091 49.8581C28.2021 43.6878 21.1677 40.7181 14.9973 43.2251C8.827 45.7322 5.8573 52.7666 8.36433 58.9369C10.8714 65.1072 17.9058 68.0769 24.0761 65.5699Z" fill="#FF712F"/>
<path d="M23.6665 67.0998C30.6821 64.822 34.5228 57.2882 32.245 50.2727C29.9672 43.2571 22.4335 39.4164 15.4179 41.6942C8.40233 43.972 4.5616 51.5057 6.83939 58.5213C9.11718 65.5368 16.6509 69.3776 23.6665 67.0998Z" stroke="#FF712F" stroke-width="0.5" stroke-miterlimit="10"/>
<path d="M12.8214 55.3429C13.063 58.243 15.3812 60.5532 18.2853 60.7796C18.538 60.7992 18.7555 60.6003 18.7555 60.3468V55.3028C18.7555 55.0639 18.562 54.8709 18.3231 54.8709H13.2538C12.9998 54.8704 12.8 55.0893 12.8214 55.3429Z" stroke="white" stroke-miterlimit="10"/>
<path d="M19.543 55.3028V60.3468C19.543 60.6003 19.7605 60.7992 20.0132 60.7796C22.9173 60.5527 25.2355 58.2425 25.4771 55.3429C25.4984 55.0893 25.2987 54.8709 25.0447 54.8709H19.9754C19.7365 54.8704 19.543 55.0639 19.543 55.3028Z" stroke="white" stroke-miterlimit="10"/>
<path d="M26.2095 52.6754C25.968 49.7753 23.6497 47.4651 20.7456 47.2386C20.4929 47.2191 20.2754 47.4179 20.2754 47.6715V52.7154C20.2754 52.9543 20.4689 53.1479 20.7078 53.1479H25.7771C26.0311 53.1474 26.2304 52.9285 26.2095 52.6754Z" fill="white"/>
<path d="M18.7555 53.704V48.66C18.7555 48.4064 18.538 48.2076 18.2853 48.2272C15.3812 48.454 13.063 50.7643 12.8214 53.6639C12.8 53.9175 12.9998 54.1359 13.2542 54.1359H18.3236C18.562 54.1364 18.7555 53.9429 18.7555 53.704Z" stroke="white" stroke-miterlimit="10"/>
<path d="M1.29517 122.699H173.299" stroke="#315782" stroke-miterlimit="10" stroke-linecap="round"/>
</svg>
