<svg width="162" height="131" viewBox="0 0 162 131" fill="none" xmlns="http://www.w3.org/2000/svg">
<path d="M23.1592 130.283C23.1592 130.283 -27.9312 -2.29408 65.8251 6.68001C105.982 10.5236 104.251 28.7718 121.986 50.5899C133.482 64.7321 149.826 58.2332 158.112 70.5911C166.397 82.9491 156.661 118.186 153.245 130.283L23.1592 130.283Z" fill="#E5F0F8"/>
<path d="M156.23 121.301C156.23 122.386 155.431 123.264 154.444 123.264H1.78574C0.799297 123.264 0 122.386 0 121.301V121.073C0 119.988 0.799297 119.109 1.78574 119.109H154.444C155.43 119.109 156.23 119.988 156.23 121.073L156.23 121.301Z" fill="#073856"/>
<path d="M16.5908 120.494C16.5908 121.26 16.1702 121.879 15.6508 121.879H0.940017C0.420598 121.879 0 121.26 0 120.494C0 119.729 0.420598 119.109 0.940017 119.109H15.6508C16.1702 119.11 16.5908 119.73 16.5908 120.494Z" fill="#D3ECF8"/>
<path d="M34.2766 121.086C34.2766 121.782 33.7432 122.345 33.0854 122.345H14.4436C13.7854 122.345 13.252 121.782 13.252 121.086C13.252 120.39 13.7854 119.826 14.4436 119.826H33.0854C33.7432 119.826 34.2766 120.391 34.2766 121.086Z" fill="#D3ECF8"/>
<path d="M71.7439 121.086C71.7439 121.782 71.2109 122.345 70.5527 122.345H51.9109C51.2532 122.345 50.7197 121.782 50.7197 121.086C50.7197 120.39 51.2527 119.826 51.9109 119.826H70.5527C71.2109 119.826 71.7439 120.391 71.7439 121.086Z" fill="#D3ECF8"/>
<path d="M93.3086 121.086C93.3086 121.782 92.7756 122.345 92.1174 122.345H78.3777C77.7195 122.345 77.1865 121.782 77.1865 121.086C77.1865 120.39 77.7195 119.826 78.3777 119.826H92.1174C92.7752 119.826 93.3086 120.391 93.3086 121.086Z" fill="#D3ECF8"/>
<path d="M156.821 121.086C156.821 121.782 156.288 122.345 155.63 122.345H138.325C137.667 122.345 137.134 121.782 137.134 121.086C137.134 120.39 137.667 119.826 138.325 119.826H155.63C156.288 119.826 156.821 120.391 156.821 121.086Z" fill="#D3ECF8"/>
<path d="M41.1984 121.086C41.1984 121.782 40.6654 122.345 40.0072 122.345H37.8543C37.1961 122.345 36.6631 121.782 36.6631 121.086C36.6631 120.39 37.1961 119.826 37.8543 119.826H40.0072C40.6654 119.826 41.1984 120.391 41.1984 121.086Z" fill="#D3ECF8"/>
<path d="M118.606 52.627H94.0928V117.789H118.606V52.627Z" fill="#073856"/>
<path d="M121.828 119.826H90.873V50.5898H121.828V119.826ZM95.0773 115.753H117.623V54.6634H95.0773V115.753Z" fill="#0A3542"/>
<path d="M120.533 119.826H92.167V50.5898H120.533V119.826ZM96.0196 115.753H116.68V54.6634H96.0196V115.753Z" fill="#283770"/>
<path d="M98.0191 51.0612H96.0088V53.1868H98.0191V51.0612Z" fill="white"/>
<path d="M116.692 51.0612H114.682V53.1868H116.692V51.0612Z" fill="white"/>
<path d="M115.88 55.6016H96.7363V58.5918H115.88V55.6016Z" fill="white"/>
<path d="M105.594 56.4105H97.6562V57.7822H105.594V56.4105Z" fill="#073856"/>
<path d="M100.38 56.4105H99.0176V57.7822H100.38V56.4105Z" fill="#0794C9"/>
<path d="M107.973 55.9327H107.496V56.4355H107.973V55.9327Z" fill="#073856"/>
<path d="M109.464 55.9327H108.987V56.4355H109.464V55.9327Z" fill="#073856"/>
<path d="M110.954 55.9327H110.478V56.4355H110.954V55.9327Z" fill="#073856"/>
<path d="M112.446 55.9327H111.969V56.4355H112.446V55.9327Z" fill="#073856"/>
<path d="M113.935 55.9327H113.459V56.4355H113.935V55.9327Z" fill="#073856"/>
<path d="M115.426 55.9327H114.948V56.4355H115.426V55.9327Z" fill="#073856"/>
<path d="M107.973 57.7559H107.496V58.2591H107.973V57.7559Z" fill="#073856"/>
<path d="M109.464 57.7559H108.987V58.2591H109.464V57.7559Z" fill="#073856"/>
<path d="M110.954 57.7559H110.478V58.2591H110.954V57.7559Z" fill="#073856"/>
<path d="M112.446 57.7559H111.969V58.2591H112.446V57.7559Z" fill="#073856"/>
<path d="M113.935 57.7559H113.459V58.2591H113.935V57.7559Z" fill="#073856"/>
<path d="M115.426 57.7559H114.948V58.2591H115.426V57.7559Z" fill="#073856"/>
<path d="M107.973 56.8447H107.496V57.348H107.973V56.8447Z" fill="#073856"/>
<path d="M109.464 56.8447H108.987V57.348H109.464V56.8447Z" fill="#073856"/>
<path d="M110.954 56.8447H110.478V57.348H110.954V56.8447Z" fill="#073856"/>
<path d="M112.446 56.8447H111.969V57.348H112.446V56.8447Z" fill="#073856"/>
<path d="M113.935 56.8447H113.459V57.348H113.935V56.8447Z" fill="#073856"/>
<path d="M115.426 56.8447H114.948V57.348H115.426V56.8447Z" fill="#073856"/>
<path d="M115.88 59.6741H96.7354V62.6644H115.88V59.6741Z" fill="white"/>
<path d="M105.594 60.4838H97.6562V61.8554H105.594V60.4838Z" fill="#073856"/>
<path d="M100.381 60.4838H99.0186V61.8554H100.381V60.4838Z" fill="#0794C9"/>
<path d="M107.972 60.006H107.496V60.5088H107.972V60.006Z" fill="#073856"/>
<path d="M109.464 60.006H108.986V60.5088H109.464V60.006Z" fill="#073856"/>
<path d="M110.953 60.006H110.477V60.5088H110.953V60.006Z" fill="#073856"/>
<path d="M112.445 60.006H111.968V60.5088H112.445V60.006Z" fill="#073856"/>
<path d="M113.935 60.006H113.458V60.5088H113.935V60.006Z" fill="#073856"/>
<path d="M115.425 60.006H114.948V60.5088H115.425V60.006Z" fill="#073856"/>
<path d="M107.972 61.8287H107.496V62.332H107.972V61.8287Z" fill="#073856"/>
<path d="M109.464 61.8287H108.986V62.332H109.464V61.8287Z" fill="#073856"/>
<path d="M110.953 61.8287H110.477V62.332H110.953V61.8287Z" fill="#073856"/>
<path d="M112.445 61.8287H111.968V62.332H112.445V61.8287Z" fill="#073856"/>
<path d="M113.935 61.8287H113.458V62.332H113.935V61.8287Z" fill="#073856"/>
<path d="M115.425 61.8287H114.948V62.332H115.425V61.8287Z" fill="#073856"/>
<path d="M107.972 60.9174H107.496V61.4206H107.972V60.9174Z" fill="#073856"/>
<path d="M109.464 60.9174H108.986V61.4206H109.464V60.9174Z" fill="#073856"/>
<path d="M110.953 60.9174H110.477V61.4206H110.953V60.9174Z" fill="#073856"/>
<path d="M112.445 60.9174H111.968V61.4206H112.445V60.9174Z" fill="#073856"/>
<path d="M113.935 60.9174H113.458V61.4206H113.935V60.9174Z" fill="#073856"/>
<path d="M115.425 60.9174H114.948V61.4206H115.425V60.9174Z" fill="#073856"/>
<path d="M99.0167 63.3488H96.0068V64.3209H99.0167V63.3488Z" fill="#0794C9"/>
<path d="M116.692 63.3488H113.682V64.3209H116.692V63.3488Z" fill="#0794C9"/>
<path d="M115.88 64.9717H96.7363V67.9615H115.88V64.9717Z" fill="white"/>
<path d="M105.594 65.7812H97.6562V67.152H105.594V65.7812Z" fill="#073856"/>
<path d="M100.38 65.781H99.0176V67.1518H100.38V65.781Z" fill="#0794C9"/>
<path d="M107.973 65.3032H107.496V65.806H107.973V65.3032Z" fill="#073856"/>
<path d="M109.464 65.3032H108.987V65.806H109.464V65.3032Z" fill="#073856"/>
<path d="M110.954 65.3032H110.478V65.806H110.954V65.3032Z" fill="#073856"/>
<path d="M112.446 65.3032H111.969V65.806H112.446V65.3032Z" fill="#073856"/>
<path d="M113.935 65.3032H113.459V65.806H113.935V65.3032Z" fill="#073856"/>
<path d="M115.426 65.3032H114.948V65.806H115.426V65.3032Z" fill="#073856"/>
<path d="M107.973 67.126H107.496V67.6288H107.973V67.126Z" fill="#073856"/>
<path d="M109.464 67.126H108.987V67.6288H109.464V67.126Z" fill="#073856"/>
<path d="M110.954 67.126H110.478V67.6288H110.954V67.126Z" fill="#073856"/>
<path d="M112.446 67.126H111.969V67.6288H112.446V67.126Z" fill="#073856"/>
<path d="M113.935 67.126H113.459V67.6288H113.935V67.126Z" fill="#073856"/>
<path d="M115.426 67.126H114.948V67.6288H115.426V67.126Z" fill="#073856"/>
<path d="M107.973 66.2146H107.496V66.7174H107.973V66.2146Z" fill="#073856"/>
<path d="M109.464 66.2146H108.987V66.7174H109.464V66.2146Z" fill="#073856"/>
<path d="M110.954 66.2146H110.478V66.7174H110.954V66.2146Z" fill="#073856"/>
<path d="M112.446 66.2146H111.969V66.7174H112.446V66.2146Z" fill="#073856"/>
<path d="M113.935 66.2146H113.459V66.7174H113.935V66.2146Z" fill="#073856"/>
<path d="M115.426 66.2146H114.948V66.7174H115.426V66.2146Z" fill="#073856"/>
<path d="M115.88 69.0447H96.7354V72.0345H115.88V69.0447Z" fill="white"/>
<path d="M105.594 69.8538H97.6562V71.2245H105.594V69.8538Z" fill="#073856"/>
<path d="M100.381 69.854H99.0186V71.2247H100.381V69.854Z" fill="#0794C9"/>
<path d="M107.972 69.3757H107.496V69.8785H107.972V69.3757Z" fill="#073856"/>
<path d="M109.464 69.3757H108.986V69.8785H109.464V69.3757Z" fill="#073856"/>
<path d="M110.953 69.3757H110.477V69.8785H110.953V69.3757Z" fill="#073856"/>
<path d="M112.445 69.3757H111.968V69.8785H112.445V69.3757Z" fill="#073856"/>
<path d="M113.935 69.3757H113.458V69.8785H113.935V69.3757Z" fill="#073856"/>
<path d="M115.425 69.3757H114.948V69.8785H115.425V69.3757Z" fill="#073856"/>
<path d="M107.972 71.1985H107.496V71.7013H107.972V71.1985Z" fill="#073856"/>
<path d="M109.464 71.1985H108.986V71.7013H109.464V71.1985Z" fill="#073856"/>
<path d="M110.953 71.1985H110.477V71.7013H110.953V71.1985Z" fill="#073856"/>
<path d="M112.445 71.1985H111.968V71.7013H112.445V71.1985Z" fill="#073856"/>
<path d="M113.935 71.1985H113.458V71.7013H113.935V71.1985Z" fill="#073856"/>
<path d="M115.425 71.1985H114.948V71.7013H115.425V71.1985Z" fill="#073856"/>
<path d="M107.972 70.2874H107.496V70.7902H107.972V70.2874Z" fill="#073856"/>
<path d="M109.464 70.2874H108.986V70.7902H109.464V70.2874Z" fill="#073856"/>
<path d="M110.953 70.2874H110.477V70.7902H110.953V70.2874Z" fill="#073856"/>
<path d="M112.445 70.2874H111.968V70.7902H112.445V70.2874Z" fill="#073856"/>
<path d="M113.935 70.2874H113.458V70.7902H113.935V70.2874Z" fill="#073856"/>
<path d="M115.425 70.2874H114.948V70.7902H115.425V70.2874Z" fill="#073856"/>
<path d="M99.0167 72.7183H96.0068V73.6908H99.0167V72.7183Z" fill="#0794C9"/>
<path d="M116.692 72.7183H113.682V73.6908H116.692V72.7183Z" fill="#0794C9"/>
<path d="M115.88 74.3416H96.7363V77.3318H115.88V74.3416Z" fill="white"/>
<path d="M105.594 75.1511H97.6562V76.5223H105.594V75.1511Z" fill="#073856"/>
<path d="M100.38 75.1511H99.0176V76.5223H100.38V75.1511Z" fill="#0794C9"/>
<path d="M107.973 74.6729H107.496V75.1761H107.973V74.6729Z" fill="#073856"/>
<path d="M109.464 74.6729H108.987V75.1761H109.464V74.6729Z" fill="#073856"/>
<path d="M110.954 74.6729H110.478V75.1761H110.954V74.6729Z" fill="#073856"/>
<path d="M112.446 74.6729H111.969V75.1761H112.446V74.6729Z" fill="#073856"/>
<path d="M113.935 74.6729H113.459V75.1761H113.935V74.6729Z" fill="#073856"/>
<path d="M115.426 74.6729H114.948V75.1761H115.426V74.6729Z" fill="#073856"/>
<path d="M107.973 76.4961H107.496V76.9989H107.973V76.4961Z" fill="#073856"/>
<path d="M109.464 76.4961H108.987V76.9989H109.464V76.4961Z" fill="#073856"/>
<path d="M110.954 76.4961H110.478V76.9989H110.954V76.4961Z" fill="#073856"/>
<path d="M112.446 76.4961H111.969V76.9989H112.446V76.4961Z" fill="#073856"/>
<path d="M113.935 76.4961H113.459V76.9989H113.935V76.4961Z" fill="#073856"/>
<path d="M115.426 76.4961H114.948V76.9989H115.426V76.4961Z" fill="#073856"/>
<path d="M107.973 75.5847H107.496V76.088H107.973V75.5847Z" fill="#073856"/>
<path d="M109.464 75.5847H108.987V76.088H109.464V75.5847Z" fill="#073856"/>
<path d="M110.954 75.5847H110.478V76.088H110.954V75.5847Z" fill="#073856"/>
<path d="M112.446 75.5847H111.969V76.088H112.446V75.5847Z" fill="#073856"/>
<path d="M113.935 75.5847H113.459V76.088H113.935V75.5847Z" fill="#073856"/>
<path d="M115.426 75.5847H114.948V76.088H115.426V75.5847Z" fill="#073856"/>
<path d="M115.88 78.4138H96.7354V81.4041H115.88V78.4138Z" fill="white"/>
<path d="M105.594 79.2231H97.6562V80.5948H105.594V79.2231Z" fill="#073856"/>
<path d="M100.381 79.2231H99.0186V80.5948H100.381V79.2231Z" fill="#0794C9"/>
<path d="M107.972 78.7456H107.496V79.2489H107.972V78.7456Z" fill="#073856"/>
<path d="M109.464 78.7456H108.986V79.2489H109.464V78.7456Z" fill="#073856"/>
<path d="M110.953 78.7456H110.477V79.2489H110.953V78.7456Z" fill="#073856"/>
<path d="M112.445 78.7456H111.968V79.2489H112.445V78.7456Z" fill="#073856"/>
<path d="M113.935 78.7456H113.458V79.2489H113.935V78.7456Z" fill="#073856"/>
<path d="M115.425 78.7456H114.948V79.2489H115.425V78.7456Z" fill="#073856"/>
<path d="M107.972 80.5688H107.496V81.0717H107.972V80.5688Z" fill="#073856"/>
<path d="M109.464 80.5688H108.986V81.0717H109.464V80.5688Z" fill="#073856"/>
<path d="M110.953 80.5688H110.477V81.0717H110.953V80.5688Z" fill="#073856"/>
<path d="M112.445 80.5688H111.968V81.0717H112.445V80.5688Z" fill="#073856"/>
<path d="M113.935 80.5688H113.458V81.0717H113.935V80.5688Z" fill="#073856"/>
<path d="M115.425 80.5688H114.948V81.0717H115.425V80.5688Z" fill="#073856"/>
<path d="M107.972 79.6565H107.496V80.1598H107.972V79.6565Z" fill="#073856"/>
<path d="M109.464 79.6562H108.986V80.1595H109.464V79.6562Z" fill="#073856"/>
<path d="M110.953 79.6562H110.477V80.1595H110.953V79.6562Z" fill="#073856"/>
<path d="M112.445 79.6562H111.968V80.1595H112.445V79.6562Z" fill="#073856"/>
<path d="M113.935 79.6565H113.458V80.1598H113.935V79.6565Z" fill="#073856"/>
<path d="M115.425 79.6562H114.948V80.1595H115.425V79.6562Z" fill="#073856"/>
<path d="M99.0167 82.0881H96.0068V83.0612H99.0167V82.0881Z" fill="#0794C9"/>
<path d="M116.692 82.0881H113.682V83.0612H116.692V82.0881Z" fill="#0794C9"/>
<path d="M115.88 83.7114H96.7363V86.7017H115.88V83.7114Z" fill="white"/>
<path d="M105.594 84.5212H97.6562V85.892H105.594V84.5212Z" fill="#073856"/>
<path d="M100.38 84.5212H99.0176V85.892H100.38V84.5212Z" fill="#0794C9"/>
<path d="M107.973 84.043H107.496V84.5458H107.973V84.043Z" fill="#073856"/>
<path d="M109.464 84.043H108.987V84.5458H109.464V84.043Z" fill="#073856"/>
<path d="M110.954 84.043H110.478V84.5458H110.954V84.043Z" fill="#073856"/>
<path d="M112.446 84.043H111.969V84.5458H112.446V84.043Z" fill="#073856"/>
<path d="M113.935 84.043H113.459V84.5458H113.935V84.043Z" fill="#073856"/>
<path d="M115.426 84.043H114.948V84.5458H115.426V84.043Z" fill="#073856"/>
<path d="M107.973 85.866H107.496V86.3692H107.973V85.866Z" fill="#073856"/>
<path d="M109.464 85.866H108.987V86.3692H109.464V85.866Z" fill="#073856"/>
<path d="M110.954 85.866H110.478V86.3692H110.954V85.866Z" fill="#073856"/>
<path d="M112.446 85.866H111.969V86.3692H112.446V85.866Z" fill="#073856"/>
<path d="M113.935 85.866H113.459V86.3692H113.935V85.866Z" fill="#073856"/>
<path d="M115.426 85.866H114.948V86.3692H115.426V85.866Z" fill="#073856"/>
<path d="M107.973 84.9543H107.496V85.4567H107.973V84.9543Z" fill="#073856"/>
<path d="M109.464 84.9543H108.987V85.4567H109.464V84.9543Z" fill="#073856"/>
<path d="M110.954 84.9543H110.478V85.4567H110.954V84.9543Z" fill="#073856"/>
<path d="M112.446 84.9543H111.969V85.4567H112.446V84.9543Z" fill="#073856"/>
<path d="M113.935 84.9543H113.459V85.4567H113.935V84.9543Z" fill="#073856"/>
<path d="M115.426 84.9543H114.948V85.4567H115.426V84.9543Z" fill="#073856"/>
<path d="M115.88 87.7847H96.7354V90.774H115.88V87.7847Z" fill="white"/>
<path d="M105.594 88.5938H97.6562V89.965H105.594V88.5938Z" fill="#073856"/>
<path d="M100.381 88.5938H99.0186V89.965H100.381V88.5938Z" fill="#0794C9"/>
<path d="M107.972 88.1162H107.496V88.6185H107.972V88.1162Z" fill="#073856"/>
<path d="M109.464 88.116H108.986V88.6183H109.464V88.116Z" fill="#073856"/>
<path d="M110.953 88.116H110.477V88.6183H110.953V88.116Z" fill="#073856"/>
<path d="M112.445 88.116H111.968V88.6183H112.445V88.116Z" fill="#073856"/>
<path d="M113.935 88.116H113.458V88.6183H113.935V88.116Z" fill="#073856"/>
<path d="M115.425 88.116H114.948V88.6183H115.425V88.116Z" fill="#073856"/>
<path d="M107.972 89.9387H107.496V90.4425H107.972V89.9387Z" fill="#073856"/>
<path d="M109.464 89.939H108.986V90.4427H109.464V89.939Z" fill="#073856"/>
<path d="M110.953 89.939H110.477V90.4427H110.953V89.939Z" fill="#073856"/>
<path d="M112.445 89.939H111.968V90.4427H112.445V89.939Z" fill="#073856"/>
<path d="M113.935 89.9387H113.458V90.4425H113.935V89.9387Z" fill="#073856"/>
<path d="M115.425 89.939H114.948V90.4427H115.425V89.939Z" fill="#073856"/>
<path d="M107.972 89.0273H107.496V89.5301H107.972V89.0273Z" fill="#073856"/>
<path d="M109.464 89.0273H108.986V89.5301H109.464V89.0273Z" fill="#073856"/>
<path d="M110.953 89.0273H110.477V89.5301H110.953V89.0273Z" fill="#073856"/>
<path d="M112.445 89.0273H111.968V89.5301H112.445V89.0273Z" fill="#073856"/>
<path d="M113.935 89.0273H113.458V89.5301H113.935V89.0273Z" fill="#073856"/>
<path d="M115.425 89.0273H114.948V89.5301H115.425V89.0273Z" fill="#073856"/>
<path d="M99.0167 91.4587H96.0068V92.4308H99.0167V91.4587Z" fill="#0794C9"/>
<path d="M116.692 91.4587H113.682V92.4308H116.692V91.4587Z" fill="#0794C9"/>
<path d="M115.88 93.082H96.7363V96.0714H115.88V93.082Z" fill="white"/>
<path d="M105.594 93.8914H97.6562V95.2626H105.594V93.8914Z" fill="#073856"/>
<path d="M100.38 93.8914H99.0176V95.2626H100.38V93.8914Z" fill="#0794C9"/>
<path d="M107.973 93.4128H107.496V93.9166H107.973V93.4128Z" fill="#073856"/>
<path d="M109.464 93.4126H108.987V93.9163H109.464V93.4126Z" fill="#073856"/>
<path d="M110.954 93.4128H110.478V93.9166H110.954V93.4128Z" fill="#073856"/>
<path d="M112.446 93.4128H111.969V93.9166H112.446V93.4128Z" fill="#073856"/>
<path d="M113.935 93.4126H113.459V93.9163H113.935V93.4126Z" fill="#073856"/>
<path d="M115.426 93.4126H114.948V93.9163H115.426V93.4126Z" fill="#073856"/>
<path d="M107.973 95.2366H107.496V95.7394H107.973V95.2366Z" fill="#073856"/>
<path d="M109.464 95.2368H108.987V95.7396H109.464V95.2368Z" fill="#073856"/>
<path d="M110.954 95.2368H110.478V95.7396H110.954V95.2368Z" fill="#073856"/>
<path d="M112.446 95.2368H111.969V95.7396H112.446V95.2368Z" fill="#073856"/>
<path d="M113.935 95.2368H113.459V95.7396H113.935V95.2368Z" fill="#073856"/>
<path d="M115.426 95.2368H114.948V95.7396H115.426V95.2368Z" fill="#073856"/>
<path d="M107.973 94.3247H107.496V94.828H107.973V94.3247Z" fill="#073856"/>
<path d="M109.464 94.3247H108.987V94.828H109.464V94.3247Z" fill="#073856"/>
<path d="M110.954 94.325H110.478V94.8282H110.954V94.325Z" fill="#073856"/>
<path d="M112.446 94.325H111.969V94.8282H112.446V94.325Z" fill="#073856"/>
<path d="M113.935 94.3247H113.459V94.828H113.935V94.3247Z" fill="#073856"/>
<path d="M115.426 94.3247H114.948V94.828H115.426V94.3247Z" fill="#073856"/>
<path d="M115.88 97.1548H96.7354V100.145H115.88V97.1548Z" fill="white"/>
<path d="M105.594 97.9641H97.6562V99.3353H105.594V97.9641Z" fill="#073856"/>
<path d="M100.381 97.9641H99.0186V99.3353H100.381V97.9641Z" fill="#0794C9"/>
<path d="M107.972 97.4856H107.496V97.9893H107.972V97.4856Z" fill="#073856"/>
<path d="M109.464 97.4856H108.986V97.9893H109.464V97.4856Z" fill="#073856"/>
<path d="M110.953 97.4856H110.477V97.9893H110.953V97.4856Z" fill="#073856"/>
<path d="M112.445 97.4856H111.968V97.9893H112.445V97.4856Z" fill="#073856"/>
<path d="M113.935 97.4856H113.458V97.9893H113.935V97.4856Z" fill="#073856"/>
<path d="M115.425 97.4856H114.948V97.9893H115.425V97.4856Z" fill="#073856"/>
<path d="M107.972 99.3096H107.496V99.8119H107.972V99.3096Z" fill="#073856"/>
<path d="M109.464 99.3096H108.986V99.8119H109.464V99.3096Z" fill="#073856"/>
<path d="M110.953 99.3096H110.477V99.8119H110.953V99.3096Z" fill="#073856"/>
<path d="M112.445 99.3096H111.968V99.8119H112.445V99.3096Z" fill="#073856"/>
<path d="M113.935 99.3096H113.458V99.8119H113.935V99.3096Z" fill="#073856"/>
<path d="M115.425 99.3096H114.948V99.8119H115.425V99.3096Z" fill="#073856"/>
<path d="M107.972 98.3979H107.496V98.9008H107.972V98.3979Z" fill="#073856"/>
<path d="M109.464 98.3979H108.986V98.9008H109.464V98.3979Z" fill="#073856"/>
<path d="M110.953 98.3979H110.477V98.9008H110.953V98.3979Z" fill="#073856"/>
<path d="M112.445 98.3979H111.968V98.9008H112.445V98.3979Z" fill="#073856"/>
<path d="M113.935 98.3979H113.458V98.9008H113.935V98.3979Z" fill="#073856"/>
<path d="M115.425 98.3979H114.948V98.9008H115.425V98.3979Z" fill="#073856"/>
<path d="M99.0167 100.829H96.0068V101.801H99.0167V100.829Z" fill="#0794C9"/>
<path d="M116.692 100.829H113.682V101.801H116.692V100.829Z" fill="#0794C9"/>
<path d="M115.88 102.452H96.7363V105.442H115.88V102.452Z" fill="white"/>
<path d="M105.594 103.261H97.6562V104.632H105.594V103.261Z" fill="#073856"/>
<path d="M100.38 103.261H99.0176V104.632H100.38V103.261Z" fill="#0794C9"/>
<path d="M107.973 102.783H107.496V103.286H107.973V102.783Z" fill="#073856"/>
<path d="M109.464 102.783H108.987V103.286H109.464V102.783Z" fill="#073856"/>
<path d="M110.954 102.783H110.478V103.286H110.954V102.783Z" fill="#073856"/>
<path d="M112.446 102.783H111.969V103.286H112.446V102.783Z" fill="#073856"/>
<path d="M113.935 102.783H113.459V103.286H113.935V102.783Z" fill="#073856"/>
<path d="M115.426 102.783H114.948V103.286H115.426V102.783Z" fill="#073856"/>
<path d="M107.973 104.606H107.496V105.109H107.973V104.606Z" fill="#073856"/>
<path d="M109.464 104.606H108.987V105.109H109.464V104.606Z" fill="#073856"/>
<path d="M110.954 104.606H110.478V105.109H110.954V104.606Z" fill="#073856"/>
<path d="M112.446 104.606H111.969V105.109H112.446V104.606Z" fill="#073856"/>
<path d="M113.935 104.606H113.459V105.109H113.935V104.606Z" fill="#073856"/>
<path d="M115.426 104.606H114.948V105.109H115.426V104.606Z" fill="#073856"/>
<path d="M107.973 103.695H107.496V104.198H107.973V103.695Z" fill="#073856"/>
<path d="M109.464 103.695H108.987V104.198H109.464V103.695Z" fill="#073856"/>
<path d="M110.954 103.695H110.478V104.198H110.954V103.695Z" fill="#073856"/>
<path d="M112.446 103.695H111.969V104.198H112.446V103.695Z" fill="#073856"/>
<path d="M113.935 103.695H113.459V104.198H113.935V103.695Z" fill="#073856"/>
<path d="M115.426 103.695H114.948V104.198H115.426V103.695Z" fill="#073856"/>
<path d="M115.88 106.525H96.7354V109.515H115.88V106.525Z" fill="white"/>
<path d="M105.594 107.334H97.6562V108.706H105.594V107.334Z" fill="#073856"/>
<path d="M100.381 107.334H99.0186V108.706H100.381V107.334Z" fill="#0794C9"/>
<path d="M107.972 106.856H107.496V107.359H107.972V106.856Z" fill="#073856"/>
<path d="M109.464 106.856H108.986V107.359H109.464V106.856Z" fill="#073856"/>
<path d="M110.953 106.856H110.477V107.359H110.953V106.856Z" fill="#073856"/>
<path d="M112.445 106.856H111.968V107.359H112.445V106.856Z" fill="#073856"/>
<path d="M113.935 106.856H113.458V107.359H113.935V106.856Z" fill="#073856"/>
<path d="M115.425 106.856H114.948V107.359H115.425V106.856Z" fill="#073856"/>
<path d="M107.972 108.679H107.496V109.182H107.972V108.679Z" fill="#073856"/>
<path d="M109.464 108.679H108.986V109.182H109.464V108.679Z" fill="#073856"/>
<path d="M110.953 108.679H110.477V109.182H110.953V108.679Z" fill="#073856"/>
<path d="M112.445 108.679H111.968V109.182H112.445V108.679Z" fill="#073856"/>
<path d="M113.935 108.679H113.458V109.182H113.935V108.679Z" fill="#073856"/>
<path d="M115.425 108.679H114.948V109.182H115.425V108.679Z" fill="#073856"/>
<path d="M107.972 107.767H107.496V108.27H107.972V107.767Z" fill="#073856"/>
<path d="M109.464 107.767H108.986V108.27H109.464V107.767Z" fill="#073856"/>
<path d="M110.953 107.767H110.477V108.27H110.953V107.767Z" fill="#073856"/>
<path d="M112.445 107.767H111.968V108.27H112.445V107.767Z" fill="#073856"/>
<path d="M113.935 107.767H113.458V108.27H113.935V107.767Z" fill="#073856"/>
<path d="M115.425 107.767H114.948V108.27H115.425V107.767Z" fill="#073856"/>
<path d="M99.0167 110.199H96.0068V111.171H99.0167V110.199Z" fill="#0794C9"/>
<path d="M116.692 110.199H113.682V111.171H116.692V110.199Z" fill="#0794C9"/>
<path d="M113.465 113.496C113.465 113.741 113.277 113.939 113.046 113.939H99.2134C98.9825 113.939 98.7949 113.741 98.7949 113.496C98.7949 113.251 98.9825 113.054 99.2134 113.054H113.046C113.277 113.053 113.465 113.251 113.465 113.496Z" fill="#FFD008"/>
<path d="M98.7949 113.497C98.7949 113.741 98.9825 113.938 99.2134 113.938H113.046C113.277 113.938 113.465 113.741 113.465 113.497H98.7949Z" fill="#FFA70B"/>
<path d="M113.465 114.382C113.465 114.627 113.277 114.825 113.046 114.825H99.2134C98.9825 114.825 98.7949 114.626 98.7949 114.382C98.7949 114.137 98.9825 113.939 99.2134 113.939H113.046C113.277 113.939 113.465 114.137 113.465 114.382Z" fill="#FFD008"/>
<path d="M98.7949 114.383C98.7949 114.627 98.9825 114.824 99.2134 114.824H113.046C113.277 114.824 113.465 114.626 113.465 114.383H98.7949Z" fill="#FFA70B"/>
<path d="M113.465 112.611C113.465 112.856 113.277 113.054 113.046 113.054H99.2134C98.9825 113.054 98.7949 112.855 98.7949 112.611C98.7949 112.366 98.9825 112.168 99.2134 112.168H113.046C113.277 112.168 113.465 112.366 113.465 112.611Z" fill="#FFD008"/>
<path d="M98.7949 112.611C98.7949 112.855 98.9825 113.053 99.2134 113.053H113.046C113.277 113.053 113.465 112.855 113.465 112.611H98.7949Z" fill="#FFA70B"/>
<path d="M113.465 115.267C113.465 115.512 113.277 115.71 113.046 115.71H99.2134C98.9825 115.71 98.7949 115.512 98.7949 115.267C98.7949 115.023 98.9825 114.825 99.2134 114.825H113.046C113.277 114.825 113.465 115.023 113.465 115.267Z" fill="#FFD008"/>
<path d="M98.7949 115.267C98.7949 115.512 98.9825 115.709 99.2134 115.709H113.046C113.277 115.709 113.465 115.511 113.465 115.267H98.7949Z" fill="#FFA70B"/>
<path d="M112.206 119.826H109.571C108.703 119.826 107.997 119.079 107.997 118.161V116.489C107.997 116.067 107.736 115.71 107.428 115.71H106.44V114.825H107.428C108.203 114.825 108.834 115.572 108.834 116.489V118.161C108.834 118.591 109.165 118.94 109.571 118.94H112.206V119.826Z" fill="#FFD008"/>
<path d="M107.996 116.49V118.161C107.996 119.079 108.702 119.826 109.571 119.826H112.206V119.384H109.571C108.932 119.384 108.415 118.837 108.415 118.161V116.49C108.415 115.814 107.972 115.267 107.427 115.267C107.177 115.267 106.788 115.267 106.439 115.267V115.71H107.427C107.735 115.71 107.996 116.067 107.996 116.49Z" fill="#FFA70B"/>
<path d="M113.935 119.097H113.395V119.67H113.935V119.097Z" fill="#EAEAEA"/>
<path d="M113.826 119.356H113.503V119.41H113.826V119.356Z" fill="#0092FF"/>
<path d="M113.826 119.247H113.503V119.301H113.826V119.247Z" fill="#FF0000"/>
<path d="M113.826 119.466H113.503V119.519H113.826V119.466Z" fill="#00FF67"/>
<path d="M113.394 118.94H112.134V119.826H113.394V118.94Z" fill="white"/>
<path d="M113.183 119.097H112.345V119.67H113.183V119.097Z" fill="#BAB6AF"/>
<path d="M84.2499 52.627H59.7363V117.789H84.2499V52.627Z" fill="#073856"/>
<path d="M87.4715 119.826H56.5166V50.5898H87.4715V119.826ZM60.7204 115.753H83.2669V54.6634H60.7204V115.753Z" fill="#0A3542"/>
<path d="M86.1763 119.826H57.8105V50.5898H86.1763V119.826ZM61.6631 115.753H82.3232V54.6634H61.6631V115.753Z" fill="#538899"/>
<path d="M63.6626 51.0612H61.6523V53.1868H63.6626V51.0612Z" fill="white"/>
<path d="M82.3345 51.0612H80.3242V53.1868H82.3345V51.0612Z" fill="white"/>
<path d="M81.5239 55.6018H62.3799V58.5921H81.5239V55.6018Z" fill="white"/>
<path d="M71.2362 56.4108H63.2988V57.7825H71.2362V56.4108Z" fill="#073856"/>
<path d="M66.0239 56.4109H64.6611V57.7826H66.0239V56.4109Z" fill="#257999"/>
<path d="M73.6169 55.933H73.1396V56.4358H73.6169V55.933Z" fill="#073856"/>
<path d="M75.1073 55.933H74.6309V56.4358H75.1073V55.933Z" fill="#073856"/>
<path d="M76.597 55.933H76.1201V56.4358H76.597V55.933Z" fill="#073856"/>
<path d="M78.0882 55.933H77.6113V56.4358H78.0882V55.933Z" fill="#073856"/>
<path d="M79.578 55.933H79.1016V56.4358H79.578V55.933Z" fill="#073856"/>
<path d="M81.0686 55.933H80.5918V56.4358H81.0686V55.933Z" fill="#073856"/>
<path d="M73.6169 57.7561H73.1396V58.2594H73.6169V57.7561Z" fill="#073856"/>
<path d="M75.1073 57.7561H74.6309V58.2594H75.1073V57.7561Z" fill="#073856"/>
<path d="M76.597 57.7561H76.1201V58.2594H76.597V57.7561Z" fill="#073856"/>
<path d="M78.0882 57.7561H77.6113V58.2594H78.0882V57.7561Z" fill="#073856"/>
<path d="M79.578 57.7561H79.1016V58.2594H79.578V57.7561Z" fill="#073856"/>
<path d="M81.0686 57.7561H80.5918V58.2594H81.0686V57.7561Z" fill="#073856"/>
<path d="M73.6169 56.8447H73.1396V57.348H73.6169V56.8447Z" fill="#073856"/>
<path d="M75.1073 56.8447H74.6309V57.348H75.1073V56.8447Z" fill="#073856"/>
<path d="M76.597 56.8447H76.1201V57.348H76.597V56.8447Z" fill="#073856"/>
<path d="M78.0882 56.8447H77.6113V57.348H78.0882V56.8447Z" fill="#073856"/>
<path d="M79.578 56.8447H79.1016V57.348H79.578V56.8447Z" fill="#073856"/>
<path d="M81.0686 56.8447H80.5918V57.348H81.0686V56.8447Z" fill="#073856"/>
<path d="M81.5228 59.6743H62.3779V62.6646H81.5228V59.6743Z" fill="white"/>
<path d="M71.2348 60.484H63.2979V61.8557H71.2348V60.484Z" fill="#073856"/>
<path d="M66.0239 60.484H64.6611V61.8557H66.0239V60.484Z" fill="#257999"/>
<path d="M73.6151 60.0062H73.1387V60.509H73.6151V60.0062Z" fill="#073856"/>
<path d="M75.1057 60.0062H74.6279V60.509H75.1057V60.0062Z" fill="#073856"/>
<path d="M76.5955 60.0062H76.1191V60.509H76.5955V60.0062Z" fill="#073856"/>
<path d="M78.0872 60.0062H77.6104V60.509H78.0872V60.0062Z" fill="#073856"/>
<path d="M79.5774 60.0062H79.1006V60.509H79.5774V60.0062Z" fill="#073856"/>
<path d="M81.0682 60.0062H80.5918V60.509H81.0682V60.0062Z" fill="#073856"/>
<path d="M73.6151 61.829H73.1387V62.3323H73.6151V61.829Z" fill="#073856"/>
<path d="M75.1057 61.829H74.6279V62.3323H75.1057V61.829Z" fill="#073856"/>
<path d="M76.5955 61.829H76.1191V62.3323H76.5955V61.829Z" fill="#073856"/>
<path d="M78.0872 61.829H77.6104V62.3323H78.0872V61.829Z" fill="#073856"/>
<path d="M79.5774 61.829H79.1006V62.3323H79.5774V61.829Z" fill="#073856"/>
<path d="M81.0682 61.829H80.5918V62.3323H81.0682V61.829Z" fill="#073856"/>
<path d="M73.6151 60.9176H73.1387V61.4209H73.6151V60.9176Z" fill="#073856"/>
<path d="M75.1057 60.9176H74.6279V61.4209H75.1057V60.9176Z" fill="#073856"/>
<path d="M76.5955 60.9176H76.1191V61.4209H76.5955V60.9176Z" fill="#073856"/>
<path d="M78.0872 60.9176H77.6104V61.4209H78.0872V60.9176Z" fill="#073856"/>
<path d="M79.5774 60.9176H79.1006V61.4209H79.5774V60.9176Z" fill="#073856"/>
<path d="M81.0682 60.9176H80.5918V61.4209H81.0682V60.9176Z" fill="#073856"/>
<path d="M64.6608 63.349H61.6514V64.3211H64.6608V63.349Z" fill="#257999"/>
<path d="M82.3337 63.349H79.3242V64.3211H82.3337V63.349Z" fill="#257999"/>
<path d="M81.5239 64.9714H62.3799V67.9612H81.5239V64.9714Z" fill="white"/>
<path d="M71.2362 65.781H63.2988V67.1518H71.2362V65.781Z" fill="#073856"/>
<path d="M66.0239 65.7808H64.6611V67.1515H66.0239V65.7808Z" fill="#257999"/>
<path d="M73.6169 65.303H73.1396V65.8058H73.6169V65.303Z" fill="#073856"/>
<path d="M75.1073 65.3027H74.6309V65.8055H75.1073V65.3027Z" fill="#073856"/>
<path d="M76.597 65.3027H76.1201V65.8055H76.597V65.3027Z" fill="#073856"/>
<path d="M78.0882 65.3027H77.6113V65.8055H78.0882V65.3027Z" fill="#073856"/>
<path d="M79.578 65.3027H79.1016V65.8055H79.578V65.3027Z" fill="#073856"/>
<path d="M81.0686 65.3027H80.5918V65.8055H81.0686V65.3027Z" fill="#073856"/>
<path d="M73.6169 67.1257H73.1396V67.6285H73.6169V67.1257Z" fill="#073856"/>
<path d="M75.1073 67.1257H74.6309V67.6285H75.1073V67.1257Z" fill="#073856"/>
<path d="M76.597 67.1257H76.1201V67.6285H76.597V67.1257Z" fill="#073856"/>
<path d="M78.0882 67.1257H77.6113V67.6285H78.0882V67.1257Z" fill="#073856"/>
<path d="M79.578 67.1257H79.1016V67.6285H79.578V67.1257Z" fill="#073856"/>
<path d="M81.0686 67.1257H80.5918V67.6285H81.0686V67.1257Z" fill="#073856"/>
<path d="M73.6169 66.2144H73.1396V66.7172H73.6169V66.2144Z" fill="#073856"/>
<path d="M75.1073 66.2144H74.6309V66.7172H75.1073V66.2144Z" fill="#073856"/>
<path d="M76.597 66.2144H76.1201V66.7172H76.597V66.2144Z" fill="#073856"/>
<path d="M78.0882 66.2144H77.6113V66.7172H78.0882V66.2144Z" fill="#073856"/>
<path d="M79.578 66.2144H79.1016V66.7172H79.578V66.2144Z" fill="#073856"/>
<path d="M81.0686 66.2144H80.5918V66.7172H81.0686V66.2144Z" fill="#073856"/>
<path d="M81.5228 69.0447H62.3779V72.0345H81.5228V69.0447Z" fill="white"/>
<path d="M71.2348 69.8538H63.2979V71.2245H71.2348V69.8538Z" fill="#073856"/>
<path d="M66.0239 69.854H64.6611V71.2247H66.0239V69.854Z" fill="#257999"/>
<path d="M73.6151 69.3757H73.1387V69.8785H73.6151V69.3757Z" fill="#073856"/>
<path d="M75.1057 69.3757H74.6279V69.8785H75.1057V69.3757Z" fill="#073856"/>
<path d="M76.5955 69.3757H76.1191V69.8785H76.5955V69.3757Z" fill="#073856"/>
<path d="M78.0872 69.3757H77.6104V69.8785H78.0872V69.3757Z" fill="#073856"/>
<path d="M79.5774 69.3757H79.1006V69.8785H79.5774V69.3757Z" fill="#073856"/>
<path d="M81.0682 69.3757H80.5918V69.8785H81.0682V69.3757Z" fill="#073856"/>
<path d="M73.6151 71.1985H73.1387V71.7013H73.6151V71.1985Z" fill="#073856"/>
<path d="M75.1057 71.1985H74.6279V71.7013H75.1057V71.1985Z" fill="#073856"/>
<path d="M76.5955 71.1985H76.1191V71.7013H76.5955V71.1985Z" fill="#073856"/>
<path d="M78.0872 71.1985H77.6104V71.7013H78.0872V71.1985Z" fill="#073856"/>
<path d="M79.5774 71.1985H79.1006V71.7013H79.5774V71.1985Z" fill="#073856"/>
<path d="M81.0682 71.1985H80.5918V71.7013H81.0682V71.1985Z" fill="#073856"/>
<path d="M73.6151 70.2874H73.1387V70.7902H73.6151V70.2874Z" fill="#073856"/>
<path d="M75.1057 70.2874H74.6279V70.7902H75.1057V70.2874Z" fill="#073856"/>
<path d="M76.5955 70.2874H76.1191V70.7902H76.5955V70.2874Z" fill="#073856"/>
<path d="M78.0872 70.2874H77.6104V70.7902H78.0872V70.2874Z" fill="#073856"/>
<path d="M79.5774 70.2874H79.1006V70.7902H79.5774V70.2874Z" fill="#073856"/>
<path d="M81.0682 70.2874H80.5918V70.7902H81.0682V70.2874Z" fill="#073856"/>
<path d="M64.6608 72.718H61.6514V73.6906H64.6608V72.718Z" fill="#257999"/>
<path d="M82.3337 72.718H79.3242V73.6906H82.3337V72.718Z" fill="#257999"/>
<path d="M64.6608 82.0884H61.6514V83.0614H64.6608V82.0884Z" fill="#257999"/>
<path d="M82.3337 82.0884H79.3242V83.0614H82.3337V82.0884Z" fill="#257999"/>
<path d="M81.5239 83.7112H62.3799V86.7015H81.5239V83.7112Z" fill="white"/>
<path d="M71.2362 84.521H63.2988V85.8917H71.2362V84.521Z" fill="#073856"/>
<path d="M66.0239 84.521H64.6611V85.8917H66.0239V84.521Z" fill="#257999"/>
<path d="M73.6169 84.0427H73.1396V84.5455H73.6169V84.0427Z" fill="#073856"/>
<path d="M75.1073 84.0427H74.6309V84.5455H75.1073V84.0427Z" fill="#073856"/>
<path d="M76.597 84.0427H76.1201V84.5455H76.597V84.0427Z" fill="#073856"/>
<path d="M78.0882 84.0427H77.6113V84.5455H78.0882V84.0427Z" fill="#073856"/>
<path d="M79.578 84.0427H79.1016V84.5455H79.578V84.0427Z" fill="#073856"/>
<path d="M81.0686 84.0427H80.5918V84.5455H81.0686V84.0427Z" fill="#073856"/>
<path d="M73.6169 85.8657H73.1396V86.369H73.6169V85.8657Z" fill="#073856"/>
<path d="M75.1073 85.8657H74.6309V86.369H75.1073V85.8657Z" fill="#073856"/>
<path d="M76.597 85.8657H76.1201V86.369H76.597V85.8657Z" fill="#073856"/>
<path d="M78.0882 85.8657H77.6113V86.369H78.0882V85.8657Z" fill="#073856"/>
<path d="M79.578 85.8657H79.1016V86.369H79.578V85.8657Z" fill="#073856"/>
<path d="M81.0686 85.8657H80.5918V86.369H81.0686V85.8657Z" fill="#073856"/>
<path d="M73.6169 84.9541H73.1396V85.4564H73.6169V84.9541Z" fill="#073856"/>
<path d="M75.1073 84.9541H74.6309V85.4564H75.1073V84.9541Z" fill="#073856"/>
<path d="M76.597 84.9541H76.1201V85.4564H76.597V84.9541Z" fill="#073856"/>
<path d="M78.0882 84.9541H77.6113V85.4564H78.0882V84.9541Z" fill="#073856"/>
<path d="M79.578 84.9541H79.1016V85.4564H79.578V84.9541Z" fill="#073856"/>
<path d="M81.0686 84.9541H80.5918V85.4564H81.0686V84.9541Z" fill="#073856"/>
<path d="M81.5228 87.7844H62.3779V90.7738H81.5228V87.7844Z" fill="white"/>
<path d="M71.2348 88.5935H63.2979V89.9647H71.2348V88.5935Z" fill="#073856"/>
<path d="M66.0239 88.5935H64.6611V89.9647H66.0239V88.5935Z" fill="#257999"/>
<path d="M73.6151 88.1157H73.1387V88.6181H73.6151V88.1157Z" fill="#073856"/>
<path d="M75.1057 88.1157H74.6279V88.6181H75.1057V88.1157Z" fill="#073856"/>
<path d="M76.5955 88.1157H76.1191V88.6181H76.5955V88.1157Z" fill="#073856"/>
<path d="M78.0872 88.1157H77.6104V88.6181H78.0872V88.1157Z" fill="#073856"/>
<path d="M79.5774 88.1157H79.1006V88.6181H79.5774V88.1157Z" fill="#073856"/>
<path d="M81.0682 88.1157H80.5918V88.6181H81.0682V88.1157Z" fill="#073856"/>
<path d="M73.6151 89.9382H73.1387V90.442H73.6151V89.9382Z" fill="#073856"/>
<path d="M75.1057 89.9385H74.6279V90.4422H75.1057V89.9385Z" fill="#073856"/>
<path d="M76.5955 89.9385H76.1191V90.4422H76.5955V89.9385Z" fill="#073856"/>
<path d="M78.0872 89.9385H77.6104V90.4422H78.0872V89.9385Z" fill="#073856"/>
<path d="M79.5774 89.9385H79.1006V90.4422H79.5774V89.9385Z" fill="#073856"/>
<path d="M81.0682 89.9385H80.5918V90.4422H81.0682V89.9385Z" fill="#073856"/>
<path d="M73.6151 89.0271H73.1387V89.5299H73.6151V89.0271Z" fill="#073856"/>
<path d="M75.1057 89.0271H74.6279V89.5299H75.1057V89.0271Z" fill="#073856"/>
<path d="M76.5955 89.0271H76.1191V89.5299H76.5955V89.0271Z" fill="#073856"/>
<path d="M78.0872 89.0271H77.6104V89.5299H78.0872V89.0271Z" fill="#073856"/>
<path d="M79.5774 89.0271H79.1006V89.5299H79.5774V89.0271Z" fill="#073856"/>
<path d="M81.0682 89.0271H80.5918V89.5299H81.0682V89.0271Z" fill="#073856"/>
<path d="M64.6608 91.4587H61.6514V92.4308H64.6608V91.4587Z" fill="#257999"/>
<path d="M82.3337 91.4587H79.3242V92.4308H82.3337V91.4587Z" fill="#257999"/>
<path d="M81.5228 97.1548H62.3779V100.145H81.5228V97.1548Z" fill="white"/>
<path d="M71.2348 97.9641H63.2979V99.3353H71.2348V97.9641Z" fill="#073856"/>
<path d="M66.0239 97.9641H64.6611V99.3353H66.0239V97.9641Z" fill="#257999"/>
<path d="M73.6151 97.4856H73.1387V97.9893H73.6151V97.4856Z" fill="#073856"/>
<path d="M75.1057 97.4856H74.6279V97.9893H75.1057V97.4856Z" fill="#073856"/>
<path d="M76.5955 97.4856H76.1191V97.9893H76.5955V97.4856Z" fill="#073856"/>
<path d="M78.0872 97.4856H77.6104V97.9893H78.0872V97.4856Z" fill="#073856"/>
<path d="M79.5774 97.4856H79.1006V97.9893H79.5774V97.4856Z" fill="#073856"/>
<path d="M81.0682 97.4856H80.5918V97.9893H81.0682V97.4856Z" fill="#073856"/>
<path d="M73.6151 99.3096H73.1387V99.8119H73.6151V99.3096Z" fill="#073856"/>
<path d="M75.1057 99.3096H74.6279V99.8119H75.1057V99.3096Z" fill="#073856"/>
<path d="M76.5955 99.3096H76.1191V99.8119H76.5955V99.3096Z" fill="#073856"/>
<path d="M78.0872 99.3096H77.6104V99.8119H78.0872V99.3096Z" fill="#073856"/>
<path d="M79.5774 99.3096H79.1006V99.8119H79.5774V99.3096Z" fill="#073856"/>
<path d="M81.0682 99.3096H80.5918V99.8119H81.0682V99.3096Z" fill="#073856"/>
<path d="M73.6151 98.3979H73.1387V98.9008H73.6151V98.3979Z" fill="#073856"/>
<path d="M75.1057 98.3977H74.6279V98.9005H75.1057V98.3977Z" fill="#073856"/>
<path d="M76.5955 98.3977H76.1191V98.9005H76.5955V98.3977Z" fill="#073856"/>
<path d="M78.0872 98.3977H77.6104V98.9005H78.0872V98.3977Z" fill="#073856"/>
<path d="M79.5774 98.3977H79.1006V98.9005H79.5774V98.3977Z" fill="#073856"/>
<path d="M81.0682 98.3977H80.5918V98.9005H81.0682V98.3977Z" fill="#073856"/>
<path d="M64.6608 100.829H61.6514V101.801H64.6608V100.829Z" fill="#257999"/>
<path d="M82.3337 100.829H79.3242V101.801H82.3337V100.829Z" fill="#257999"/>
<path d="M81.5239 102.452H62.3799V105.442H81.5239V102.452Z" fill="white"/>
<path d="M71.2362 103.261H63.2988V104.632H71.2362V103.261Z" fill="#073856"/>
<path d="M66.0239 103.261H64.6611V104.632H66.0239V103.261Z" fill="#257999"/>
<path d="M73.6169 102.783H73.1396V103.286H73.6169V102.783Z" fill="#073856"/>
<path d="M75.1073 102.783H74.6309V103.286H75.1073V102.783Z" fill="#073856"/>
<path d="M76.597 102.783H76.1201V103.286H76.597V102.783Z" fill="#073856"/>
<path d="M78.0882 102.783H77.6113V103.286H78.0882V102.783Z" fill="#073856"/>
<path d="M79.578 102.783H79.1016V103.286H79.578V102.783Z" fill="#073856"/>
<path d="M81.0686 102.783H80.5918V103.286H81.0686V102.783Z" fill="#073856"/>
<path d="M73.6169 104.605H73.1396V105.109H73.6169V104.605Z" fill="#073856"/>
<path d="M75.1073 104.605H74.6309V105.109H75.1073V104.605Z" fill="#073856"/>
<path d="M76.597 104.605H76.1201V105.109H76.597V104.605Z" fill="#073856"/>
<path d="M78.0882 104.605H77.6113V105.109H78.0882V104.605Z" fill="#073856"/>
<path d="M79.578 104.605H79.1016V105.109H79.578V104.605Z" fill="#073856"/>
<path d="M81.0686 104.605H80.5918V105.109H81.0686V104.605Z" fill="#073856"/>
<path d="M73.6169 103.695H73.1396V104.198H73.6169V103.695Z" fill="#073856"/>
<path d="M75.1073 103.695H74.6309V104.198H75.1073V103.695Z" fill="#073856"/>
<path d="M76.597 103.695H76.1201V104.198H76.597V103.695Z" fill="#073856"/>
<path d="M78.0882 103.695H77.6113V104.198H78.0882V103.695Z" fill="#073856"/>
<path d="M79.578 103.695H79.1016V104.198H79.578V103.695Z" fill="#073856"/>
<path d="M81.0686 103.695H80.5918V104.198H81.0686V103.695Z" fill="#073856"/>
<path d="M81.5228 106.525H62.3779V109.515H81.5228V106.525Z" fill="white"/>
<path d="M71.2348 107.334H63.2979V108.706H71.2348V107.334Z" fill="#073856"/>
<path d="M66.0239 107.334H64.6611V108.706H66.0239V107.334Z" fill="#257999"/>
<path d="M73.6151 106.856H73.1387V107.359H73.6151V106.856Z" fill="#073856"/>
<path d="M75.1057 106.856H74.6279V107.359H75.1057V106.856Z" fill="#073856"/>
<path d="M76.5955 106.856H76.1191V107.359H76.5955V106.856Z" fill="#073856"/>
<path d="M78.0872 106.856H77.6104V107.359H78.0872V106.856Z" fill="#073856"/>
<path d="M79.5774 106.856H79.1006V107.359H79.5774V106.856Z" fill="#073856"/>
<path d="M81.0682 106.856H80.5918V107.359H81.0682V106.856Z" fill="#073856"/>
<path d="M73.6151 108.679H73.1387V109.182H73.6151V108.679Z" fill="#073856"/>
<path d="M75.1057 108.679H74.6279V109.182H75.1057V108.679Z" fill="#073856"/>
<path d="M76.5955 108.679H76.1191V109.182H76.5955V108.679Z" fill="#073856"/>
<path d="M78.0872 108.679H77.6104V109.182H78.0872V108.679Z" fill="#073856"/>
<path d="M79.5774 108.679H79.1006V109.182H79.5774V108.679Z" fill="#073856"/>
<path d="M81.0682 108.679H80.5918V109.182H81.0682V108.679Z" fill="#073856"/>
<path d="M73.6151 107.767H73.1387V108.27H73.6151V107.767Z" fill="#073856"/>
<path d="M75.1057 107.767H74.6279V108.27H75.1057V107.767Z" fill="#073856"/>
<path d="M76.5955 107.767H76.1191V108.27H76.5955V107.767Z" fill="#073856"/>
<path d="M78.0872 107.767H77.6104V108.27H78.0872V107.767Z" fill="#073856"/>
<path d="M79.5774 107.767H79.1006V108.27H79.5774V107.767Z" fill="#073856"/>
<path d="M81.0682 107.767H80.5918V108.27H81.0682V107.767Z" fill="#073856"/>
<path d="M64.6608 110.199H61.6514V111.171H64.6608V110.199Z" fill="#257999"/>
<path d="M82.3337 110.199H79.3242V111.171H82.3337V110.199Z" fill="#257999"/>
<path d="M79.1082 113.496C79.1082 113.741 78.9206 113.939 78.6893 113.939H64.8569C64.6257 113.939 64.4385 113.741 64.4385 113.496C64.4385 113.251 64.6261 113.054 64.8569 113.054H78.6893C78.9206 113.053 79.1082 113.251 79.1082 113.496Z" fill="#FFD008"/>
<path d="M64.4385 113.497C64.4385 113.741 64.6261 113.938 64.8569 113.938H78.6893C78.921 113.938 79.1082 113.741 79.1082 113.497H64.4385Z" fill="#FFA70B"/>
<path d="M79.1082 114.382C79.1082 114.627 78.9206 114.825 78.6893 114.825H64.8569C64.6257 114.825 64.4385 114.626 64.4385 114.382C64.4385 114.137 64.6261 113.939 64.8569 113.939H78.6893C78.9206 113.939 79.1082 114.137 79.1082 114.382Z" fill="#FFD008"/>
<path d="M64.4385 114.383C64.4385 114.627 64.6261 114.824 64.8569 114.824H78.6893C78.921 114.824 79.1082 114.626 79.1082 114.383H64.4385Z" fill="#FFA70B"/>
<path d="M79.1082 112.611C79.1082 112.856 78.9206 113.054 78.6893 113.054H64.8569C64.6257 113.054 64.4385 112.855 64.4385 112.611C64.4385 112.366 64.6261 112.168 64.8569 112.168H78.6893C78.9206 112.168 79.1082 112.366 79.1082 112.611Z" fill="#FFD008"/>
<path d="M64.4385 112.611C64.4385 112.855 64.6261 113.053 64.8569 113.053H78.6893C78.921 113.053 79.1082 112.855 79.1082 112.611H64.4385Z" fill="#FFA70B"/>
<path d="M79.1082 115.267C79.1082 115.512 78.9206 115.71 78.6893 115.71H64.8569C64.6257 115.71 64.4385 115.512 64.4385 115.267C64.4385 115.023 64.6261 114.825 64.8569 114.825H78.6893C78.9206 114.825 79.1082 115.023 79.1082 115.267Z" fill="#FFD008"/>
<path d="M64.4385 115.267C64.4385 115.512 64.6261 115.709 64.8569 115.709H78.6893C78.921 115.709 79.1082 115.511 79.1082 115.267H64.4385Z" fill="#FFA70B"/>
<path d="M77.8497 119.827H75.2146C74.3461 119.827 73.6397 119.08 73.6397 118.161V116.49C73.6397 116.068 73.3795 115.711 73.0715 115.711H72.084V114.825H73.0715C73.8465 114.825 74.4771 115.573 74.4771 116.49V118.161C74.4771 118.591 74.8082 118.941 75.2146 118.941H77.8497V119.827Z" fill="#FFD008"/>
<path d="M73.6392 116.49V118.161C73.6392 119.08 74.3455 119.827 75.2141 119.827H77.8492V119.385H75.2141C74.5751 119.385 74.0577 118.837 74.0577 118.161V116.49C74.0577 115.814 73.6156 115.268 73.0706 115.268C72.821 115.268 72.4319 115.268 72.083 115.268V115.71H73.0706C73.3789 115.711 73.6392 116.068 73.6392 116.49Z" fill="#FFA70B"/>
<path d="M79.5777 119.097H79.0371V119.67H79.5777V119.097Z" fill="#EAEAEA"/>
<path d="M79.469 119.356H79.1455V119.41H79.469V119.356Z" fill="#0092FF"/>
<path d="M79.469 119.247H79.1455V119.301H79.469V119.247Z" fill="#FF0000"/>
<path d="M79.469 119.466H79.1455V119.519H79.469V119.466Z" fill="#00FF67"/>
<path d="M79.0376 118.94H77.7773V119.826H79.0376V118.94Z" fill="white"/>
<path d="M78.8265 119.097H77.9883V119.67H78.8265V119.097Z" fill="#BAB6AF"/>
<path d="M152.068 52.627H127.556V117.789H152.068V52.627Z" fill="#073856"/>
<path d="M155.291 119.826H124.335V50.5898H155.291V119.826ZM128.54 115.753H151.086V54.6634H128.54V115.753Z" fill="#0A3542"/>
<path d="M153.995 119.826H125.63V50.5898H153.995V119.826ZM129.483 115.753H150.143V54.6634H129.483V115.753Z" fill="#283770"/>
<path d="M131.482 51.0612H129.472V53.1868H131.482V51.0612Z" fill="white"/>
<path d="M150.154 51.0612H148.145V53.1868H150.154V51.0612Z" fill="white"/>
<path d="M149.344 55.6016H130.199V58.5918H149.344V55.6016Z" fill="white"/>
<path d="M139.057 56.4105H131.119V57.7822H139.057V56.4105Z" fill="#073856"/>
<path d="M133.844 56.4105H132.48V57.7822H133.844V56.4105Z" fill="#257999"/>
<path d="M141.437 55.9327H140.96V56.4355H141.437V55.9327Z" fill="#073856"/>
<path d="M142.927 55.9327H142.45V56.4355H142.927V55.9327Z" fill="#073856"/>
<path d="M144.417 55.9327H143.94V56.4355H144.417V55.9327Z" fill="#073856"/>
<path d="M145.909 55.9327H145.432V56.4355H145.909V55.9327Z" fill="#073856"/>
<path d="M147.398 55.9327H146.921V56.4355H147.398V55.9327Z" fill="#073856"/>
<path d="M148.889 55.9327H148.413V56.4355H148.889V55.9327Z" fill="#073856"/>
<path d="M141.437 57.7559H140.96V58.2591H141.437V57.7559Z" fill="#073856"/>
<path d="M142.927 57.7559H142.45V58.2591H142.927V57.7559Z" fill="#073856"/>
<path d="M144.417 57.7559H143.94V58.2591H144.417V57.7559Z" fill="#073856"/>
<path d="M145.909 57.7559H145.432V58.2591H145.909V57.7559Z" fill="#073856"/>
<path d="M147.398 57.7559H146.921V58.2591H147.398V57.7559Z" fill="#073856"/>
<path d="M148.889 57.7559H148.413V58.2591H148.889V57.7559Z" fill="#073856"/>
<path d="M141.437 56.8447H140.96V57.348H141.437V56.8447Z" fill="#073856"/>
<path d="M142.927 56.8447H142.45V57.348H142.927V56.8447Z" fill="#073856"/>
<path d="M144.417 56.8447H143.94V57.348H144.417V56.8447Z" fill="#073856"/>
<path d="M145.909 56.8447H145.432V57.348H145.909V56.8447Z" fill="#073856"/>
<path d="M147.398 56.8447H146.921V57.348H147.398V56.8447Z" fill="#073856"/>
<path d="M148.889 56.8447H148.413V57.348H148.889V56.8447Z" fill="#073856"/>
<path d="M149.343 59.6741H130.198V62.6644H149.343V59.6741Z" fill="white"/>
<path d="M139.055 60.4838H131.117V61.8554H139.055V60.4838Z" fill="#073856"/>
<path d="M133.844 60.4838H132.48V61.8554H133.844V60.4838Z" fill="#257999"/>
<path d="M141.437 60.006H140.96V60.5088H141.437V60.006Z" fill="#073856"/>
<path d="M142.927 60.006H142.45V60.5088H142.927V60.006Z" fill="#073856"/>
<path d="M144.418 60.006H143.941V60.5088H144.418V60.006Z" fill="#073856"/>
<path d="M145.908 60.006H145.431V60.5088H145.908V60.006Z" fill="#073856"/>
<path d="M147.398 60.006H146.921V60.5088H147.398V60.006Z" fill="#073856"/>
<path d="M148.889 60.006H148.412V60.5088H148.889V60.006Z" fill="#073856"/>
<path d="M141.437 61.8287H140.96V62.332H141.437V61.8287Z" fill="#073856"/>
<path d="M142.927 61.8287H142.45V62.332H142.927V61.8287Z" fill="#073856"/>
<path d="M144.418 61.8287H143.941V62.332H144.418V61.8287Z" fill="#073856"/>
<path d="M145.908 61.8287H145.431V62.332H145.908V61.8287Z" fill="#073856"/>
<path d="M147.398 61.8287H146.921V62.332H147.398V61.8287Z" fill="#073856"/>
<path d="M148.889 61.8287H148.412V62.332H148.889V61.8287Z" fill="#073856"/>
<path d="M141.437 60.9174H140.96V61.4206H141.437V60.9174Z" fill="#073856"/>
<path d="M142.927 60.9174H142.45V61.4206H142.927V60.9174Z" fill="#073856"/>
<path d="M144.418 60.9174H143.941V61.4206H144.418V60.9174Z" fill="#073856"/>
<path d="M145.908 60.9174H145.431V61.4206H145.908V60.9174Z" fill="#073856"/>
<path d="M147.398 60.9174H146.921V61.4206H147.398V60.9174Z" fill="#073856"/>
<path d="M148.889 60.9174H148.412V61.4206H148.889V60.9174Z" fill="#073856"/>
<path d="M132.481 63.3488H129.471V64.3209H132.481V63.3488Z" fill="#257999"/>
<path d="M150.155 63.3488H147.145V64.3209H150.155V63.3488Z" fill="#257999"/>
<path d="M149.344 64.9717H130.199V67.9615H149.344V64.9717Z" fill="white"/>
<path d="M139.057 65.781H131.119V67.1518H139.057V65.781Z" fill="#073856"/>
<path d="M133.844 65.7812H132.48V67.152H133.844V65.7812Z" fill="#257999"/>
<path d="M141.437 65.3032H140.96V65.806H141.437V65.3032Z" fill="#073856"/>
<path d="M142.927 65.3032H142.45V65.806H142.927V65.3032Z" fill="#073856"/>
<path d="M144.417 65.3032H143.94V65.806H144.417V65.3032Z" fill="#073856"/>
<path d="M145.909 65.3032H145.432V65.806H145.909V65.3032Z" fill="#073856"/>
<path d="M147.398 65.3032H146.921V65.806H147.398V65.3032Z" fill="#073856"/>
<path d="M148.889 65.3032H148.413V65.806H148.889V65.3032Z" fill="#073856"/>
<path d="M141.437 67.126H140.96V67.6288H141.437V67.126Z" fill="#073856"/>
<path d="M142.927 67.126H142.45V67.6288H142.927V67.126Z" fill="#073856"/>
<path d="M144.417 67.126H143.94V67.6288H144.417V67.126Z" fill="#073856"/>
<path d="M145.909 67.126H145.432V67.6288H145.909V67.126Z" fill="#073856"/>
<path d="M147.398 67.126H146.921V67.6288H147.398V67.126Z" fill="#073856"/>
<path d="M148.889 67.126H148.413V67.6288H148.889V67.126Z" fill="#073856"/>
<path d="M141.437 66.2146H140.96V66.7174H141.437V66.2146Z" fill="#073856"/>
<path d="M142.927 66.2146H142.45V66.7174H142.927V66.2146Z" fill="#073856"/>
<path d="M144.417 66.2146H143.94V66.7174H144.417V66.2146Z" fill="#073856"/>
<path d="M145.909 66.2146H145.432V66.7174H145.909V66.2146Z" fill="#073856"/>
<path d="M147.398 66.2146H146.921V66.7174H147.398V66.2146Z" fill="#073856"/>
<path d="M148.889 66.2146H148.413V66.7174H148.889V66.2146Z" fill="#073856"/>
<path d="M149.343 69.0447H130.198V72.0345H149.343V69.0447Z" fill="white"/>
<path d="M139.055 69.8538H131.117V71.2245H139.055V69.8538Z" fill="#073856"/>
<path d="M133.844 69.854H132.48V71.2247H133.844V69.854Z" fill="#257999"/>
<path d="M141.437 69.3757H140.96V69.8785H141.437V69.3757Z" fill="#073856"/>
<path d="M142.927 69.3757H142.45V69.8785H142.927V69.3757Z" fill="#073856"/>
<path d="M144.418 69.3757H143.941V69.8785H144.418V69.3757Z" fill="#073856"/>
<path d="M145.908 69.3757H145.431V69.8785H145.908V69.3757Z" fill="#073856"/>
<path d="M147.398 69.3757H146.921V69.8785H147.398V69.3757Z" fill="#073856"/>
<path d="M148.889 69.3757H148.412V69.8785H148.889V69.3757Z" fill="#073856"/>
<path d="M141.437 71.1985H140.96V71.7013H141.437V71.1985Z" fill="#073856"/>
<path d="M142.927 71.1985H142.45V71.7013H142.927V71.1985Z" fill="#073856"/>
<path d="M144.418 71.1985H143.941V71.7013H144.418V71.1985Z" fill="#073856"/>
<path d="M145.908 71.1985H145.431V71.7013H145.908V71.1985Z" fill="#073856"/>
<path d="M147.398 71.1985H146.921V71.7013H147.398V71.1985Z" fill="#073856"/>
<path d="M148.889 71.1985H148.412V71.7013H148.889V71.1985Z" fill="#073856"/>
<path d="M141.437 70.2874H140.96V70.7902H141.437V70.2874Z" fill="#073856"/>
<path d="M142.927 70.2874H142.45V70.7902H142.927V70.2874Z" fill="#073856"/>
<path d="M144.418 70.2874H143.941V70.7902H144.418V70.2874Z" fill="#073856"/>
<path d="M145.908 70.2874H145.431V70.7902H145.908V70.2874Z" fill="#073856"/>
<path d="M147.398 70.2874H146.921V70.7902H147.398V70.2874Z" fill="#073856"/>
<path d="M148.889 70.2874H148.412V70.7902H148.889V70.2874Z" fill="#073856"/>
<path d="M132.481 72.7183H129.471V73.6908H132.481V72.7183Z" fill="#257999"/>
<path d="M150.155 72.7183H147.145V73.6908H150.155V72.7183Z" fill="#257999"/>
<path d="M132.481 91.4587H129.471V92.4308H132.481V91.4587Z" fill="#257999"/>
<path d="M150.155 91.4587H147.145V92.4308H150.155V91.4587Z" fill="#257999"/>
<path d="M130.743 90.9729H129.97V91.945H130.743V90.9729Z" fill="#DBDBDB"/>
<path d="M132.163 90.9729H131.389V91.945H132.163V90.9729Z" fill="#DBDBDB"/>
<path d="M133.584 90.9729H132.811V91.945H133.584V90.9729Z" fill="#DBDBDB"/>
<path d="M135.005 90.9729H134.23V91.945H135.005V90.9729Z" fill="#DBDBDB"/>
<path d="M136.541 90.9729H135.768V91.945H136.541V90.9729Z" fill="#DBDBDB"/>
<path d="M137.962 90.9729H137.188V91.945H137.962V90.9729Z" fill="#DBDBDB"/>
<path d="M139.384 90.9729H138.61V91.945H139.384V90.9729Z" fill="#DBDBDB"/>
<path d="M140.802 90.9729H140.028V91.945H140.802V90.9729Z" fill="#DBDBDB"/>
<path d="M142.353 90.9724H141.578V91.9445H142.353V90.9724Z" fill="#DBDBDB"/>
<path d="M143.772 90.9724H142.998V91.9445H143.772V90.9724Z" fill="#DBDBDB"/>
<path d="M145.193 90.9724H144.419V91.9445H145.193V90.9724Z" fill="#DBDBDB"/>
<path d="M146.613 90.9724H145.839V91.9445H146.613V90.9724Z" fill="#DBDBDB"/>
<path d="M148.151 90.9724H147.377V91.9445H148.151V90.9724Z" fill="#DBDBDB"/>
<path d="M149.571 90.9724H148.797V91.9445H149.571V90.9724Z" fill="#DBDBDB"/>
<path d="M150.154 91.4587H129.471V92.4308H150.154V91.4587Z" fill="white"/>
<path d="M149.344 93.082H130.199V96.0714H149.344V93.082Z" fill="white"/>
<path d="M139.057 93.8914H131.119V95.2626H139.057V93.8914Z" fill="#073856"/>
<path d="M133.844 93.8914H132.48V95.2626H133.844V93.8914Z" fill="#257999"/>
<path d="M141.437 93.4128H140.96V93.9166H141.437V93.4128Z" fill="#073856"/>
<path d="M142.927 93.4126H142.45V93.9163H142.927V93.4126Z" fill="#073856"/>
<path d="M144.417 93.4126H143.94V93.9163H144.417V93.4126Z" fill="#073856"/>
<path d="M145.909 93.4128H145.432V93.9166H145.909V93.4128Z" fill="#073856"/>
<path d="M147.398 93.4128H146.921V93.9166H147.398V93.4128Z" fill="#073856"/>
<path d="M148.889 93.4128H148.413V93.9166H148.889V93.4128Z" fill="#073856"/>
<path d="M141.437 95.2366H140.96V95.7394H141.437V95.2366Z" fill="#073856"/>
<path d="M142.927 95.2368H142.45V95.7396H142.927V95.2368Z" fill="#073856"/>
<path d="M144.417 95.2368H143.94V95.7396H144.417V95.2368Z" fill="#073856"/>
<path d="M145.909 95.2368H145.432V95.7396H145.909V95.2368Z" fill="#073856"/>
<path d="M147.398 95.2368H146.921V95.7396H147.398V95.2368Z" fill="#073856"/>
<path d="M148.889 95.2368H148.413V95.7396H148.889V95.2368Z" fill="#073856"/>
<path d="M141.437 94.3247H140.96V94.828H141.437V94.3247Z" fill="#073856"/>
<path d="M142.927 94.3247H142.45V94.828H142.927V94.3247Z" fill="#073856"/>
<path d="M144.417 94.3247H143.94V94.828H144.417V94.3247Z" fill="#073856"/>
<path d="M145.909 94.325H145.432V94.8282H145.909V94.325Z" fill="#073856"/>
<path d="M147.398 94.325H146.921V94.8282H147.398V94.325Z" fill="#073856"/>
<path d="M148.889 94.325H148.413V94.8282H148.889V94.325Z" fill="#073856"/>
<path d="M149.343 97.1545H130.198V100.144H149.343V97.1545Z" fill="white"/>
<path d="M139.055 97.9639H131.117V99.3351H139.055V97.9639Z" fill="#073856"/>
<path d="M133.844 97.9639H132.48V99.3351H133.844V97.9639Z" fill="#257999"/>
<path d="M141.437 97.4854H140.96V97.9891H141.437V97.4854Z" fill="#073856"/>
<path d="M142.927 97.4854H142.45V97.9891H142.927V97.4854Z" fill="#073856"/>
<path d="M144.418 97.4854H143.941V97.9891H144.418V97.4854Z" fill="#073856"/>
<path d="M145.908 97.4854H145.431V97.9891H145.908V97.4854Z" fill="#073856"/>
<path d="M147.398 97.4854H146.921V97.9891H147.398V97.4854Z" fill="#073856"/>
<path d="M148.889 97.4854H148.412V97.9891H148.889V97.4854Z" fill="#073856"/>
<path d="M141.437 99.3093H140.96V99.8117H141.437V99.3093Z" fill="#073856"/>
<path d="M142.927 99.3093H142.45V99.8117H142.927V99.3093Z" fill="#073856"/>
<path d="M144.418 99.3093H143.941V99.8117H144.418V99.3093Z" fill="#073856"/>
<path d="M145.908 99.3093H145.431V99.8117H145.908V99.3093Z" fill="#073856"/>
<path d="M147.398 99.3093H146.921V99.8117H147.398V99.3093Z" fill="#073856"/>
<path d="M148.889 99.3093H148.412V99.8117H148.889V99.3093Z" fill="#073856"/>
<path d="M141.437 98.3977H140.96V98.9005H141.437V98.3977Z" fill="#073856"/>
<path d="M142.927 98.3977H142.45V98.9005H142.927V98.3977Z" fill="#073856"/>
<path d="M144.418 98.3977H143.941V98.9005H144.418V98.3977Z" fill="#073856"/>
<path d="M145.908 98.3977H145.431V98.9005H145.908V98.3977Z" fill="#073856"/>
<path d="M147.398 98.3977H146.921V98.9005H147.398V98.3977Z" fill="#073856"/>
<path d="M148.889 98.3977H148.412V98.9005H148.889V98.3977Z" fill="#073856"/>
<path d="M132.481 100.829H129.471V101.801H132.481V100.829Z" fill="#257999"/>
<path d="M150.155 100.829H147.145V101.801H150.155V100.829Z" fill="#257999"/>
<path d="M149.344 102.452H130.199V105.442H149.344V102.452Z" fill="white"/>
<path d="M139.057 103.261H131.119V104.632H139.057V103.261Z" fill="#073856"/>
<path d="M133.844 103.261H132.48V104.632H133.844V103.261Z" fill="#257999"/>
<path d="M141.437 102.783H140.96V103.286H141.437V102.783Z" fill="#073856"/>
<path d="M142.927 102.783H142.45V103.286H142.927V102.783Z" fill="#073856"/>
<path d="M144.417 102.783H143.94V103.286H144.417V102.783Z" fill="#073856"/>
<path d="M145.909 102.783H145.432V103.286H145.909V102.783Z" fill="#073856"/>
<path d="M147.398 102.783H146.921V103.286H147.398V102.783Z" fill="#073856"/>
<path d="M148.889 102.783H148.413V103.286H148.889V102.783Z" fill="#073856"/>
<path d="M141.437 104.606H140.96V105.109H141.437V104.606Z" fill="#073856"/>
<path d="M142.927 104.606H142.45V105.109H142.927V104.606Z" fill="#073856"/>
<path d="M144.417 104.606H143.94V105.109H144.417V104.606Z" fill="#073856"/>
<path d="M145.909 104.606H145.432V105.109H145.909V104.606Z" fill="#073856"/>
<path d="M147.398 104.606H146.921V105.109H147.398V104.606Z" fill="#073856"/>
<path d="M148.889 104.606H148.413V105.109H148.889V104.606Z" fill="#073856"/>
<path d="M141.437 103.695H140.96V104.198H141.437V103.695Z" fill="#073856"/>
<path d="M142.927 103.695H142.45V104.198H142.927V103.695Z" fill="#073856"/>
<path d="M144.417 103.695H143.94V104.198H144.417V103.695Z" fill="#073856"/>
<path d="M145.909 103.695H145.432V104.198H145.909V103.695Z" fill="#073856"/>
<path d="M147.398 103.695H146.921V104.198H147.398V103.695Z" fill="#073856"/>
<path d="M148.889 103.695H148.413V104.198H148.889V103.695Z" fill="#073856"/>
<path d="M149.343 106.525H130.198V109.515H149.343V106.525Z" fill="white"/>
<path d="M139.055 107.334H131.117V108.706H139.055V107.334Z" fill="#073856"/>
<path d="M133.844 107.334H132.48V108.706H133.844V107.334Z" fill="#257999"/>
<path d="M141.437 106.856H140.96V107.359H141.437V106.856Z" fill="#073856"/>
<path d="M142.927 106.856H142.45V107.359H142.927V106.856Z" fill="#073856"/>
<path d="M144.418 106.856H143.941V107.359H144.418V106.856Z" fill="#073856"/>
<path d="M145.908 106.856H145.431V107.359H145.908V106.856Z" fill="#073856"/>
<path d="M147.398 106.856H146.921V107.359H147.398V106.856Z" fill="#073856"/>
<path d="M148.889 106.856H148.412V107.359H148.889V106.856Z" fill="#073856"/>
<path d="M141.437 108.679H140.96V109.182H141.437V108.679Z" fill="#073856"/>
<path d="M142.927 108.679H142.45V109.182H142.927V108.679Z" fill="#073856"/>
<path d="M144.418 108.679H143.941V109.182H144.418V108.679Z" fill="#073856"/>
<path d="M145.908 108.679H145.431V109.182H145.908V108.679Z" fill="#073856"/>
<path d="M147.398 108.679H146.921V109.182H147.398V108.679Z" fill="#073856"/>
<path d="M148.889 108.679H148.412V109.182H148.889V108.679Z" fill="#073856"/>
<path d="M141.437 107.767H140.96V108.27H141.437V107.767Z" fill="#073856"/>
<path d="M142.927 107.767H142.45V108.27H142.927V107.767Z" fill="#073856"/>
<path d="M144.418 107.767H143.941V108.27H144.418V107.767Z" fill="#073856"/>
<path d="M145.908 107.767H145.431V108.27H145.908V107.767Z" fill="#073856"/>
<path d="M147.398 107.767H146.921V108.27H147.398V107.767Z" fill="#073856"/>
<path d="M148.889 107.767H148.412V108.27H148.889V107.767Z" fill="#073856"/>
<path d="M132.481 110.199H129.471V111.171H132.481V110.199Z" fill="#257999"/>
<path d="M150.155 110.199H147.145V111.171H150.155V110.199Z" fill="#257999"/>
<path d="M146.929 113.496C146.929 113.741 146.741 113.939 146.51 113.939H132.677C132.446 113.939 132.259 113.741 132.259 113.496C132.259 113.251 132.446 113.054 132.677 113.054H146.51C146.741 113.053 146.929 113.251 146.929 113.496Z" fill="#FFD008"/>
<path d="M132.259 113.497C132.259 113.741 132.446 113.938 132.677 113.938H146.51C146.741 113.938 146.929 113.741 146.929 113.497H132.259Z" fill="#FFA70B"/>
<path d="M146.929 114.382C146.929 114.627 146.741 114.825 146.51 114.825H132.677C132.446 114.825 132.259 114.626 132.259 114.382C132.259 114.137 132.446 113.939 132.677 113.939H146.51C146.741 113.939 146.929 114.137 146.929 114.382Z" fill="#FFD008"/>
<path d="M132.259 114.383C132.259 114.627 132.446 114.824 132.677 114.824H146.51C146.741 114.824 146.929 114.626 146.929 114.383H132.259Z" fill="#FFA70B"/>
<path d="M146.929 112.611C146.929 112.856 146.741 113.054 146.51 113.054H132.677C132.446 113.054 132.259 112.855 132.259 112.611C132.259 112.366 132.446 112.168 132.677 112.168H146.51C146.741 112.168 146.929 112.366 146.929 112.611Z" fill="#FFD008"/>
<path d="M132.259 112.611C132.259 112.855 132.446 113.053 132.677 113.053H146.51C146.741 113.053 146.929 112.855 146.929 112.611H132.259Z" fill="#FFA70B"/>
<path d="M146.929 115.267C146.929 115.512 146.741 115.71 146.51 115.71H132.677C132.446 115.71 132.259 115.512 132.259 115.267C132.259 115.023 132.446 114.825 132.677 114.825H146.51C146.741 114.825 146.929 115.023 146.929 115.267Z" fill="#FFD008"/>
<path d="M132.259 115.267C132.259 115.512 132.446 115.709 132.677 115.709H146.51C146.741 115.709 146.929 115.511 146.929 115.267H132.259Z" fill="#FFA70B"/>
<path d="M145.669 119.826H143.034C142.165 119.826 141.459 119.079 141.459 118.161V116.489C141.459 116.067 141.199 115.71 140.891 115.71H139.903V114.825H140.891C141.666 114.825 142.297 115.572 142.297 116.489V118.161C142.297 118.591 142.627 118.94 143.034 118.94H145.669V119.826Z" fill="#FFD008"/>
<path d="M141.458 116.49V118.161C141.458 119.079 142.165 119.826 143.033 119.826H145.669V119.384H143.033C142.395 119.384 141.877 118.837 141.877 118.161V116.49C141.877 115.814 141.435 115.267 140.89 115.267C140.64 115.267 140.251 115.267 139.902 115.267V115.71H140.89C141.198 115.71 141.458 116.067 141.458 116.49Z" fill="#FFA70B"/>
<path d="M147.397 119.097H146.856V119.67H147.397V119.097Z" fill="#EAEAEA"/>
<path d="M147.289 119.356H146.965V119.41H147.289V119.356Z" fill="#0092FF"/>
<path d="M147.288 119.247H146.964V119.301H147.288V119.247Z" fill="#FF0000"/>
<path d="M147.289 119.466H146.965V119.519H147.289V119.466Z" fill="#00FF67"/>
<path d="M146.856 118.94H145.597V119.826H146.856V118.94Z" fill="white"/>
<path d="M146.645 119.097H145.807V119.67H146.645V119.097Z" fill="#BAB6AF"/>
<path d="M98.5828 86.4587H91.0081C90.1396 86.4587 89.4332 85.7119 89.4332 84.7939V59.3275C89.4332 58.9053 89.173 58.5481 88.8655 58.5481H87.8779V57.6627H88.8655C89.64 57.6627 90.2706 58.4096 90.2706 59.3275V84.7939C90.2706 85.2237 90.6017 85.5733 91.0081 85.5733H98.5828V86.4587Z" fill="#FFD008"/>
<path d="M89.4327 59.3275V84.794C89.4327 85.7119 90.139 86.4588 91.0076 86.4588H98.5822V86.0163H91.0076C90.3686 86.0163 89.8516 85.4692 89.8516 84.794V59.3275C89.8516 58.6518 89.4091 58.1052 88.8645 58.1052C88.6145 58.1052 88.225 58.1052 87.877 58.1052V58.5477H88.8645C89.172 58.5477 89.4327 58.9049 89.4327 59.3275Z" fill="#FFA70B"/>
<path d="M100.311 85.73H99.7705V86.3025H100.311V85.73Z" fill="#EAEAEA"/>
<path d="M100.201 85.9895H99.8779V86.0436H100.201V85.9895Z" fill="#0092FF"/>
<path d="M100.201 85.8789H99.8779V85.933H100.201V85.8789Z" fill="#FF0000"/>
<path d="M100.201 86.0986H99.8779V86.1527H100.201V86.0986Z" fill="#00FF67"/>
<path d="M99.7711 85.5735H98.5117V86.4589H99.7711V85.5735Z" fill="white"/>
<path d="M99.5599 85.73H98.7217V86.3025H99.5599V85.73Z" fill="#BAB6AF"/>
<path d="M81.0939 118.963L81.6577 120.61H78.5234L79.8737 118.963H81.0939Z" fill="#073856"/>
<path d="M85.3432 71.7239L86.3026 69.9135H88.464L88.4404 69.2383L88.7751 68.5503L88.103 68.1536H88.8967L88.7938 67.4618L89.6944 66.7932L88.7938 64.9998V63.3859L86.8534 61.3446L83.3039 61.8889L82.0195 63.2323L82.5369 66.3116L83.8547 68.0386L83.4193 69.6134L85.3432 71.7239Z" fill="#FEAFAD"/>
<path d="M85.0885 67.3997H84.601H83.4628L83.855 68.0386L83.125 70.5487L86.0101 71.7239L86.3029 69.9136H87.6715L85.966 68.5781L85.0885 67.3997Z" fill="#FEAFAD"/>
<path d="M86.0795 66.3653L87.5542 63.375L88.7944 63.4678L89.2512 62.0019L87.1179 60.9365L84.8567 60.6622L83.0536 61.0712L81.8379 63.2237L82.3557 66.3653L83.8179 68.1738L85.0889 67.3996L84.6481 66.5222V65.1349L85.5916 65.1307L86.0795 66.3653Z" fill="#124154"/>
<path d="M84.8567 60.6622L87.1179 60.9365L89.2512 62.0019L89.7615 63.3585L89.0667 64.504L89.2445 63.2383L88.7285 62.4033L87.6718 61.8125L87.2462 63.0795L85.0933 61.3445L85.2992 63.3165L83.5398 62.0108L83.596 64.5841L82.4034 63.3561V66.5349L81.9426 63.8599L81.8379 63.2237L83.0536 61.0712L84.8567 60.6622Z" fill="#1A5370"/>
<path d="M88.793 67.4619V66.9864L89.6936 66.7932L88.793 67.4619Z" fill="#EAA936"/>
<path d="M82.343 89.9652L81.1861 89.4756L80.9365 90.2587L81.2725 91.6427L81.0675 92.9804L82.0087 93.0841L82.7383 91.678L82.343 89.9652Z" fill="#FEAFAD"/>
<path d="M79.8749 72.3926L82.4026 76.8285L81.7814 82.5853L82.7377 91.6777L80.936 90.2584L78.7764 82.6875L79.8749 72.3926Z" fill="#FEAFAD"/>
<path d="M79.8755 72.3926L78.4824 78.6337L81.782 79.4673L82.4032 76.8285L79.8755 72.3926Z" fill="#FFE30B"/>
<path d="M96.5322 86.0259L97.116 84.8479L97.8063 84.9784L99.0176 85.6513H98.0648L98.4374 85.8398L99.4485 86.6564L98.7538 87.3024L97.7622 87.2157L96.5322 86.0259Z" fill="#FEAFAD"/>
<path d="M90.2114 81.8794H86.3936V87.2102H90.2114V81.8794Z" fill="#EAE4D8"/>
<path d="M87.4475 118.963L86.8838 120.61H93.3492L88.6682 118.963H87.4475Z" fill="#073856"/>
<path d="M83.3298 87.2871L82.5821 88.8393L79.0352 119.386L81.5388 119.151L87.6593 90.7934L89.0876 90.0079L89.3469 87.3314L83.3298 87.2871Z" fill="#79C6D8"/>
<path d="M84.9235 88.0095L90.7271 89.2116L89.8448 119.097L86.9445 119.274L85.9921 93.7785L84.6699 92.2857L84.9235 88.0095Z" fill="#A6DAE8"/>
<path d="M90.6792 84.8753L88.9911 71.7804L86.3551 70.1246L83.1247 70.0586L79.875 72.3925L82.437 82.2794L81.1558 90.0618H86.5512H91.1445L90.6792 84.8753Z" fill="#FFE30B"/>
<path d="M87.873 75.9294L89.3472 84.349L90.3094 81.9934L89.739 77.5707L87.873 75.9294Z" fill="#FFE30B"/>
<path d="M87.0957 70.5903L86.0645 73.7474L90.4518 81.7335L96.9101 86.3918L97.8063 84.9787L92.9006 79.8538L88.991 71.7806L87.0957 70.5903Z" fill="#FEAFAD"/>
<path d="M89.2862 71.7806L87.0963 70.5903L85.7705 73.7474L88.9186 79.4674L92.3634 77.7843L89.2862 71.7806Z" fill="#FFE30B"/>
<path d="M113.863 87.0471H106.373V87.7652H113.863V87.0471Z" fill="#073856"/>
<path d="M108.932 86.8921H107.628V88.0027H108.932V86.8921Z" fill="#FCC659"/>
<path d="M149.384 74.3416H130.24V90.774H149.384V74.3416Z" fill="#257999"/>
<path d="M148.175 75.5847H131.452V88.6197H148.175V75.5847Z" fill="#073856"/>
<path d="M148.174 89.4495H146.921V89.8803H148.174V89.4495Z" fill="white"/>
<path d="M133.064 76.3408H132.169V76.8196H133.064V76.3408Z" fill="#DD4919"/>
<path d="M133.908 85.7681H132.169V86.2464H133.908V85.7681Z" fill="white"/>
<path d="M133.908 86.5994H132.169V87.0782H133.908V86.5994Z" fill="white"/>
<path d="M133.21 87.3936H132.169V87.8724H133.21V87.3936Z" fill="#DD4919"/>
<path d="M134.103 76.3408H133.355V76.8196H134.103V76.3408Z" fill="white"/>
<path d="M136.558 76.3408H134.395V76.8196H136.558V76.3408Z" fill="white"/>
<path d="M135.221 77.9216H134.325V78.3995H135.221V77.9216Z" fill="white"/>
<path d="M136.267 77.9216H135.511V78.3995H136.267V77.9216Z" fill="white"/>
<path d="M139.488 77.9216H136.551V78.3995H139.488V77.9216Z" fill="white"/>
<path d="M137.281 78.7632H136.506V79.2411H137.281V78.7632Z" fill="white"/>
<path d="M141.531 83.3779H140.636V83.8563H141.531V83.3779Z" fill="white"/>
<path d="M138.903 79.5535H138.455V80.0318H138.903V79.5535Z" fill="white"/>
<path d="M138.453 78.7632H137.558V79.2411H138.453V78.7632Z" fill="#DD4919"/>
<path d="M141.5 80.3213H140.604V80.7996H141.5V80.3213Z" fill="white"/>
<path d="M134.804 81.0068H134.283V81.4852H134.804V81.0068Z" fill="white"/>
<path d="M134.776 85.033H134.256V85.5113H134.776V85.033Z" fill="#DD4919"/>
<path d="M137.045 84.1621H136.524V84.64H137.045V84.1621Z" fill="white"/>
<path d="M142.538 80.3213H141.769V80.7996H142.538V80.3213Z" fill="white"/>
<path d="M143.641 80.3213H142.871V80.7996H143.641V80.3213Z" fill="white"/>
<path d="M144.806 80.3213H143.91V80.7996H144.806V80.3213Z" fill="#DD4919"/>
<path d="M141.667 78.7632H138.73V79.2411H141.667V78.7632Z" fill="white"/>
<path d="M144.279 78.7632H141.936V79.2411H144.279V78.7632Z" fill="white"/>
<path d="M137.262 81.8049H136.366V82.2837H137.262V81.8049Z" fill="#DD4919"/>
<path d="M138.375 81.8049H137.479V82.2837H138.375V81.8049Z" fill="white"/>
<path d="M141.529 81.8049H138.591V82.2837H141.529V81.8049Z" fill="white"/>
<path d="M139.359 82.6125H138.463V83.0909H139.359V82.6125Z" fill="white"/>
<path d="M140.408 82.6125H139.638V83.0909H140.408V82.6125Z" fill="#DD4919"/>
<path d="M144.679 82.6125H140.688V83.0909H144.679V82.6125Z" fill="white"/>
<path d="M144.761 81.8049H141.769V82.2837H144.761V81.8049Z" fill="white"/>
<path d="M147.444 81.8049H145.047V82.2837H147.444V81.8049Z" fill="white"/>
<path d="M149.072 70.0688V67.2991L146.796 67.8664L146.53 70.9849L149.072 70.0688Z" fill="#FEAFAD"/>
<path d="M145.491 118.755L146.098 120.532H139.125L144.175 118.755H145.491Z" fill="#073856"/>
<path d="M140.379 120.316H140.697L143.132 119.315L140.379 120.316Z" fill="white"/>
<path d="M150.057 86.457L150.411 90.3718L154.564 119.212L151.863 118.99L145.589 92.2171L144.484 90.0698L144.103 87.4466L144.847 87.4075L144.816 87.2746H146.529L150.057 86.457Z" fill="black"/>
<path d="M141.5 86.5945L142.662 102.412L142.905 118.939L146.034 119.106V101.502L147.004 87.1147L141.5 86.5945Z" fill="black"/>
<path d="M150.558 82.3477L150.266 75.6245L152.475 72.8887L152.57 82.7704L148.873 90.0487L147.787 88.856L150.558 82.3477Z" fill="#E5F0F8"/>
<path d="M151.085 76.0649L150.332 77.2934L150.557 82.348L149.28 85.3199L150.37 87.1148L150.904 86.0498L150.328 83.5967L150.876 82.0323L151.085 76.0649Z" fill="#E5F0F8"/>
<path d="M152.475 72.8889L149.275 70.1064L146.886 70.826L143.148 72.2627L141.364 85.3788L141.003 90.1568L151.239 90.0065L150.152 84.9952L149.835 80.5951L152.475 72.8889Z" fill="#E5F0F8"/>
<path d="M149.836 70.5394L149.121 69.8062L146.592 70.2595L146.236 71.1152L149.836 70.5394Z" fill="black"/>
<path d="M140.519 89.0127L140.25 90.4362L138.928 90.5729L137.627 91.0144V91.4587H139.471H141.083L141.295 90.7397L141.581 89.4443L140.519 89.0127Z" fill="#FEAFAD"/>
<path d="M142.364 90.137L141.003 90.1568L142.754 82.5171L143.148 72.2627L144.505 76.9946L143.901 83.2329L142.364 90.137Z" fill="#79C6D8"/>
<path d="M143.149 72.2627L144.759 76.4583L143.644 82.7706L141.504 90.5729L139.902 90.0762L141.836 82.3682L143.149 72.2627Z" fill="#E5F0F8"/>
<path d="M144.352 75.3981L143.424 82.5171L142.755 85.1092L143.156 82.5171L144.147 74.8623L144.352 75.3981Z" fill="#E5F0F8"/>
<path d="M144.01 64.0368L144.601 67.6943L145.787 69.6635H147.223L149.169 67.6943L149.836 64.0368L148.843 61.4819H144.856L144.01 64.0368Z" fill="#FEAFAD"/>
<path d="M144.76 63.6942L144.058 64.1593L143.437 65.5729V63.4765L144.879 61.2227L147.137 60.5847L149.471 61.4819L150.267 63.8596L149.684 68.3224L148.827 68.6787L146.958 68.7314L145.917 67.5181L146.075 67.176L146.237 66.0705L145.825 65.7826L145.331 66.4531L145.352 64.7012L144.76 63.6942Z" fill="black"/>
<path d="M147.136 60.5847L149.469 61.4819L150.266 63.8596L149.682 68.3224L149.362 68.4558L149.949 64.5019L149.071 62.4804L148.489 63.3752L148.652 62.1948L146.992 61.5903L145.304 62.8574L146.529 61.4819L145.195 61.7349L144.251 62.2014L144.877 61.2227L147.136 60.5847Z" fill="black"/>
<path d="M54.9367 82.2178H52.1924V85.1002H54.9367V82.2178Z" fill="white"/>
<path d="M54.4508 118.906L55.0328 120.61H48.3428L53.1869 118.906H54.4508Z" fill="#073856"/>
<path d="M51.875 85.2664L51.0586 89.413L51.9699 119.045L54.9714 119.228L55.8003 88.4004L51.875 85.2664Z" fill="#13A4B2"/>
<path d="M61.0247 118.906L60.4404 120.61H63.6838L62.2876 118.906H61.0247Z" fill="#073856"/>
<path d="M58.7134 84.8416L59.4862 89.0282L63.1561 119.343L60.5655 119.102L54.232 91.0502L51.875 84.8887L58.7134 84.8416Z" fill="#16C5D5"/>
<path d="M53.8716 84.4321H52.5244V85.5823H53.8716V84.4321Z" fill="#FCC659"/>
<path d="M42.8313 80.8363L42.7822 79.6903L42.0924 79.5654L40.8637 79.0198L40.7149 79.1772L41.579 79.7977L40.9863 80.0663L39.8428 80.0593L39.8856 80.9503L41.1556 81.438L42.8313 80.8363Z" fill="#FEAFAD"/>
<path d="M52.6269 72.0613L53.7379 74.9503L49.5083 82.2177L42.5312 81.2197V79.4423L48.3884 79.7618L52.6269 72.0613Z" fill="#0273A0"/>
<path d="M52.5783 74.7754L49.5078 82.2176L53.7374 74.9502L52.5783 74.7754Z" fill="#1A5370"/>
<path d="M61.8933 72.693L58.6668 69.887L56.2581 70.6136L52.6274 72.0616L50.946 85.2856L50.3818 90.3525L51.0588 90.6083L53.4283 82.8301L54.5642 90.6083L60.6459 89.3172L59.5501 84.8997L59.2315 80.4632L61.8933 72.693Z" fill="#0273A0"/>
<path d="M59.1882 70.3411L59.6909 70.7774L57.8285 73.4765H57.0273L57.4711 74.5541L53.8828 80.2289L54.0842 74.0806L54.9051 73.2932L54.3093 73.1094L55.5611 70.923L55.5624 70.9216L59.1882 70.3411Z" fill="#1A5370"/>
<path d="M57.5195 71.7806L54.3906 77.7362L55.4637 72.1698L56.2325 71.2024L56.8836 72.2584L57.5195 71.7806Z" fill="white"/>
<path d="M56.5468 71.7104L56.2326 72.1698H55.8765L55.7188 71.8498L56.233 71.2024L56.5468 71.7104Z" fill="#FD6220"/>
<path d="M56.2325 72.2004L55.7182 75.1964L54.3906 77.7362L54.8991 75.0974L55.876 72.2004H56.2325Z" fill="#FD6220"/>
<path d="M60.6455 89.3169L58.5737 85.5821L55.9551 84.8602L55.5117 83.0404L58.8612 81.9943L58.6967 80.4629L59.6665 75.4507L60.4851 76.7988L59.2311 80.4629L59.5497 84.8993L60.6455 89.3169Z" fill="#1A5370"/>
<path d="M38.1745 76.9684L37.7305 79.9216L56.6375 83.0997L57.0815 80.1465L38.1745 76.9684Z" fill="white"/>
<path d="M48.2134 79.4722L48.0098 80.8269L55.8487 82.1446L56.0524 80.7899L48.2134 79.4722Z" fill="#073856"/>
<path d="M53.3597 80.3433L53.1562 81.698L54.5021 81.9239L54.7055 80.5693L53.3597 80.3433Z" fill="#257999"/>
<path d="M45.9375 78.6088L45.8633 79.1055L46.3343 79.1841L46.4085 78.6874L45.9375 78.6088Z" fill="#073856"/>
<path d="M44.4602 78.364L44.3857 78.8601L44.8566 78.9392L44.9311 78.443L44.4602 78.364Z" fill="#073856"/>
<path d="M42.915 78.6109L43.3856 78.6896L43.4605 78.1929L42.9904 78.1128L42.915 78.6109Z" fill="#073856"/>
<path d="M41.5194 77.8653L41.4443 78.3623L41.9152 78.4418L41.9903 77.9448L41.5194 77.8653Z" fill="#073856"/>
<path d="M40.051 77.619L39.9756 78.1155L40.4468 78.1955L40.5222 77.699L40.051 77.619Z" fill="#073856"/>
<path d="M38.577 77.3722L38.5029 77.8684L38.9739 77.9471L39.048 77.4508L38.577 77.3722Z" fill="#073856"/>
<path d="M45.668 80.4089L45.5938 80.906L46.0648 80.9847L46.139 80.4875L45.668 80.4089Z" fill="#073856"/>
<path d="M44.1886 80.1636L44.1143 80.6611L44.5852 80.7398L44.6596 80.2423L44.1886 80.1636Z" fill="#073856"/>
<path d="M42.7179 79.9163L42.6436 80.4138L43.1141 80.4924L43.1884 79.9949L42.7179 79.9163Z" fill="#073856"/>
<path d="M41.2499 79.6656L41.1748 80.1626L41.6461 80.2422L41.7212 79.7452L41.2499 79.6656Z" fill="#073856"/>
<path d="M39.7768 79.4223L39.7012 79.9192L40.1719 79.9993L40.2475 79.5023L39.7768 79.4223Z" fill="#073856"/>
<path d="M38.3066 79.1696L38.2324 79.6663L38.703 79.7448L38.7772 79.2481L38.3066 79.1696Z" fill="#073856"/>
<path d="M45.7973 79.5112L45.7227 80.0083L46.1936 80.0874L46.2682 79.5903L45.7973 79.5112Z" fill="#073856"/>
<path d="M44.3277 79.2605L44.2529 79.7576L44.7238 79.8367L44.7986 79.3397L44.3277 79.2605Z" fill="#073856"/>
<path d="M42.8517 79.0161L42.7773 79.5137L43.2479 79.5923L43.3222 79.0947L42.8517 79.0161Z" fill="#073856"/>
<path d="M41.3823 78.7688L41.3076 79.2659L41.7785 79.3449L41.8532 78.8479L41.3823 78.7688Z" fill="#073856"/>
<path d="M39.9083 78.5205L39.834 79.0176L40.3049 79.0963L40.3792 78.5992L39.9083 78.5205Z" fill="#073856"/>
<path d="M38.4405 78.2683L38.3662 78.7659L38.8368 78.8444L38.9111 78.3468L38.4405 78.2683Z" fill="#073856"/>
<path d="M58.0384 83.4886L57.9907 82.3431L57.3013 82.2178L56.0718 81.6721L55.9229 81.8309L56.7866 82.451L56.1939 82.7201L55.0508 82.7121L55.0931 83.6022L56.3641 84.0904L58.0384 83.4886Z" fill="#FEAFAD"/>
<path d="M62.0884 80.7936L59.6672 75.4506L61.8936 72.6926L64.9075 82.5508L57.8686 84.0902L57.5205 82.2176L62.0884 80.7936Z" fill="#0273A0"/>
<path d="M56.3913 70.8669L56.3061 69.2846L53.6309 69.63L53.3056 68.4548L54.2437 67.7122L53.2352 67.8432L53.1519 67.1312L52.1006 66.5671L53.1643 64.924L53.0097 63.2578L54.4612 61.3066L58.1395 61.0319L59.8468 62.1774L60.1699 64.9839L58.6043 67.0294L57.1087 68.3921L56.3913 70.8669Z" fill="#FEAFAD"/>
<path d="M56.9147 66.5794L57.417 66.5153L59.2553 66.2778L58.6042 67.0294L58.8551 70.1969L55.8701 70.8669L55.7209 69.3609L54.5537 69.5117L56.1518 67.9096L56.9147 66.5794Z" fill="#FEAFAD"/>
<path d="M56.4571 65.5577L56.5226 64.1417L54.6567 63.998L53.0225 63.3807L52.4766 62.7808L52.674 61.568L54.4606 61.3064L58.1844 60.8258L60.0334 62.1447L60.364 65.0158L58.6577 67.1631L57.4165 66.5152L57.9504 65.5289L57.8274 64.4645L56.9156 64.5818L56.4571 65.5577Z" fill="black"/>
<path d="M53.1519 67.1312L53.0957 66.6402L52.1006 66.5671L53.1519 67.1312Z" fill="#FEAFAD"/>
<path d="M54.4249 60.6627L58.1844 60.8258L60.0334 62.1447L60.364 65.0157L59.6096 62.6517L58.0275 61.5081L54.4606 61.3064L53.1 61.9849L52.4766 62.7808L52.674 61.5679L54.4249 60.6627Z" fill="black"/>
<path d="M59.2311 70.3228L58.7511 68.8818L56.2577 70.6135L55.7733 69.8869L55.6008 70.9052L55.5117 71.98L56.2439 71.0654L56.9039 72.1426L59.2311 70.3228Z" fill="white"/>
<path d="M48.6177 114.127H29.4736V117.117H48.6177V114.127Z" fill="white"/>
<path d="M38.3294 114.936H30.3916V116.308H38.3294V114.936Z" fill="#073856"/>
<path d="M33.1177 114.936H31.7549V116.308H33.1177V114.936Z" fill="#257999"/>
<path d="M40.7097 114.459H40.2324V114.962H40.7097V114.459Z" fill="#073856"/>
<path d="M42.201 114.459H41.7246V114.962H42.201V114.459Z" fill="#073856"/>
<path d="M43.6907 114.459H43.2139V114.962H43.6907V114.459Z" fill="#073856"/>
<path d="M45.1809 114.459H44.7041V114.962H45.1809V114.459Z" fill="#073856"/>
<path d="M46.6713 114.459H46.1953V114.962H46.6713V114.459Z" fill="#073856"/>
<path d="M48.1619 114.459H47.6846V114.962H48.1619V114.459Z" fill="#073856"/>
<path d="M40.7097 116.282H40.2324V116.785H40.7097V116.282Z" fill="#073856"/>
<path d="M42.201 116.282H41.7246V116.785H42.201V116.282Z" fill="#073856"/>
<path d="M43.6907 116.282H43.2139V116.785H43.6907V116.282Z" fill="#073856"/>
<path d="M45.1809 116.282H44.7041V116.785H45.1809V116.282Z" fill="#073856"/>
<path d="M46.6713 116.282H46.1953V116.785H46.6713V116.282Z" fill="#073856"/>
<path d="M48.1619 116.282H47.6846V116.785H48.1619V116.282Z" fill="#073856"/>
<path d="M40.7097 115.37H40.2324V115.873H40.7097V115.37Z" fill="#073856"/>
<path d="M42.201 115.37H41.7246V115.873H42.201V115.37Z" fill="#073856"/>
<path d="M43.6907 115.37H43.2139V115.873H43.6907V115.37Z" fill="#073856"/>
<path d="M45.1809 115.37H44.7041V115.873H45.1809V115.37Z" fill="#073856"/>
<path d="M46.6713 115.37H46.1953V115.873H46.6713V115.37Z" fill="#073856"/>
<path d="M48.1619 115.37H47.6846V115.873H48.1619V115.37Z" fill="#073856"/>
<path d="M48.6176 117.62H29.4727V120.61H48.6176V117.62Z" fill="white"/>
<path d="M38.33 118.428H30.3926V119.8H38.33V118.428Z" fill="#073856"/>
<path d="M33.1172 118.429H31.7549V119.8H33.1172V118.429Z" fill="#257999"/>
<path d="M40.7098 117.951H40.2334V118.454H40.7098V117.951Z" fill="#073856"/>
<path d="M42.2014 117.951H41.7236V118.454H42.2014V117.951Z" fill="#073856"/>
<path d="M43.6912 117.951H43.2148V118.454H43.6912V117.951Z" fill="#073856"/>
<path d="M45.1829 117.951H44.7061V118.454H45.1829V117.951Z" fill="#073856"/>
<path d="M46.6731 117.951H46.1963V118.454H46.6731V117.951Z" fill="#073856"/>
<path d="M48.1629 117.951H47.6865V118.454H48.1629V117.951Z" fill="#073856"/>
<path d="M40.7098 119.773H40.2334V120.277H40.7098V119.773Z" fill="#073856"/>
<path d="M42.2014 119.773H41.7236V120.277H42.2014V119.773Z" fill="#073856"/>
<path d="M43.6912 119.773H43.2148V120.277H43.6912V119.773Z" fill="#073856"/>
<path d="M45.1829 119.773H44.7061V120.277H45.1829V119.773Z" fill="#073856"/>
<path d="M46.6731 119.773H46.1963V120.277H46.6731V119.773Z" fill="#073856"/>
<path d="M48.1629 119.773H47.6865V120.277H48.1629V119.773Z" fill="#073856"/>
<path d="M40.7098 118.862H40.2334V119.365H40.7098V118.862Z" fill="#073856"/>
<path d="M42.2014 118.862H41.7236V119.365H42.2014V118.862Z" fill="#073856"/>
<path d="M43.6912 118.862H43.2148V119.365H43.6912V118.862Z" fill="#073856"/>
<path d="M45.1829 118.862H44.7061V119.365H45.1829V118.862Z" fill="#073856"/>
<path d="M46.6731 118.862H46.1963V119.365H46.6731V118.862Z" fill="#073856"/>
<path d="M48.1629 118.862H47.6865V119.365H48.1629V118.862Z" fill="#073856"/>
<path d="M48.6171 117.117H29.4727V117.618H48.6171V117.117Z" fill="#CCCECE"/>
<path d="M26.6736 77.7934H35.4903L37.7844 70.9627L37.2728 70.3049L26.1611 77.1356L26.6736 77.7934Z" fill="#427C89"/>
<path d="M26.1611 77.1356H34.9782L37.2728 70.3049H28.4558L26.1611 77.1356Z" fill="#538899"/>
<path d="M36.6462 70.7717H28.7681L26.7881 76.6675H34.6666L36.6462 70.7717Z" fill="white"/>
<path d="M29.0156 71.7308H35.8639L36.0247 71.252H29.1765L29.0156 71.7308Z" fill="#073856"/>
<path d="M28.4795 73.2379H35.3282L35.489 72.759H28.6408L28.4795 73.2379Z" fill="#073856"/>
<path d="M27.9434 74.7447H34.7916L34.9529 74.2664H28.1047L27.9434 74.7447Z" fill="#073856"/>
<path d="M27.4072 76.2518H34.2555L34.4168 75.7729H27.5681L27.4072 76.2518Z" fill="#073856"/>
<path d="M17.7639 87.9412L16.9092 88.8775L17.4359 89.3873L18.5514 89.858L19.3518 89.1564L19.9168 90.0569L19.346 88.7639L17.7639 87.9412Z" fill="#FEAFAD"/>
<path d="M19.1611 69.9108V67.127L21.4491 67.6976L21.7169 70.8316L19.1611 69.9108Z" fill="#FEAFAD"/>
<path d="M23.9307 63.8483L23.6553 67.8597L22.4618 69.5038H21.0202L19.0638 67.5242L18.3936 63.8483L19.3922 61.2793H22.7649L23.9307 63.8483Z" fill="#FEAFAD"/>
<path d="M18.1258 62.2867L19.4071 61.0582H22.9223L24.2013 63.3913L23.4954 63.5034L22.9009 64.5151L22.9223 66.276L22.425 65.6026L22.0127 65.8915L22.1741 67.0031L22.3336 67.347L21.2863 68.5661L19.4071 68.5138L18.5479 68.1556L17.9609 65.3468L18.1258 62.2867Z" fill="black"/>
<path d="M18.1258 62.2867L19.1611 62.6482L18.2791 65.6573L18.8687 68.2895L18.5479 68.1556L17.9609 65.3468L18.1258 62.2867Z" fill="black"/>
<path d="M18.5359 64.0651L19.1682 63.601H19.8697L20.478 64.108V65.0009H18.4922L18.5359 64.0651Z" fill="black"/>
<path d="M133.858 4.78821C126.611 4.78821 120.736 10.5384 120.736 17.6312C120.736 24.7246 126.611 30.4741 133.858 30.4741C141.105 30.4741 146.98 24.7239 146.98 17.6312C146.98 10.5391 141.105 4.78821 133.858 4.78821ZM133.858 29.1189C127.387 29.1189 122.122 23.9663 122.122 17.6318C122.122 11.2981 127.387 6.14407 133.858 6.14407C140.329 6.14407 145.595 11.2974 145.595 17.6318C145.595 23.9663 140.329 29.1189 133.858 29.1189Z" fill="#3498DB"/>
<path d="M143.483 8.92466C142.599 9.39151 141.667 9.81433 140.656 10.1425C139.654 8.21038 138.256 6.49039 136.535 5.05783C135.671 4.88243 134.776 4.78906 133.858 4.78906C132.94 4.78906 132.046 4.8831 131.181 5.05783C129.461 6.49039 128.062 8.21038 127.06 10.1425C126.049 9.81433 125.118 9.39218 124.233 8.92466C123.915 9.26079 123.616 9.61359 123.337 9.98173C124.311 10.5146 125.34 10.9941 126.457 11.3683C125.732 13.1129 125.34 15.0003 125.26 16.9544H120.772C120.76 17.1805 120.736 17.4033 120.736 17.632C120.736 17.8614 120.759 18.0842 120.772 18.3103H125.26C125.34 20.2644 125.732 22.1518 126.456 23.8958C125.34 24.2699 124.311 24.7494 123.337 25.2823C123.616 25.6505 123.916 26.0033 124.233 26.3401C125.118 25.8725 126.049 25.4504 127.06 25.1222C128.062 27.0543 129.461 28.7743 131.18 30.2062C132.045 30.3816 132.94 30.4757 133.858 30.4757C134.776 30.4757 135.671 30.3816 136.536 30.2062C138.255 28.7743 139.654 27.0543 140.656 25.1222C141.667 25.4504 142.6 25.8732 143.483 26.3401C143.801 26.0033 144.1 25.6511 144.379 25.2823C143.406 24.7494 142.376 24.2699 141.26 23.8958C141.984 22.1511 142.377 20.2637 142.456 18.3103H146.945C146.957 18.0842 146.98 17.8614 146.98 17.632C146.98 17.4033 146.957 17.1805 146.945 16.9544H142.456C142.377 15.0003 141.984 13.1129 141.259 11.3683C142.376 10.9948 143.406 10.5153 144.379 9.98173C144.1 9.61359 143.801 9.26079 143.483 8.92466ZM133.165 29.9941C131.14 28.5989 129.525 26.8029 128.407 24.7321C129.907 24.3593 131.506 24.1439 133.165 24.0959V29.9941ZM133.165 22.7407C131.289 22.7927 129.478 23.0428 127.786 23.4876C127.101 21.873 126.726 20.1243 126.644 18.3103H133.165V22.7407H133.165ZM133.165 16.9544H126.645C126.726 15.1411 127.102 13.3917 127.787 11.7764C129.479 12.2213 131.29 12.4714 133.166 12.5234V16.9544H133.165ZM133.165 11.1675C131.505 11.1195 129.907 10.9041 128.407 10.5313C129.525 8.46115 131.142 6.66512 133.165 5.26991V11.1675ZM134.551 5.27058C136.575 6.66579 138.192 8.46181 139.31 10.5319C137.809 10.9048 136.21 11.1195 134.551 11.1682V5.27058ZM134.551 29.9941V24.0959C136.21 24.1439 137.809 24.3593 139.31 24.7321C138.191 26.8029 136.575 28.5989 134.551 29.9941ZM139.929 23.4876C138.238 23.0428 136.426 22.7927 134.55 22.7407V18.3103H141.071C140.99 20.1237 140.615 21.873 139.929 23.4876ZM134.551 16.9544V12.5234C136.427 12.4714 138.238 12.2213 139.93 11.7764C140.615 13.3911 140.991 15.1404 141.072 16.9544H134.551Z" fill="#3498DB"/>
<path d="M118.816 26.4325C114.687 19.6959 115.772 11.1059 121.455 5.54446C127.137 -0.0176842 135.912 -1.08076 142.795 2.96214L142.094 4.10591C135.75 0.380471 127.657 1.35885 122.418 6.48817C117.179 11.6161 116.178 19.5359 119.985 25.7469L118.816 26.4325Z" fill="#3498DB"/>
<path d="M145.689 6.01596C143.713 5.4324 141.06 4.96888 139.09 5.1016L141.981 3.26623L143.003 0.0456543C143.406 1.93772 144.58 4.31263 145.689 6.01596Z" fill="#3498DB"/>
<path d="M133.831 34.6437C130.749 34.6443 127.646 33.844 124.854 32.2047L125.555 31.0609C131.9 34.7864 139.99 33.8067 145.231 28.6787C150.47 23.5507 151.471 15.631 147.664 9.41991L148.832 8.73364C152.961 15.4709 151.877 24.0596 146.194 29.6217C142.817 32.9277 138.347 34.6437 133.831 34.6437Z" fill="#3498DB"/>
<path d="M121.96 29.1503C123.935 29.7338 126.589 30.1973 128.559 30.0646L125.668 31.9L124.646 35.1206C124.243 33.2285 123.069 30.8536 121.96 29.1503Z" fill="#3498DB"/>
<path d="M10.5808 106.274H7.97559V107.041H10.5808V106.274Z" fill="#3498DB"/>
<path d="M9.27842 113.507C9.76185 113.507 10.2107 113.645 10.5808 113.88V112.191H7.97559V113.88C8.34613 113.645 8.79432 113.507 9.27842 113.507Z" fill="#3498DB"/>
<path d="M3.05355 114.407C2.80176 114.407 2.8366 114.494 2.8366 114.602V116.609C2.8366 116.717 2.80176 116.804 3.05355 116.804H7.37084C7.12379 116.467 6.97902 116.061 6.97902 115.623C6.97902 115.17 7.13557 114.751 7.3991 114.407L3.05355 114.407Z" fill="#3498DB"/>
<path d="M15.0283 114.407H11.1592C11.4225 114.751 11.5786 115.17 11.5786 115.623C11.5786 116.06 11.434 116.467 11.187 116.804H15.0283C15.2794 116.804 15.2448 116.717 15.2448 116.609V114.602C15.2448 114.494 15.2794 114.407 15.0283 114.407Z" fill="#3498DB"/>
<path d="M0.455173 101.124C0.204056 101.124 0 101.311 0 101.542V105.855C0 106.086 0.204056 106.274 0.455173 106.274H7.97576H10.581H19.1037C19.3553 106.274 19.5589 106.086 19.5589 105.855V101.542C19.5589 101.311 19.3553 101.124 19.1037 101.124L0.455173 101.124ZM2.10093 103.547C1.5994 103.547 1.19357 103.173 1.19357 102.712C1.19357 102.25 1.5994 101.876 2.10093 101.876C2.60271 101.876 3.00922 102.25 3.00922 102.712C3.00922 103.173 2.60271 103.547 2.10093 103.547ZM4.415 103.547C3.91325 103.547 3.50671 103.173 3.50671 102.712C3.50671 102.25 3.91325 101.876 4.415 101.876C4.91675 101.876 5.32262 102.25 5.32262 102.712C5.32262 103.173 4.91675 103.547 4.415 103.547ZM18.6196 105.306C18.6196 105.421 18.5248 105.515 18.4079 105.515H11.3085C11.1913 105.515 11.0961 105.421 11.0961 105.306V105.12C11.0961 105.005 11.1913 104.912 11.3085 104.912H18.4079C18.5248 104.912 18.6196 105.005 18.6196 105.12V105.306ZM18.6196 103.895C18.6196 104.01 18.5248 104.103 18.4079 104.103H11.3085C11.1913 104.103 11.0961 104.01 11.0961 103.895V103.708C11.0961 103.593 11.1913 103.5 11.3085 103.5H18.4079C18.5248 103.5 18.6196 103.593 18.6196 103.708V103.895ZM18.6196 102.483C18.6196 102.598 18.5248 102.691 18.4079 102.691H11.3085C11.1913 102.691 11.0961 102.598 11.0961 102.483V102.297C11.0961 102.182 11.1913 102.088 11.3085 102.088H18.4079C18.5248 102.088 18.6196 102.182 18.6196 102.297V102.483Z" fill="#283770"/>
<path d="M2.10072 101.876C1.59919 101.876 1.19336 102.25 1.19336 102.712C1.19336 103.173 1.59919 103.547 2.10072 103.547C2.6025 103.547 3.00901 103.173 3.00901 102.712C3.00901 102.25 2.6025 101.876 2.10072 101.876Z" fill="#AAD4C8"/>
<path d="M3.50684 102.712C3.50684 103.173 3.91338 103.547 4.41513 103.547C4.91688 103.547 5.32275 103.173 5.32275 102.712C5.32275 102.25 4.91688 101.876 4.41513 101.876C3.91338 101.876 3.50684 102.25 3.50684 102.712Z" fill="#3498DB"/>
<path d="M11.3081 102.088C11.1909 102.088 11.0957 102.182 11.0957 102.297V102.483C11.0957 102.598 11.1909 102.691 11.3081 102.691H18.4075C18.5245 102.691 18.6193 102.598 18.6193 102.483V102.297C18.6193 102.182 18.5245 102.088 18.4075 102.088H11.3081Z" fill="white"/>
<path d="M11.3081 103.5C11.1909 103.5 11.0957 103.593 11.0957 103.709V103.895C11.0957 104.01 11.1909 104.103 11.3081 104.103H18.4075C18.5245 104.103 18.6193 104.01 18.6193 103.895V103.709C18.6193 103.593 18.5245 103.5 18.4075 103.5H11.3081Z" fill="white"/>
<path d="M11.3081 104.912C11.1909 104.912 11.0957 105.005 11.0957 105.12V105.306C11.0957 105.421 11.1909 105.515 11.3081 105.515H18.4075C18.5245 105.515 18.6193 105.421 18.6193 105.306V105.12C18.6193 105.005 18.5245 104.912 18.4075 104.912H11.3081Z" fill="white"/>
<path d="M10.581 107.041H7.97576H0.455173C0.204056 107.041 0 107.228 0 107.46V111.772C0 112.004 0.204056 112.191 0.455173 112.191H7.97576H10.581H19.1037C19.3553 112.191 19.5589 112.004 19.5589 111.772V107.46C19.5589 107.228 19.3553 107.041 19.1037 107.041H10.581V107.041ZM2.10093 109.465C1.5994 109.465 1.19357 109.091 1.19357 108.629C1.19357 108.168 1.5994 107.793 2.10093 107.793C2.60271 107.793 3.00922 108.168 3.00922 108.629C3.00922 109.091 2.60271 109.465 2.10093 109.465ZM4.415 109.465C3.91325 109.465 3.50671 109.091 3.50671 108.629C3.50671 108.168 3.91325 107.793 4.415 107.793C4.91675 107.793 5.32262 108.168 5.32262 108.629C5.32262 109.091 4.91675 109.465 4.415 109.465ZM18.6196 111.224C18.6196 111.339 18.5248 111.432 18.4079 111.432H11.3085C11.1913 111.432 11.0961 111.339 11.0961 111.224V111.038C11.0961 110.923 11.1913 110.83 11.3085 110.83H18.4079C18.5248 110.83 18.6196 110.923 18.6196 111.038V111.224ZM18.6196 109.812C18.6196 109.927 18.5248 110.02 18.4079 110.02H11.3085C11.1913 110.02 11.0961 109.927 11.0961 109.812V109.626C11.0961 109.511 11.1913 109.418 11.3085 109.418H18.4079C18.5248 109.418 18.6196 109.511 18.6196 109.626V109.812ZM18.6196 108.4C18.6196 108.515 18.5248 108.608 18.4079 108.608H11.3085C11.1913 108.608 11.0961 108.515 11.0961 108.4V108.214C11.0961 108.099 11.1913 108.006 11.3085 108.006H18.4079C18.5248 108.006 18.6196 108.099 18.6196 108.214V108.4Z" fill="#283770"/>
<path d="M2.10072 107.793C1.59919 107.793 1.19336 108.168 1.19336 108.629C1.19336 109.09 1.59919 109.465 2.10072 109.465C2.6025 109.465 3.00901 109.09 3.00901 108.629C3.00901 108.168 2.6025 107.793 2.10072 107.793Z" fill="#AAD4C8"/>
<path d="M3.50684 108.629C3.50684 109.09 3.91338 109.465 4.41513 109.465C4.91688 109.465 5.32275 109.09 5.32275 108.629C5.32275 108.168 4.91688 107.793 4.41513 107.793C3.91338 107.793 3.50684 108.168 3.50684 108.629Z" fill="#3498DB"/>
<path d="M11.3081 108.006C11.1909 108.006 11.0957 108.099 11.0957 108.214V108.4C11.0957 108.515 11.1909 108.609 11.3081 108.609H18.4075C18.5245 108.609 18.6193 108.515 18.6193 108.4V108.214C18.6193 108.099 18.5245 108.006 18.4075 108.006H11.3081Z" fill="white"/>
<path d="M11.3081 109.418C11.1909 109.418 11.0957 109.511 11.0957 109.626V109.812C11.0957 109.927 11.1909 110.02 11.3081 110.02H18.4075C18.5245 110.02 18.6193 109.927 18.6193 109.812V109.626C18.6193 109.511 18.5245 109.418 18.4075 109.418H11.3081Z" fill="white"/>
<path d="M11.3081 110.83C11.1909 110.83 11.0957 110.923 11.0957 111.038V111.224C11.0957 111.339 11.1909 111.432 11.3081 111.432H18.4075C18.5245 111.432 18.6193 111.339 18.6193 111.224V111.038C18.6193 110.923 18.5245 110.83 18.4075 110.83H11.3081Z" fill="white"/>
<path d="M10.5814 113.879C10.2113 113.645 9.76241 113.507 9.27898 113.507C8.79487 113.507 8.34673 113.645 7.97614 113.88C7.75127 114.022 7.55562 114.201 7.39859 114.407C7.13502 114.751 6.97852 115.17 6.97852 115.623C6.97852 116.06 7.12329 116.467 7.37033 116.804C7.78386 117.368 8.48425 117.739 9.27898 117.739C10.0737 117.739 10.7741 117.368 11.1872 116.804C11.4342 116.467 11.5788 116.06 11.5788 115.623C11.5788 115.17 11.4227 114.751 11.1594 114.407C11.0017 114.201 10.8065 114.022 10.5814 113.879ZM11.3487 115.623C11.3487 116.675 10.4218 117.528 9.27898 117.528C8.13609 117.528 7.20922 116.675 7.20922 115.623C7.20922 114.571 8.13609 113.718 9.27898 113.718C10.4219 113.718 11.3487 114.571 11.3487 115.623Z" fill="#283770"/>
<path d="M7.20898 115.623C7.20898 116.675 8.13585 117.528 9.27874 117.528C10.4216 117.528 11.3485 116.675 11.3485 115.623C11.3485 114.571 10.4216 113.719 9.27874 113.719C8.13585 113.719 7.20898 114.571 7.20898 115.623ZM11.0962 115.623C11.0962 116.547 10.2827 117.296 9.27874 117.296C8.27476 117.296 7.46126 116.547 7.46126 115.623C7.46126 114.699 8.27476 113.951 9.27874 113.951C10.2827 113.951 11.0962 114.699 11.0962 115.623Z" fill="#AAD4C8"/>
<path d="M7.46094 115.623C7.46094 116.547 8.27443 117.296 9.27842 117.296C10.2824 117.296 11.0959 116.547 11.0959 115.623C11.0959 114.699 10.2824 113.95 9.27842 113.95C8.27443 113.95 7.46094 114.699 7.46094 115.623Z" fill="#283770"/>
<path d="M15.7982 81.4919L17.9591 75.4949L15.738 72.7454L13.2246 81.9141L16.9079 88.8776L17.7626 87.9414L15.7982 81.4919Z" fill="#FEAFAD"/>
<path d="M15.7394 72.7454L17.9605 75.4949L16.4845 80.5264L13.3271 79.567L15.7394 72.7454Z" fill="#FF712F"/>
<path d="M17.6703 76.482L16.484 80.5264L15.3721 80.1876L16.8338 75.9382L17.6703 76.482Z" fill="#FF712F"/>
<path d="M22.5095 118.845L22.1494 120.631H29.1585L24.5742 118.845H22.5095Z" fill="#073856"/>
<path d="M15.9662 118.845L16.4841 120.631H13.0869L14.242 118.845H15.9662Z" fill="#073856"/>
<path d="M22.6604 92.1729L16.4842 119.493H13.8232L17.8144 90.3177L18.1687 87.9414L21.7161 88.8791H24.1546L23.7714 90.0138L22.6604 92.1729Z" fill="#073856"/>
<path d="M26.1818 88.0791L25.4479 118.846L22.1501 119.739L21.1701 93.2478L20.3555 91.5736V88.2553L26.1818 88.0791Z" fill="#1A5370"/>
<path d="M15.7393 72.7453L18.9559 69.9487L21.358 70.6725L25.1152 72.1158L26.338 81.1084L26.3848 88.879H17.9604L18.0749 86.4721L18.3935 80.4915L15.7393 72.7453Z" fill="#FF712F"/>
<path d="M18.3926 70.3837L19.1105 69.6458L21.6529 70.1028L22.0112 70.9628L18.3926 70.3837Z" fill="#EAE4D8"/>
<path d="M24.1551 88.8789H26.3851L26.3793 81.5144L25.1155 72.1157L23.7505 76.8712L23.4951 83.1415L24.1551 88.8789Z" fill="#FF712F"/>
<path d="M30.7567 78.2382L31.3481 77.7934H30.8146V77.1356L31.3481 76.1545L30.8913 75.9854L30.3186 76.9862L29.9131 77.4239L30.7567 78.2382Z" fill="#FEAFAD"/>
<path d="M25.1155 72.1157L23.4951 76.333L25.0887 82.1072L25.8651 82.4272L30.7569 78.2381L30.3188 76.9861L29.8326 77.1063L29.3175 77.7259L26.6735 79.0005L25.1155 72.1157Z" fill="#FEAFAD"/>
<path d="M25.1158 72.1157L26.9563 78.6858L23.8608 80.3897L22.9062 76.0211L25.1158 72.1157Z" fill="#FF712F"/>
<path opacity="0.5" d="M17.3173 15.7045C17.3173 16.3729 16.6681 16.9144 15.8676 16.9144C15.0668 16.9144 14.418 16.3726 14.418 15.7045C14.418 15.0361 15.0672 14.4946 15.8676 14.4946C16.6681 14.4946 17.3173 15.0361 17.3173 15.7045Z" fill="#8BAFFF" fill-opacity="0.84"/>
<path opacity="0.5" d="M13.1972 15.7045C13.1972 16.3729 12.548 16.9144 11.7475 16.9144C10.9466 16.9144 10.2979 16.3726 10.2979 15.7045C10.2979 15.0361 10.947 14.4946 11.7475 14.4946C12.548 14.4946 13.1972 15.0361 13.1972 15.7045Z" fill="#8BAFFF" fill-opacity="0.84"/>
<path opacity="0.5" d="M9.07608 15.7045C9.07608 16.3729 8.42689 16.9144 7.62642 16.9144C6.82554 16.9144 6.17676 16.3726 6.17676 15.7045C6.17676 15.0361 6.82594 14.4946 7.62642 14.4946C8.4273 14.4946 9.07608 15.0361 9.07608 15.7045Z" fill="#8BAFFF" fill-opacity="0.84"/>
<path d="M51.6273 25.7409C50.123 24.0599 47.0459 23.2387 44.9947 24.452C44.4895 22.0441 42.4 19.9109 39.6732 19.0193C36.9459 18.1276 33.6768 18.5081 31.3459 19.9889C29.0154 21.4693 27.7048 23.9983 28.0086 26.4297C26.0304 26.0536 23.8521 26.4511 22.5647 28.1589C20.8961 30.3735 23.0589 32.5679 23.0589 32.5679L34.6815 32.6234V29.0683H33.196C32.9326 29.0683 32.7976 28.8045 32.9799 28.6456L34.6905 27.1553L36.6703 25.4308C36.7881 25.328 36.9847 25.328 37.1025 25.4308L39.0823 27.1553L40.793 28.6456C40.9752 28.8045 40.8403 29.0683 40.5768 29.0683H39.0913V32.6445L51.4605 32.7037C53.2238 31.013 53.1312 27.4221 51.6273 25.7409Z" fill="#8BAFFF" fill-opacity="0.84"/>
</svg>
